GeoramaExtended-ExtraBold.ufo
<glyph name="exclam" format="2">
  <advance width="324.09599999999995"/>
  <unicode hex="0021"/>
  <outline>
    <contour>
      <point x="67.338" y="259.7" type="line"/>
      <point x="260.45599999999996" y="259.7" type="line"/>
      <point x="276.62399999999997" y="740.0" type="line"/>
      <point x="51.943999999999996" y="740.0" type="line"/>
    </contour>
    <contour>
      <point x="37.673999999999985" y="91.992" type="curve" smooth="yes"/>
      <point x="37.673999999999985" y="24.477999999999998"/>
      <point x="72.226" y="-9.202"/>
      <point x="162.04799999999997" y="-9.202" type="curve" smooth="yes"/>
      <point x="252.01" y="-9.202"/>
      <point x="286.422" y="24.477999999999998"/>
      <point x="286.422" y="91.992" type="curve" smooth="yes"/>
      <point x="286.422" y="160.36599999999999"/>
      <point x="252.01" y="194.046"/>
      <point x="162.04799999999997" y="194.046" type="curve" smooth="yes"/>
      <point x="72.08599999999998" y="194.046"/>
      <point x="37.673999999999985" y="160.36599999999999"/>
    </contour>
  </outline>
</glyph>
<glyph name="numbersign" format="2">
  <advance width="852.292"/>
  <unicode hex="0023"/>
  <outline>
    <contour>
      <point x="91.38399999999999" y="418.83399999999995" type="line"/>
      <point x="172.652" y="418.83399999999995" type="line"/>
      <point x="145.56599999999997" y="281.864" type="line"/>
      <point x="65.928" y="281.864" type="line"/>
      <point x="65.928" y="140.714" type="line"/>
      <point x="119.95399999999998" y="140.714" type="line"/>
      <point x="94.58599999999998" y="0.0" type="line"/>
      <point x="316.256" y="0.0" type="line"/>
      <point x="341.62399999999997" y="140.714" type="line"/>
      <point x="434.212" y="140.714" type="line"/>
      <point x="408.844" y="0.0" type="line"/>
      <point x="630.5139999999999" y="0.0" type="line"/>
      <point x="655.882" y="140.714" type="line"/>
      <point x="761.51" y="140.714" type="line"/>
      <point x="761.51" y="281.864" type="line"/>
      <point x="681.494" y="281.864" type="line"/>
      <point x="708.5799999999999" y="418.83399999999995" type="line"/>
      <point x="786.9659999999999" y="418.83399999999995" type="line"/>
      <point x="786.9659999999999" y="559.2959999999999" type="line"/>
      <point x="733.534" y="559.2959999999999" type="line"/>
      <point x="759.146" y="700.0" type="line"/>
      <point x="537.476" y="700.0" type="line"/>
      <point x="511.86400000000003" y="559.2959999999999" type="line"/>
      <point x="419.27599999999995" y="559.2959999999999" type="line"/>
      <point x="444.888" y="700.0" type="line"/>
      <point x="223.218" y="700.0" type="line"/>
      <point x="197.60599999999997" y="559.2959999999999" type="line"/>
      <point x="91.38399999999999" y="559.2959999999999" type="line"/>
    </contour>
    <contour>
      <point x="394.322" y="418.83399999999995" type="line"/>
      <point x="486.90999999999997" y="418.83399999999995" type="line"/>
      <point x="459.82400000000007" y="281.864" type="line"/>
      <point x="367.236" y="281.864" type="line"/>
    </contour>
  </outline>
</glyph>
<glyph name="dollar" format="2">
  <advance width="852.292"/>
  <unicode hex="0024"/>
  <outline>
    <contour>
      <point x="380.23799999999994" y="-10.0" type="curve" smooth="yes"/>
      <point x="631.3779999999999" y="-16.72"/>
      <point x="802.978" y="46.96000000000001"/>
      <point x="802.978" y="217.368" type="curve" smooth="yes"/>
      <point x="802.978" y="346.3"/>
      <point x="705.4839999999999" y="406.01"/>
      <point x="533.778" y="433.23799999999994" type="curve" smooth="yes"/>
      <point x="377.986" y="456.34000000000003"/>
      <point x="317.65400000000005" y="456.35400000000004"/>
      <point x="317.65400000000005" y="499.074" type="curve" smooth="yes"/>
      <point x="317.65400000000005" y="531.3119999999999"/>
      <point x="352.02200000000005" y="542.44"/>
      <point x="438.13000000000005" y="542.44" type="curve" smooth="yes"/>
      <point x="534.5759999999999" y="542.44"/>
      <point x="647.7299999999999" y="527.628"/>
      <point x="719.3399999999999" y="505.32599999999996" type="curve"/>
      <point x="756.728" y="671.34" type="line"/>
      <point x="672.202" y="693.5659999999999"/>
      <point x="560.726" y="710.0"/>
      <point x="450.996" y="710.0" type="curve" smooth="yes"/>
      <point x="220.71800000000002" y="709.804"/>
      <point x="75.928" y="646.0880000000001"/>
      <point x="75.928" y="480.11800000000005" type="curve" smooth="yes"/>
      <point x="75.928" y="360.146"/>
      <point x="159.066" y="300.98400000000004"/>
      <point x="289.21799999999996" y="272.778" type="curve" smooth="yes"/>
      <point x="469.374" y="238.34000000000006"/>
      <point x="557.664" y="241.70000000000002"/>
      <point x="557.664" y="196.87199999999999" type="curve" smooth="yes"/>
      <point x="557.664" y="164.572"/>
      <point x="522.1179999999999" y="152.24599999999998"/>
      <point x="433.57199999999995" y="152.24599999999998" type="curve" smooth="yes"/>
      <point x="327.694" y="152.24599999999998"/>
      <point x="198.458" y="173.08200000000002"/>
      <point x="89.50999999999999" y="208.39000000000001" type="curve"/>
      <point x="50.013999999999996" y="42.757999999999996" type="line"/>
      <point x="143.064" y="13.003999999999996"/>
      <point x="265.39799999999997" y="-7.088"/>
    </contour>
    <contour>
      <point x="357.72200000000004" y="-105.0" type="line"/>
      <point x="523.1599999999999" y="-105.0" type="line"/>
      <point x="523.1599999999999" y="13.066000000000003" type="line"/>
      <point x="357.72200000000004" y="6.652000000000001" type="line"/>
    </contour>
    <contour>
      <point x="357.72200000000004" y="688.232" type="line"/>
      <point x="523.1599999999999" y="693.144" type="line"/>
      <point x="523.1599999999999" y="804.4839999999999" type="line"/>
      <point x="357.72200000000004" y="804.4839999999999" type="line"/>
    </contour>
  </outline>
</glyph>
<glyph name="ampersand" format="2">
  <advance width="929.9159999999998"/>
  <unicode hex="0026"/>
  <outline>
    <contour>
      <point x="647.4279999999999" y="-1.5400000000000007" type="line"/>
      <point x="923.612" y="0.6999999999999988" type="line"/>
      <point x="451.06000000000006" y="431.65200000000004" type="line" smooth="yes"/>
      <point x="403.58399999999995" y="473.79599999999994"/>
      <point x="390.09200000000004" y="491.55199999999996"/>
      <point x="390.09200000000004" y="514.524" type="curve" smooth="yes"/>
      <point x="390.09200000000004" y="545.1360000000001"/>
      <point x="416.28000000000003" y="560.744"/>
      <point x="463.88" y="560.744" type="curve" smooth="yes"/>
      <point x="507.47600000000006" y="560.744"/>
      <point x="533.056" y="543.332"/>
      <point x="533.056" y="509.712" type="curve" smooth="yes"/>
      <point x="533.056" y="484.56800000000004"/>
      <point x="519.6639999999999" y="467.81199999999995"/>
      <point x="492.79199999999986" y="455.648" type="curve"/>
      <point x="589.1399999999999" y="368.352" type="line"/>
      <point x="702.1879999999999" y="402.044"/>
      <point x="744.2679999999999" y="458.108"/>
      <point x="744.2679999999999" y="535.272" type="curve" smooth="yes"/>
      <point x="744.2679999999999" y="649.544"/>
      <point x="643.0400000000001" y="710.0"/>
      <point x="455.63599999999997" y="710.0" type="curve" smooth="yes"/>
      <point x="237.51600000000002" y="710.0"/>
      <point x="152.62800000000001" y="631.044"/>
      <point x="152.62800000000001" y="514.172" type="curve" smooth="yes"/>
      <point x="152.62800000000001" y="459.14399999999995"/>
      <point x="168.448" y="411.196"/>
      <point x="227.09599999999998" y="359.252" type="curve" smooth="yes"/>
    </contour>
    <contour>
      <point x="366.51599999999996" y="-10.0" type="curve" smooth="yes"/>
      <point x="483.25199999999995" y="-10.0"/>
      <point x="557.7399999999999" y="12.908000000000001"/>
      <point x="620.232" y="53.17199999999999" type="curve"/>
      <point x="505.10799999999995" y="165.68399999999997" type="line"/>
      <point x="484.816" y="150.69600000000005"/>
      <point x="455.1" y="141.06799999999998"/>
      <point x="402.46000000000004" y="141.06799999999998" type="curve" smooth="yes"/>
      <point x="314.28399999999993" y="141.06799999999998"/>
      <point x="253.79999999999998" y="180.124"/>
      <point x="253.79999999999998" y="232.69199999999998" type="curve" smooth="yes"/>
      <point x="253.79999999999998" y="268.236"/>
      <point x="275.188" y="287.9520000000001"/>
      <point x="315.972" y="302.288" type="curve"/>
      <point x="210.696" y="402.784" type="line"/>
      <point x="90.63999999999999" y="367.808"/>
      <point x="38.227999999999994" y="301.884"/>
      <point x="38.227999999999994" y="211.14400000000003" type="curve" smooth="yes"/>
      <point x="38.227999999999994" y="72.49600000000001"/>
      <point x="154.524" y="-10.0"/>
    </contour>
    <contour>
      <point x="759.3480000000001" y="117.32000000000001" type="line"/>
      <point x="817.8639999999999" y="171.52399999999997"/>
      <point x="855.376" y="237.93599999999998"/>
      <point x="855.376" y="313.69599999999997" type="curve" smooth="yes"/>
      <point x="855.376" y="334.836"/>
      <point x="853.9559999999999" y="345.812"/>
      <point x="852.04" y="361.08" type="curve"/>
      <point x="673.052" y="360.38" type="line"/>
      <point x="674.2479999999999" y="346.62"/>
      <point x="674.24" y="332.98799999999994"/>
      <point x="671.804" y="319.93199999999996" type="curve" smooth="yes"/>
      <point x="666.652" y="290.812"/>
      <point x="656.2599999999999" y="267.672"/>
      <point x="625.1560000000001" y="243.95199999999997" type="curve"/>
    </contour>
  </outline>
</glyph>
<glyph name="quotesingle" format="2">
  <advance width="260.57399999999996"/>
  <unicode hex="0027"/>
  <outline>
    <contour>
      <point x="40.48" y="427.0" type="line"/>
      <point x="219.32" y="427.0" type="line"/>
      <point x="228.362" y="700.0" type="line"/>
      <point x="32.211999999999996" y="700.0" type="line"/>
    </contour>
  </outline>
</glyph>
<glyph name="parenleft" format="2">
  <advance width="415.512"/>
  <unicode hex="0028"/>
  <outline>
    <contour>
      <point x="44.17" y="265.0" type="curve" smooth="yes"/>
      <point x="44.17" y="15.531999999999998"/>
      <point x="141.29799999999997" y="-195.25"/>
      <point x="387.03000000000003" y="-220.042" type="curve"/>
      <point x="387.03000000000003" y="-75.132" type="line"/>
      <point x="265.71000000000004" y="-36.132000000000005"/>
      <point x="228.85799999999995" y="61.594"/>
      <point x="228.85799999999995" y="265.0" type="curve" smooth="yes"/>
      <point x="228.85799999999995" y="468.40599999999995"/>
      <point x="265.71000000000004" y="566.1320000000001"/>
      <point x="387.03000000000003" y="605.132" type="curve"/>
      <point x="387.03000000000003" y="750.0419999999999" type="line"/>
      <point x="141.29799999999997" y="725.25"/>
      <point x="44.17" y="514.4680000000001"/>
    </contour>
  </outline>
</glyph>
<glyph name="parenright" format="2">
  <advance width="415.512"/>
  <unicode hex="0029"/>
  <outline>
    <contour>
      <point x="28.481999999999996" y="-75.132" type="curve"/>
      <point x="28.481999999999996" y="-220.042" type="line"/>
      <point x="274.214" y="-195.25"/>
      <point x="371.342" y="15.531999999999998"/>
      <point x="371.342" y="265.0" type="curve" smooth="yes"/>
      <point x="371.342" y="514.4680000000001"/>
      <point x="274.214" y="725.25"/>
      <point x="28.481999999999996" y="750.0419999999999" type="curve"/>
      <point x="28.481999999999996" y="605.132" type="line"/>
      <point x="149.80200000000002" y="566.1320000000001"/>
      <point x="186.654" y="468.40599999999995"/>
      <point x="186.654" y="265.0" type="curve" smooth="yes"/>
      <point x="186.654" y="61.594"/>
      <point x="149.80200000000002" y="-36.132000000000005"/>
    </contour>
  </outline>
</glyph>
<glyph name="asterisk" format="2">
  <advance width="442.0319999999999"/>
  <unicode hex="002A"/>
  <outline>
    <contour>
      <point x="137.546" y="327.38200000000006" type="line"/>
      <point x="221.11399999999998" y="420.438" type="line"/>
      <point x="304.28999999999996" y="327.28400000000005" type="line"/>
      <point x="380.41200000000003" y="380.186" type="line"/>
      <point x="317.804" y="489.79800000000006" type="line"/>
      <point x="430.78200000000004" y="541.6500000000001" type="line"/>
      <point x="401.87600000000003" y="628.674" type="line"/>
      <point x="280.43600000000004" y="604.708" type="line"/>
      <point x="268.568" y="728.3380000000001" type="line"/>
      <point x="173.66" y="728.3380000000001" type="line"/>
      <point x="161.79200000000003" y="604.708" type="line"/>
      <point x="40.156000000000006" y="628.674" type="line"/>
      <point x="11.25" y="541.6500000000001" type="line"/>
      <point x="124.42399999999999" y="489.79800000000006" type="line"/>
      <point x="61.32599999999999" y="380.382" type="line"/>
    </contour>
  </outline>
</glyph>
<glyph name="plus" format="2">
  <advance width="649.544"/>
  <unicode hex="002B"/>
  <outline>
    <contour>
      <point x="228.686" y="104.508" type="line"/>
      <point x="420.256" y="104.508" type="line"/>
      <point x="420.256" y="233.85000000000002" type="line"/>
      <point x="594.776" y="233.85000000000002" type="line"/>
      <point x="594.776" y="401.34" type="line"/>
      <point x="420.256" y="401.34" type="line"/>
      <point x="420.256" y="530.08" type="line"/>
      <point x="228.686" y="530.08" type="line"/>
      <point x="228.686" y="401.34" type="line"/>
      <point x="54.767999999999994" y="401.34" type="line"/>
      <point x="54.767999999999994" y="233.85000000000002" type="line"/>
      <point x="228.686" y="233.85000000000002" type="line"/>
    </contour>
  </outline>
</glyph>
<glyph name="comma" format="2">
  <advance width="311.818"/>
  <unicode hex="002C"/>
  <outline>
    <contour>
      <point x="52.32400000000001" y="99.63199999999999" type="line"/>
      <point x="56.35" y="73.00999999999999"/>
      <point x="57.708" y="47.27"/>
      <point x="57.708" y="27.704" type="curve" smooth="yes"/>
      <point x="57.708" y="-37.86"/>
      <point x="39.988" y="-107.19999999999999"/>
      <point x="-9.106000000000005" y="-168.76199999999997" type="curve"/>
      <point x="165.602" y="-194.23399999999998" type="line"/>
      <point x="237.51" y="-123.766"/>
      <point x="272.584" y="-53.75"/>
      <point x="272.584" y="24.976" type="curve" smooth="yes"/>
      <point x="272.584" y="54.90599999999999"/>
      <point x="267.914" y="80.682"/>
      <point x="260.43600000000004" y="101.668" type="curve"/>
    </contour>
  </outline>
</glyph>
<glyph name="hyphen" format="2">
  <advance width="422.014"/>
  <unicode hex="002D"/>
  <outline>
    <contour>
      <point x="45.376000000000005" y="236.94" type="line"/>
      <point x="376.638" y="236.94" type="line"/>
      <point x="376.638" y="409.848" type="line"/>
      <point x="45.376000000000005" y="409.848" type="line"/>
    </contour>
  </outline>
</glyph>
<glyph name="period" format="2">
  <advance width="321.44999999999993"/>
  <unicode hex="002E"/>
  <outline>
    <contour>
      <point x="36.39999999999999" y="92.766" type="curve" smooth="yes"/>
      <point x="36.39999999999999" y="25.252"/>
      <point x="70.952" y="-8.427999999999999"/>
      <point x="160.774" y="-8.427999999999999" type="curve" smooth="yes"/>
      <point x="250.736" y="-8.427999999999999"/>
      <point x="285.148" y="25.252"/>
      <point x="285.148" y="92.766" type="curve" smooth="yes"/>
      <point x="285.148" y="161.14"/>
      <point x="250.736" y="194.82"/>
      <point x="160.774" y="194.82" type="curve" smooth="yes"/>
      <point x="70.812" y="194.82"/>
      <point x="36.39999999999999" y="161.14"/>
    </contour>
  </outline>
</glyph>
<glyph name="slash" format="2">
  <advance width="540.206"/>
  <unicode hex="002F"/>
  <outline>
    <contour>
      <point x="4.504" y="-210.0" type="line"/>
      <point x="181.35000000000002" y="-210.0" type="line"/>
      <point x="535.702" y="740.0" type="line"/>
      <point x="358.598" y="740.0" type="line"/>
    </contour>
  </outline>
</glyph>
<glyph name="zero" format="2">
  <advance width="852.292"/>
  <unicode hex="0030"/>
  <outline>
    <contour>
      <point x="34.37599999999999" y="350.0" type="curve" smooth="yes"/>
      <point x="34.37599999999999" y="72.91199999999999"/>
      <point x="207.662" y="-10.0"/>
      <point x="426.146" y="-10.0" type="curve" smooth="yes"/>
      <point x="644.0519999999999" y="-10.0"/>
      <point x="817.9159999999998" y="73.944"/>
      <point x="817.9159999999998" y="350.0" type="curve" smooth="yes"/>
      <point x="817.9159999999998" y="626.356"/>
      <point x="647.9219999999999" y="710.0"/>
      <point x="426.146" y="710.0" type="curve" smooth="yes"/>
      <point x="206.888" y="710.0"/>
      <point x="34.37599999999999" y="628.42"/>
    </contour>
    <contour>
      <point x="272.57" y="346.646" type="curve" smooth="yes"/>
      <point x="272.57" y="518.0580000000001"/>
      <point x="343.218" y="552.428"/>
      <point x="426.146" y="552.428" type="curve" smooth="yes"/>
      <point x="509.27" y="552.428"/>
      <point x="579.9179999999999" y="518.316"/>
      <point x="579.9179999999999" y="346.646" type="curve" smooth="yes"/>
      <point x="579.9179999999999" y="183.53200000000004"/>
      <point x="510.04400000000004" y="147.572"/>
      <point x="426.146" y="147.572" type="curve" smooth="yes"/>
      <point x="342.444" y="147.572"/>
      <point x="272.57" y="183.27400000000003"/>
    </contour>
  </outline>
</glyph>
<glyph name="one" format="2">
  <advance width="852.292"/>
  <unicode hex="0031"/>
  <outline>
    <contour>
      <point x="128.614" y="0.0" type="line"/>
      <point x="784.726" y="0.0" type="line"/>
      <point x="784.726" y="170.49999999999997" type="line"/>
      <point x="591.1059999999999" y="170.49999999999997" type="line"/>
      <point x="591.1059999999999" y="700.98" type="line"/>
      <point x="474.96" y="700.98" type="line"/>
      <point x="109.55" y="569.654" type="line"/>
      <point x="160.546" y="396.162" type="line"/>
      <point x="357.48199999999997" y="467.52599999999995" type="line"/>
      <point x="357.48199999999997" y="170.49999999999997" type="line"/>
      <point x="128.614" y="170.49999999999997" type="line"/>
    </contour>
  </outline>
</glyph>
<glyph name="two" format="2">
  <advance width="852.6039999999999"/>
  <unicode hex="0032"/>
  <outline>
    <contour>
      <point x="69.232" y="135.172" type="curve"/>
      <point x="70.356" y="0.0" type="line"/>
      <point x="789.5559999999998" y="0.0" type="line"/>
      <point x="789.5559999999998" y="170.63999999999996" type="line"/>
      <point x="458.20399999999995" y="170.63999999999996" type="line"/>
      <point x="653.8279999999999" y="290.7"/>
      <point x="716.3519999999999" y="358.52799999999996"/>
      <point x="716.3519999999999" y="476.02799999999996" type="curve" smooth="yes"/>
      <point x="716.3519999999999" y="617.5360000000001"/>
      <point x="597.8799999999999" y="710.0"/>
      <point x="395.132" y="710.0" type="curve" smooth="yes"/>
      <point x="284.19599999999997" y="710.0"/>
      <point x="153.28799999999998" y="678.7560000000001"/>
      <point x="68.744" y="631.7280000000001" type="curve"/>
      <point x="131.49199999999996" y="464.61600000000004" type="line"/>
      <point x="208.72799999999998" y="497.8"/>
      <point x="282.312" y="514.42"/>
      <point x="344.688" y="514.42" type="curve" smooth="yes"/>
      <point x="435.36" y="514.42"/>
      <point x="472.7440000000001" y="479.78799999999995"/>
      <point x="472.7440000000001" y="426.648" type="curve" smooth="yes"/>
      <point x="472.7440000000001" y="345.992"/>
      <point x="361.23199999999997" y="268.74399999999997"/>
    </contour>
  </outline>
</glyph>
<glyph name="three" format="2">
  <advance width="852.4599999999999"/>
  <unicode hex="0033"/>
  <outline>
    <contour>
      <point x="44.31999999999999" y="45.559999999999995" type="line"/>
      <point x="138.16" y="7.4"/>
      <point x="243.05999999999997" y="-9.5"/>
      <point x="384.13999999999993" y="-9.5" type="curve" smooth="yes"/>
      <point x="652.44" y="-9.5"/>
      <point x="784.48" y="68.42"/>
      <point x="784.48" y="207.85999999999999" type="curve" smooth="yes"/>
      <point x="784.48" y="286.88000000000005"/>
      <point x="732.86" y="343.5800000000001"/>
      <point x="634.8599999999999" y="367.06000000000006" type="curve"/>
      <point x="716.3599999999999" y="391.52"/>
      <point x="761.0999999999999" y="444.36"/>
      <point x="761.0999999999999" y="519.6800000000001" type="curve" smooth="yes"/>
      <point x="761.0999999999999" y="641.6400000000001"/>
      <point x="655.48" y="710.0"/>
      <point x="399.14" y="710.0" type="curve" smooth="yes"/>
      <point x="264.42" y="710.0"/>
      <point x="132.69999999999996" y="691.7199999999999"/>
      <point x="64.3" y="661.9599999999999" type="curve"/>
      <point x="104.84" y="499.86" type="line"/>
      <point x="178.22" y="520.28"/>
      <point x="269.66" y="531.62"/>
      <point x="357.36" y="531.62" type="curve" smooth="yes"/>
      <point x="478.84" y="531.62"/>
      <point x="533.34" y="514.1200000000001"/>
      <point x="533.34" y="479.98" type="curve" smooth="yes"/>
      <point x="533.34" y="443.37999999999994"/>
      <point x="490.4" y="426.8"/>
      <point x="365.67999999999995" y="426.8" type="curve" smooth="yes"/>
      <point x="218.81999999999994" y="426.8" type="line"/>
      <point x="218.81999999999994" y="277.16" type="line"/>
      <point x="351.56" y="277.16" type="line" smooth="yes"/>
      <point x="486.1399999999999" y="277.16"/>
      <point x="549.7" y="259.32000000000005"/>
      <point x="549.7" y="221.61999999999998" type="curve" smooth="yes"/>
      <point x="549.7" y="180.82"/>
      <point x="506.05999999999995" y="163.35999999999999"/>
      <point x="370.24" y="163.35999999999999" type="curve" smooth="yes"/>
      <point x="269.92" y="163.35999999999999"/>
      <point x="160.06000000000003" y="177.54"/>
      <point x="91.44000000000001" y="201.01999999999998" type="curve"/>
    </contour>
  </outline>
</glyph>
<glyph name="four" format="2">
  <advance width="852.4599999999999"/>
  <unicode hex="0034"/>
  <outline>
    <contour>
      <point x="18.220000000000006" y="100.94" type="line"/>
      <point x="448.31999999999994" y="100.94" type="line"/>
      <point x="448.31999999999994" y="0.0" type="line"/>
      <point x="684.2599999999999" y="0.0" type="line"/>
      <point x="684.2599999999999" y="100.94" type="line"/>
      <point x="808.4800000000001" y="100.94" type="line"/>
      <point x="808.4800000000001" y="253.58" type="line"/>
      <point x="684.2599999999999" y="253.58" type="line"/>
      <point x="684.2599999999999" y="700.0" type="line"/>
      <point x="515.5399999999998" y="701.1200000000001" type="line"/>
      <point x="17.660000000000004" y="236.04000000000002" type="line"/>
    </contour>
    <contour>
      <point x="240.83999999999997" y="253.58" type="line"/>
      <point x="450.9" y="452.61999999999995" type="line"/>
      <point x="450.9" y="253.58" type="line"/>
    </contour>
  </outline>
</glyph>
<glyph name="five" format="2">
  <advance width="852.46"/>
  <unicode hex="0035"/>
  <outline>
    <contour>
      <point x="50.77799999999999" y="42.202000000000005" type="line"/>
      <point x="150.60799999999998" y="4.091999999999999"/>
      <point x="258.5" y="-9.930000000000001"/>
      <point x="382.32399999999996" y="-9.930000000000001" type="curve" smooth="yes"/>
      <point x="630.022" y="-9.930000000000001"/>
      <point x="790.656" y="64.63000000000001"/>
      <point x="790.656" y="234.36" type="curve" smooth="yes"/>
      <point x="790.656" y="393.022"/>
      <point x="664.0479999999999" y="435.45000000000005"/>
      <point x="430.264" y="436.962" type="curve" smooth="yes"/>
      <point x="303.44" y="437.39399999999995" type="line"/>
      <point x="316.12999999999994" y="526.7280000000001" type="line"/>
      <point x="739.374" y="526.7280000000001" type="line"/>
      <point x="739.374" y="700.0" type="line"/>
      <point x="153.724" y="700.0" type="line"/>
      <point x="95.10999999999999" y="294.24600000000004" type="line"/>
      <point x="105.252" y="285.10999999999996" type="line"/>
      <point x="344.0879999999999" y="285.10999999999996" type="line" smooth="yes"/>
      <point x="528.588" y="285.10999999999996"/>
      <point x="560.828" y="261.984"/>
      <point x="560.828" y="224.61" type="curve" smooth="yes"/>
      <point x="560.828" y="183.83200000000002"/>
      <point x="511.06800000000004" y="162.42399999999998"/>
      <point x="368.776" y="162.42399999999998" type="curve" smooth="yes"/>
      <point x="261.93199999999996" y="162.42399999999998"/>
      <point x="158.07999999999998" y="177.66199999999998"/>
      <point x="93.35399999999998" y="198.658" type="curve"/>
    </contour>
  </outline>
</glyph>
<glyph name="six" format="2">
  <advance width="852.46"/>
  <unicode hex="0036"/>
  <outline>
    <contour>
      <point x="438.97999999999996" y="-10.0" type="curve" smooth="yes"/>
      <point x="686.76" y="-10.0"/>
      <point x="815.44" y="73.0"/>
      <point x="815.44" y="236.8" type="curve" smooth="yes"/>
      <point x="815.44" y="378.52000000000004"/>
      <point x="714.7000000000002" y="453.3"/>
      <point x="514.22" y="453.3" type="curve" smooth="yes"/>
      <point x="405.47999999999996" y="453.3"/>
      <point x="314.71999999999997" y="433.82000000000005"/>
      <point x="245.32000000000002" y="393.90000000000003" type="curve"/>
      <point x="246.44" y="254.79999999999995" type="line"/>
      <point x="316.49999999999994" y="279.52000000000004"/>
      <point x="378.55999999999995" y="297.74"/>
      <point x="450.29999999999995" y="297.74" type="curve" smooth="yes"/>
      <point x="544.66" y="297.74"/>
      <point x="589.42" y="274.78000000000003"/>
      <point x="589.42" y="227.60000000000002" type="curve" smooth="yes"/>
      <point x="589.42" y="175.84"/>
      <point x="544.64" y="151.72000000000006"/>
      <point x="461.41999999999996" y="151.72000000000006" type="curve" smooth="yes"/>
      <point x="321.21999999999997" y="151.72000000000006"/>
      <point x="265.54" y="200.03999999999996"/>
      <point x="265.54" y="345.3" type="curve" smooth="yes"/>
      <point x="265.54" y="477.26000000000005"/>
      <point x="337.09999999999997" y="536.6600000000001"/>
      <point x="511.00000000000006" y="536.6600000000001" type="curve" smooth="yes"/>
      <point x="599.2999999999998" y="536.6600000000001"/>
      <point x="656.92" y="526.6800000000002"/>
      <point x="744.8199999999999" y="506.4" type="curve"/>
      <point x="786.22" y="669.9200000000001" type="line"/>
      <point x="716.2400000000001" y="694.42"/>
      <point x="612.0999999999999" y="710.0"/>
      <point x="482.9199999999999" y="710.0" type="curve" smooth="yes"/>
      <point x="189.28" y="710.0"/>
      <point x="38.760000000000005" y="576.02"/>
      <point x="38.760000000000005" y="328.88000000000005" type="curve" smooth="yes"/>
      <point x="38.760000000000005" y="101.36"/>
      <point x="173.77999999999994" y="-10.0"/>
    </contour>
  </outline>
</glyph>
<glyph name="seven" format="2">
  <advance width="852.46"/>
  <unicode hex="0037"/>
  <outline>
    <contour>
      <point x="224.07600000000002" y="0.0" type="curve"/>
      <point x="467.844" y="0.0" type="line"/>
      <point x="472.716" y="109.33999999999999"/>
      <point x="517.0680000000001" y="201.74"/>
      <point x="614.8639999999999" y="331.34799999999996" type="curve" smooth="yes"/>
      <point x="788.296" y="559.8759999999999" type="line"/>
      <point x="788.296" y="700.0" type="line"/>
      <point x="81.83999999999999" y="700.0" type="line"/>
      <point x="81.83999999999999" y="525.3399999999999" type="line"/>
      <point x="512.7919999999999" y="525.3399999999999" type="line"/>
      <point x="363.51599999999996" y="343.416" type="line" smooth="yes"/>
      <point x="261.712" y="219.80800000000002"/>
      <point x="224.07600000000002" y="124.14800000000001"/>
    </contour>
  </outline>
</glyph>
<glyph name="eight" format="2">
  <advance width="852.6039999999999"/>
  <unicode hex="0038"/>
  <outline>
    <contour>
      <point x="484.1840000000001" y="409.82" type="curve"/>
      <point x="647.48" y="366.67199999999997" type="line"/>
      <point x="739.492" y="401.0"/>
      <point x="776.9159999999998" y="464.852"/>
      <point x="776.9159999999998" y="522.788" type="curve" smooth="yes"/>
      <point x="776.9159999999998" y="642.984"/>
      <point x="651.4519999999999" y="710.0"/>
      <point x="425.19599999999997" y="710.0" type="curve" smooth="yes"/>
      <point x="199.224" y="710.0"/>
      <point x="72.82799999999999" y="636.2439999999999"/>
      <point x="72.82799999999999" y="498.436" type="curve" smooth="yes"/>
      <point x="72.82799999999999" y="216.96399999999997"/>
      <point x="573.024" y="311.48"/>
      <point x="573.024" y="191.156" type="curve" smooth="yes"/>
      <point x="573.024" y="156.94"/>
      <point x="531.1840000000001" y="141.15599999999998"/>
      <point x="442.2879999999999" y="141.15599999999998" type="curve" smooth="yes"/>
      <point x="324.344" y="141.15599999999998"/>
      <point x="262.112" y="167.608"/>
      <point x="262.112" y="214.65999999999997" type="curve" smooth="yes"/>
      <point x="262.112" y="249.32399999999996"/>
      <point x="284.036" y="270.224"/>
      <point x="332.48" y="294.132" type="curve"/>
      <point x="182.228" y="362.512" type="line"/>
      <point x="77.088" y="340.692"/>
      <point x="29.067999999999998" y="270.396"/>
      <point x="29.067999999999998" y="199.328" type="curve" smooth="yes"/>
      <point x="29.067999999999998" y="63.93999999999999"/>
      <point x="165.45999999999998" y="-10.0"/>
      <point x="429.168" y="-10.0" type="curve" smooth="yes"/>
      <point x="701.0439999999999" y="-10.0"/>
      <point x="823.82" y="59.507999999999996"/>
      <point x="823.82" y="209.90399999999997" type="curve" smooth="yes"/>
      <point x="823.82" y="473.96799999999996"/>
      <point x="295.20799999999997" y="399.196"/>
      <point x="295.20799999999997" y="505.68399999999997" type="curve" smooth="yes"/>
      <point x="295.20799999999997" y="536.528"/>
      <point x="326.66" y="557.228"/>
      <point x="423.96399999999994" y="557.228" type="curve" smooth="yes"/>
      <point x="519.0399999999998" y="557.228"/>
      <point x="561.2199999999999" y="533.9600000000002"/>
      <point x="561.2199999999999" y="492.988" type="curve" smooth="yes"/>
      <point x="561.2199999999999" y="458.604"/>
      <point x="539.6720000000001" y="437.36"/>
    </contour>
  </outline>
</glyph>
<glyph name="nine" format="2">
  <advance width="852.46"/>
  <unicode hex="0039"/>
  <outline>
    <contour>
      <point x="371.98" y="-10.0" type="curve" smooth="yes"/>
      <point x="665.6199999999999" y="-10.0"/>
      <point x="814.2399999999999" y="120.18"/>
      <point x="814.2399999999999" y="361.8" type="curve" smooth="yes"/>
      <point x="814.2399999999999" y="594.84"/>
      <point x="682.1199999999999" y="710.0"/>
      <point x="418.3799999999999" y="710.0" type="curve" smooth="yes"/>
      <point x="169.34" y="710.0"/>
      <point x="36.839999999999996" y="626.06"/>
      <point x="36.839999999999996" y="465.58" type="curve" smooth="yes"/>
      <point x="36.839999999999996" y="319.9"/>
      <point x="144.12000000000003" y="247.06"/>
      <point x="342.76" y="247.06" type="curve" smooth="yes"/>
      <point x="452.05999999999995" y="247.06"/>
      <point x="543.04" y="265.99999999999994"/>
      <point x="607.6800000000001" y="304.97999999999996" type="curve"/>
      <point x="607.4000000000001" y="445.44" type="line"/>
      <point x="540.0199999999999" y="419.52000000000004"/>
      <point x="477.90000000000003" y="402.13999999999993"/>
      <point x="405.58" y="402.13999999999993" type="curve" smooth="yes"/>
      <point x="311.4000000000001" y="402.13999999999993"/>
      <point x="263.44" y="424.2"/>
      <point x="263.44" y="473.76" type="curve" smooth="yes"/>
      <point x="263.44" y="524.8600000000001"/>
      <point x="314.69999999999993" y="548.42"/>
      <point x="397.74" y="548.42" type="curve" smooth="yes"/>
      <point x="523.5200000000001" y="548.42"/>
      <point x="587.74" y="499.7399999999999"/>
      <point x="587.74" y="355.78" type="curve" smooth="yes"/>
      <point x="587.74" y="223.82"/>
      <point x="519.0999999999999" y="161.70000000000005"/>
      <point x="338.13999999999993" y="161.70000000000005" type="curve" smooth="yes"/>
      <point x="259.69999999999993" y="161.70000000000005"/>
      <point x="197.08" y="172.24000000000004"/>
      <point x="107.1" y="192.73999999999998" type="curve"/>
      <point x="66.42" y="30.5" type="line"/>
      <point x="139.2" y="5.8599999999999985"/>
      <point x="245.6" y="-10.0"/>
    </contour>
  </outline>
</glyph>
<glyph name="less" format="2">
  <advance width="649.544"/>
  <unicode hex="003C"/>
  <outline>
    <contour>
      <point x="600.1519999999999" y="51.00600000000001" type="line"/>
      <point x="600.1519999999999" y="219.03199999999998" type="line"/>
      <point x="242.792" y="312.434" type="line"/>
      <point x="600.1519999999999" y="405.72999999999996" type="line"/>
      <point x="600.1519999999999" y="574.52" type="line"/>
      <point x="49.391999999999996" y="395.01800000000003" type="line"/>
      <point x="49.391999999999996" y="228.04399999999998" type="line"/>
    </contour>
  </outline>
</glyph>
<glyph name="equal" format="2">
  <advance width="644.384"/>
  <unicode hex="003D"/>
  <outline>
    <contour>
      <point x="589.616" y="277.668" type="line"/>
      <point x="54.767999999999994" y="277.668" type="line"/>
      <point x="54.767999999999994" y="110.178" type="line"/>
      <point x="589.616" y="110.178" type="line"/>
    </contour>
    <contour>
      <point x="589.616" y="515.886" type="line"/>
      <point x="54.767999999999994" y="515.886" type="line"/>
      <point x="54.767999999999994" y="348.396" type="line"/>
      <point x="589.616" y="348.396" type="line"/>
    </contour>
  </outline>
</glyph>
<glyph name="greater" format="2">
  <advance width="649.544"/>
  <unicode hex="003E"/>
  <outline>
    <contour>
      <point x="600.1519999999999" y="228.002" type="line"/>
      <point x="600.1519999999999" y="394.976" type="line"/>
      <point x="49.391999999999996" y="574.52" type="line"/>
      <point x="49.391999999999996" y="405.548" type="line"/>
      <point x="406.752" y="312.392" type="line"/>
      <point x="49.391999999999996" y="218.94799999999998" type="line"/>
      <point x="49.391999999999996" y="51.00600000000001" type="line"/>
    </contour>
  </outline>
</glyph>
<glyph name="question" format="2">
  <advance width="623.016"/>
  <unicode hex="003F"/>
  <outline>
    <contour>
      <point x="195.30599999999998" y="259.40599999999995" type="line"/>
      <point x="388.68199999999996" y="259.40599999999995" type="line"/>
      <point x="389.88599999999997" y="314.472" type="line"/>
      <point x="550.592" y="357.078"/>
      <point x="606.2739999999999" y="426.93"/>
      <point x="606.2739999999999" y="529.9599999999999" type="curve" smooth="yes"/>
      <point x="606.2739999999999" y="686.66"/>
      <point x="465.36199999999997" y="749.742"/>
      <point x="309.73" y="749.742" type="curve" smooth="yes"/>
      <point x="215.45600000000002" y="749.742"/>
      <point x="91.28" y="719.074"/>
      <point x="16.304000000000002" y="673.1120000000001" type="curve"/>
      <point x="74.376" y="510.58400000000006" type="line"/>
      <point x="145.15400000000002" y="545.298"/>
      <point x="213.0" y="565.6959999999999"/>
      <point x="271.546" y="565.6959999999999" type="curve" smooth="yes"/>
      <point x="331.47599999999994" y="565.6959999999999"/>
      <point x="368.65200000000004" y="549.9240000000001"/>
      <point x="368.65200000000004" y="512.414" type="curve" smooth="yes"/>
      <point x="368.65200000000004" y="479.164"/>
      <point x="351.69599999999997" y="451.714"/>
      <point x="190.06" y="416.006" type="curve"/>
    </contour>
    <contour>
      <point x="167.49" y="91.992" type="curve" smooth="yes"/>
      <point x="167.49" y="24.477999999999998"/>
      <point x="201.868" y="-9.202"/>
      <point x="291.90599999999995" y="-9.202" type="curve" smooth="yes"/>
      <point x="381.568" y="-9.202"/>
      <point x="416.28" y="24.477999999999998"/>
      <point x="416.28" y="91.992" type="curve" smooth="yes"/>
      <point x="416.28" y="160.36599999999999"/>
      <point x="381.568" y="194.046"/>
      <point x="291.90599999999995" y="194.046" type="curve" smooth="yes"/>
      <point x="201.68599999999998" y="194.046"/>
      <point x="167.49" y="160.36599999999999"/>
    </contour>
  </outline>
</glyph>
<glyph name="at" format="2">
  <advance width="1011.2599999999998"/>
  <unicode hex="0040"/>
  <outline>
    <contour>
      <point x="469.89999999999986" y="-124.216" type="curve" smooth="yes"/>
      <point x="549.796" y="-124.216"/>
      <point x="642.4" y="-110.888"/>
      <point x="714.2" y="-89.89600000000002" type="curve"/>
      <point x="690.212" y="-0.9119999999999999" type="line"/>
      <point x="628.9839999999999" y="-18.348000000000006"/>
      <point x="553.5640000000001" y="-29.175999999999995"/>
      <point x="483.2079999999999" y="-29.175999999999995" type="curve" smooth="yes"/>
      <point x="290.416" y="-29.175999999999995"/>
      <point x="140.23199999999997" y="39.94799999999999"/>
      <point x="140.23199999999997" y="260.908" type="curve" smooth="yes"/>
      <point x="140.23199999999997" y="463.864"/>
      <point x="278.316" y="618.8960000000001"/>
      <point x="519.824" y="618.8960000000001" type="curve" smooth="yes"/>
      <point x="758.0039999999999" y="618.8960000000001"/>
      <point x="876.4079999999999" y="516.7360000000001"/>
      <point x="876.4079999999999" y="329.29200000000003" type="curve" smooth="yes"/>
      <point x="876.4079999999999" y="209.24800000000002"/>
      <point x="834.7959999999998" y="151.29999999999998"/>
      <point x="787.756" y="153.82" type="curve" smooth="yes"/>
      <point x="756.1840000000001" y="153.82"/>
      <point x="736.3719999999998" y="175.92399999999998"/>
      <point x="741.252" y="237.45600000000002" type="curve" smooth="yes"/>
      <point x="760.868" y="486.70400000000006" type="line"/>
      <point x="692.404" y="511.02399999999994"/>
      <point x="604.5519999999999" y="526.776"/>
      <point x="535.292" y="526.776" type="curve" smooth="yes"/>
      <point x="351.912" y="526.776"/>
      <point x="245.08399999999997" y="416.08"/>
      <point x="245.08399999999997" y="257.21999999999997" type="curve" smooth="yes"/>
      <point x="245.08399999999997" y="128.112"/>
      <point x="314.668" y="57.792"/>
      <point x="423.244" y="57.792" type="curve" smooth="yes"/>
      <point x="503.2679999999999" y="57.792"/>
      <point x="565.2839999999999" y="101.33200000000002"/>
      <point x="604.2280000000001" y="161.26" type="curve"/>
      <point x="623.712" y="95.33999999999997"/>
      <point x="666.604" y="49.10800000000001"/>
      <point x="757.6360000000001" y="49.10800000000001" type="curve" smooth="yes"/>
      <point x="910.68" y="44.06800000000001"/>
      <point x="979.9759999999999" y="179.388"/>
      <point x="979.9759999999999" y="334.43999999999994" type="curve" smooth="yes"/>
      <point x="979.9759999999999" y="574.46"/>
      <point x="810.348" y="710.0"/>
      <point x="536.0759999999999" y="710.0" type="curve" smooth="yes"/>
      <point x="217.55999999999995" y="710.0"/>
      <point x="31.99600000000001" y="519.58"/>
      <point x="31.99600000000001" y="263.12" type="curve" smooth="yes"/>
      <point x="31.99600000000001" y="-18.47200000000001"/>
      <point x="217.252" y="-124.216"/>
    </contour>
    <contour>
      <point x="484.36" y="191.61599999999999" type="curve" smooth="yes"/>
      <point x="447.67999999999995" y="191.61599999999999"/>
      <point x="421.236" y="217.92000000000002"/>
      <point x="421.236" y="270.96400000000006" type="curve" smooth="yes"/>
      <point x="421.236" y="352.408"/>
      <point x="467.10799999999995" y="410.648"/>
      <point x="522.304" y="410.648" type="curve" smooth="yes"/>
      <point x="548.024" y="410.648"/>
      <point x="568.3879999999999" y="408.16"/>
      <point x="593.536" y="398.908" type="curve"/>
      <point x="580.972" y="269.14399999999995" type="line" smooth="yes"/>
      <point x="558.304" y="214.652"/>
      <point x="523.6600000000001" y="191.61599999999999"/>
    </contour>
  </outline>
</glyph>
<glyph name="A" format="2">
  <advance width="894.4459999999999"/>
  <unicode hex="0041"/>
  <anchor x="889.1979999999999" y="0.0" name="ogonek"/>
  <anchor x="437.848" y="0.0" name="bottom"/>
  <anchor x="448.18000000000006" y="700.0" name="top"/>
  <outline>
    <contour>
      <point x="5.443999999999999" y="0.0" type="line"/>
      <point x="261.44" y="0.0" type="line"/>
      <point x="302.20799999999997" y="109.2" type="line"/>
      <point x="575.3999999999999" y="109.2" type="line"/>
      <point x="616.8379999999999" y="0.0" type="line"/>
      <point x="889.1979999999999" y="0.0" type="line"/>
      <point x="579.7019999999999" y="701.4" type="line"/>
      <point x="313.538" y="701.4" type="line"/>
    </contour>
    <contour>
      <point x="357.416" y="277.318" type="line"/>
      <point x="439.052" y="522.736" type="line"/>
      <point x="520.1919999999999" y="277.318" type="line"/>
    </contour>
  </outline>
</glyph>
<glyph name="B" format="2">
  <advance width="874.9159999999999"/>
  <unicode hex="0042"/>
  <anchor x="435.564" y="700.0" name="top"/>
  <anchor x="435.564" y="0.0" name="bottom"/>
  <outline>
    <contour>
      <point x="66.632" y="4.579999999999998" type="line"/>
      <point x="284.576" y="-8.0"/>
      <point x="298.94399999999996" y="-10.0"/>
      <point x="445.372" y="-10.0" type="curve" smooth="yes"/>
      <point x="760.5079999999999" y="-10.0"/>
      <point x="855.812" y="44.7"/>
      <point x="855.812" y="207.484" type="curve" smooth="yes"/>
      <point x="855.812" y="301.61599999999993"/>
      <point x="788.536" y="367.47600000000006"/>
      <point x="675.1079999999998" y="388.068" type="curve"/>
      <point x="675.1079999999998" y="390.068" type="line"/>
      <point x="767.64" y="420.46400000000006"/>
      <point x="804.9439999999998" y="466.90000000000003"/>
      <point x="804.9439999999998" y="544.7360000000001" type="curve" smooth="yes"/>
      <point x="804.9439999999998" y="664.648"/>
      <point x="710.3159999999999" y="710.0"/>
      <point x="443.27199999999993" y="710.0" type="curve" smooth="yes"/>
      <point x="345.5800000000001" y="710.0"/>
      <point x="225.72" y="705.2799999999999"/>
      <point x="66.632" y="695.2800000000001" type="curve"/>
    </contour>
    <contour>
      <point x="307.64799999999997" y="425.20400000000006" type="line"/>
      <point x="307.64799999999997" y="536.624" type="line"/>
      <point x="372.756" y="540.604"/>
      <point x="381.024" y="541.604"/>
      <point x="432.068" y="541.604" type="curve" smooth="yes"/>
      <point x="542.468" y="541.604"/>
      <point x="573.0279999999999" y="525.5520000000001"/>
      <point x="573.0279999999999" y="482.54400000000004" type="curve" smooth="yes"/>
      <point x="573.0279999999999" y="445.048"/>
      <point x="542.04" y="425.20400000000006"/>
      <point x="490.0439999999999" y="425.20400000000006" type="curve" smooth="yes"/>
    </contour>
    <contour>
      <point x="307.64799999999997" y="162.94399999999996" type="curve"/>
      <point x="307.64799999999997" y="279.156" type="line"/>
      <point x="486.932" y="279.156" type="line" smooth="yes"/>
      <point x="574.588" y="279.156"/>
      <point x="604.048" y="262.43600000000004"/>
      <point x="604.048" y="220.324" type="curve" smooth="yes"/>
      <point x="604.048" y="173.21200000000002"/>
      <point x="569.708" y="158.17999999999998"/>
      <point x="427.04800000000006" y="158.17999999999998" type="curve" smooth="yes"/>
      <point x="397.92799999999994" y="158.17999999999998"/>
      <point x="351.664" y="159.96399999999997"/>
    </contour>
  </outline>
</glyph>
<glyph name="C" format="2">
  <advance width="850.622"/>
  <unicode hex="0043"/>
  <anchor x="465.504" y="700.0" name="top"/>
  <anchor x="455.744" y="0.0" name="bottom"/>
  <outline>
    <contour>
      <point x="34.18599999999999" y="334.29200000000003" type="curve" smooth="yes"/>
      <point x="34.18599999999999" y="85.92600000000002"/>
      <point x="184.35999999999999" y="-10.0"/>
      <point x="467.2699999999999" y="-10.0" type="curve" smooth="yes"/>
      <point x="635.0020000000001" y="-10.0"/>
      <point x="725.2359999999999" y="9.317999999999998"/>
      <point x="814.28" y="34.25399999999999" type="curve"/>
      <point x="772.0719999999999" y="201.1" type="line"/>
      <point x="687.2379999999999" y="183.0"/>
      <point x="590.0219999999999" y="170.73600000000002"/>
      <point x="504.636" y="170.73600000000002" type="curve" smooth="yes"/>
      <point x="344.20599999999996" y="170.73600000000002"/>
      <point x="280.71000000000004" y="219.49"/>
      <point x="280.71000000000004" y="339.624" type="curve" smooth="yes"/>
      <point x="280.71000000000004" y="472.49800000000005"/>
      <point x="342.188" y="526.4699999999999"/>
      <point x="509.69999999999993" y="526.4699999999999" type="curve" smooth="yes"/>
      <point x="581.9219999999999" y="526.4699999999999"/>
      <point x="660.0160000000001" y="517.3960000000001"/>
      <point x="748.8459999999999" y="501.13200000000006" type="curve"/>
      <point x="795.956" y="673.4399999999999" type="line"/>
      <point x="701.1080000000001" y="699.378"/>
      <point x="629.928" y="710.0"/>
      <point x="493.6619999999999" y="710.0" type="curve" smooth="yes"/>
      <point x="191.55199999999996" y="710.0"/>
      <point x="34.18599999999999" y="597.1840000000001"/>
    </contour>
  </outline>
</glyph>
<glyph name="D" format="2">
  <advance width="923.0959999999999"/>
  <unicode hex="0044"/>
  <anchor x="458.208" y="700.0" name="top"/>
  <outline>
    <contour>
      <point x="453.22" y="-10.0" type="curve" smooth="yes"/>
      <point x="738.728" y="-10.0"/>
      <point x="888.8679999999998" y="107.728"/>
      <point x="888.8679999999998" y="346.71999999999997" type="curve" smooth="yes"/>
      <point x="888.8679999999998" y="599.148"/>
      <point x="752.2239999999999" y="710.0"/>
      <point x="433.7" y="710.0" type="curve" smooth="yes"/>
      <point x="303.764" y="710.0"/>
      <point x="200.64800000000002" y="706.9999999999999"/>
      <point x="66.632" y="699.5680000000001" type="curve"/>
      <point x="66.632" y="-0.2800000000000007" type="line"/>
      <point x="183.15599999999998" y="-4.928"/>
      <point x="294.43999999999994" y="-10.0"/>
    </contour>
    <contour>
      <point x="470.02399999999994" y="156.34" type="curve" smooth="yes"/>
      <point x="405.56399999999996" y="156.34"/>
      <point x="362.24399999999997" y="158.908"/>
      <point x="307.4320000000001" y="160.972" type="curve"/>
      <point x="307.4320000000001" y="539.528" type="line"/>
      <point x="345.92" y="542.452"/>
      <point x="400.66" y="543.7319999999999"/>
      <point x="461.53999999999996" y="543.7319999999999" type="curve" smooth="yes"/>
      <point x="579.276" y="543.7319999999999"/>
      <point x="643.0559999999999" y="485.0199999999999"/>
      <point x="643.0559999999999" y="347.50800000000004" type="curve" smooth="yes"/>
      <point x="643.0559999999999" y="219.84800000000004"/>
      <point x="576.5199999999999" y="156.34"/>
    </contour>
  </outline>
</glyph>
<glyph name="E" format="2">
  <advance width="820.332"/>
  <unicode hex="0045"/>
  <anchor x="785.5679999999999" y="0.0" name="ogonek"/>
  <anchor x="426.13599999999997" y="0.0" name="bottom"/>
  <anchor x="433.33200000000005" y="700.0" name="top"/>
  <outline>
    <contour>
      <point x="66.632" y="0.0" type="line"/>
      <point x="785.7079999999999" y="0.0" type="line"/>
      <point x="785.7079999999999" y="175.648" type="line"/>
      <point x="302.74799999999993" y="175.648" type="line"/>
      <point x="302.74799999999993" y="273.9680000000001" type="line"/>
      <point x="733.1999999999998" y="273.9680000000001" type="line"/>
      <point x="733.1999999999998" y="434.016" type="line"/>
      <point x="302.74799999999993" y="434.016" type="line"/>
      <point x="302.74799999999993" y="523.2719999999999" type="line"/>
      <point x="762.1359999999999" y="523.2719999999999" type="line"/>
      <point x="762.1359999999999" y="700.0" type="line"/>
      <point x="66.632" y="700.0" type="line"/>
    </contour>
  </outline>
</glyph>
<glyph name="F" format="2">
  <advance width="777.8119999999999"/>
  <unicode hex="0046"/>
  <outline>
    <contour>
      <point x="66.632" y="0.0" type="line"/>
      <point x="308.004" y="0.0" type="line"/>
      <point x="308.004" y="203.07199999999997" type="line"/>
      <point x="697.6959999999999" y="203.07199999999997" type="line"/>
      <point x="697.6959999999999" y="381.34000000000003" type="line"/>
      <point x="307.4320000000001" y="381.34000000000003" type="line"/>
      <point x="307.4320000000001" y="515.4319999999999" type="line"/>
      <point x="755.76" y="515.4319999999999" type="line"/>
      <point x="755.76" y="700.0" type="line"/>
      <point x="66.632" y="700.0" type="line"/>
    </contour>
  </outline>
</glyph>
<glyph name="G" format="2">
  <advance width="883.0239999999999"/>
  <unicode hex="0047"/>
  <anchor x="463.63" y="700.0" name="top"/>
  <anchor x="456.07" y="0.0" name="bottom"/>
  <outline>
    <contour>
      <point x="34.18599999999999" y="334.808" type="curve" smooth="yes"/>
      <point x="34.18599999999999" y="101.46799999999999"/>
      <point x="170.72199999999998" y="-10.0"/>
      <point x="450.26199999999994" y="-10.0" type="curve" smooth="yes"/>
      <point x="600.168" y="-10.0"/>
      <point x="726.452" y="10.366000000000001"/>
      <point x="832.872" y="52.900000000000006" type="curve"/>
      <point x="832.872" y="412.956" type="line"/>
      <point x="473.10999999999996" y="412.956" type="line"/>
      <point x="473.10999999999996" y="251.7" type="line"/>
      <point x="619.9739999999999" y="251.7" type="line"/>
      <point x="619.9739999999999" y="171.04600000000002" type="line"/>
      <point x="586.7919999999999" y="163.10599999999997"/>
      <point x="540.406" y="158.524"/>
      <point x="490.12199999999996" y="158.524" type="curve" smooth="yes"/>
      <point x="349.95599999999996" y="158.524"/>
      <point x="280.19399999999996" y="206.918"/>
      <point x="280.19399999999996" y="337.81800000000004" type="curve" smooth="yes"/>
      <point x="280.19399999999996" y="469.936"/>
      <point x="347.57" y="526.986"/>
      <point x="505.95" y="526.986" type="curve" smooth="yes"/>
      <point x="576.3539999999999" y="526.986"/>
      <point x="663.384" y="517.496"/>
      <point x="756.524" y="499.6" type="curve"/>
      <point x="800.796" y="672.228" type="line"/>
      <point x="699.4519999999999" y="699.2399999999999"/>
      <point x="617.876" y="710.0"/>
      <point x="491.20199999999994" y="710.0" type="curve" smooth="yes"/>
      <point x="184.17" y="710.0"/>
      <point x="34.18599999999999" y="586.598"/>
    </contour>
  </outline>
</glyph>
<glyph name="H" format="2">
  <advance width="937.0839999999998"/>
  <unicode hex="0048"/>
  <anchor x="468.72" y="700.0" name="top"/>
  <outline>
    <contour>
      <point x="66.548" y="0.0" type="line"/>
      <point x="307.13800000000003" y="0.0" type="line"/>
      <point x="307.13800000000003" y="226.488" type="line"/>
      <point x="629.9459999999999" y="226.488" type="line"/>
      <point x="629.9459999999999" y="0.0" type="line"/>
      <point x="870.5360000000001" y="0.0" type="line"/>
      <point x="870.5360000000001" y="700.0" type="line"/>
      <point x="629.9459999999999" y="700.0" type="line"/>
      <point x="629.9459999999999" y="421.45599999999996" type="line"/>
      <point x="307.13800000000003" y="421.45599999999996" type="line"/>
      <point x="307.13800000000003" y="700.0" type="line"/>
      <point x="66.548" y="700.0" type="line"/>
    </contour>
  </outline>
</glyph>
<glyph name="I" format="2">
  <advance width="373.686"/>
  <unicode hex="0049"/>
  <anchor x="307.13800000000003" y="0.0" name="ogonek"/>
  <anchor x="186.97199999999998" y="0.0" name="bottom"/>
  <anchor x="186.97199999999998" y="700.0" name="top"/>
  <outline>
    <contour>
      <point x="66.548" y="0.0" type="line"/>
      <point x="307.13800000000003" y="0.0" type="line"/>
      <point x="307.13800000000003" y="700.0" type="line"/>
      <point x="66.548" y="700.0" type="line"/>
    </contour>
  </outline>
</glyph>
<glyph name="J" format="2">
  <advance width="715.404"/>
  <unicode hex="004A"/>
  <anchor x="364.418" y="700.0" name="top"/>
  <outline>
    <contour>
      <point x="10.275999999999996" y="34.66799999999999" type="line"/>
      <point x="125.26799999999999" y="3.8019999999999996"/>
      <point x="240.00999999999996" y="-10.097999999999999"/>
      <point x="341.09799999999996" y="-10.097999999999999" type="curve" smooth="yes"/>
      <point x="564.7719999999999" y="-10.097999999999999"/>
      <point x="656.7359999999999" y="78.312"/>
      <point x="656.7359999999999" y="266.98799999999994" type="curve" smooth="yes"/>
      <point x="656.7359999999999" y="700.0" type="line"/>
      <point x="75.43199999999999" y="700.0" type="line"/>
      <point x="75.43199999999999" y="510.01999999999987" type="line"/>
      <point x="416.14599999999996" y="510.01999999999987" type="line"/>
      <point x="416.14599999999996" y="305.562" type="line" smooth="yes"/>
      <point x="416.14599999999996" y="207.488"/>
      <point x="374.94399999999996" y="172.916"/>
      <point x="280.554" y="172.916" type="curve" smooth="yes"/>
      <point x="225.082" y="172.916"/>
      <point x="148.526" y="185.742"/>
      <point x="56.482" y="206.03" type="curve"/>
    </contour>
  </outline>
</glyph>
<glyph name="K" format="2">
  <advance width="912.9399999999998"/>
  <unicode hex="004B"/>
  <anchor x="454.49999999999994" y="700.0" name="top"/>
  <anchor x="453.82" y="0.0" name="bottom"/>
  <outline>
    <contour>
      <point x="850.9" y="-10.0" type="curve" smooth="yes"/>
      <point x="860.06" y="-10.0"/>
      <point x="870.3599999999999" y="-9.64"/>
      <point x="881.1599999999999" y="-8.14" type="curve"/>
      <point x="881.1599999999999" y="202.73999999999998" type="line"/>
      <point x="873.0799999999999" y="202.24"/>
      <point x="865.3599999999999" y="202.24"/>
      <point x="858.2799999999997" y="202.24" type="curve" smooth="yes"/>
      <point x="797.36" y="202.6"/>
      <point x="735.52" y="222.44"/>
      <point x="630.48" y="282.53999999999996" type="curve" smooth="yes"/>
      <point x="293.18" y="476.02000000000004" type="line"/>
      <point x="293.18" y="700.0" type="line"/>
      <point x="73.4" y="700.0" type="line"/>
      <point x="73.4" y="0.0" type="line"/>
      <point x="293.18" y="0.0" type="line"/>
      <point x="293.18" y="238.88000000000002" type="line"/>
      <point x="592.4000000000001" y="63.400000000000006" type="line" smooth="yes"/>
      <point x="685.12" y="9.16"/>
      <point x="770.56" y="-10.0"/>
    </contour>
    <contour>
      <point x="470.1599999999999" y="298.78" type="line"/>
      <point x="648.22" y="376.05999999999995"/>
      <point x="798.86" y="482.94"/>
      <point x="879.5799999999999" y="615.88" type="curve"/>
      <point x="709.02" y="710.5799999999999" type="line"/>
      <point x="610.42" y="573.24"/>
      <point x="449.56" y="462.11999999999995"/>
      <point x="324.1" y="401.66" type="curve"/>
    </contour>
  </outline>
</glyph>
<glyph name="L" format="2">
  <advance width="764.4399999999999"/>
  <unicode hex="004C"/>
  <anchor x="382.39799999999997" y="350.0" name="center"/>
  <anchor x="186.97199999999998" y="700.0" name="top"/>
  <anchor x="453.69" y="700.0" name="topright"/>
  <anchor x="403.078" y="0.0" name="bottom"/>
  <outline>
    <contour>
      <point x="66.548" y="0.0" type="line"/>
      <point x="737.7799999999999" y="0.0" type="line"/>
      <point x="737.7799999999999" y="193.162" type="line"/>
      <point x="307.39599999999996" y="193.162" type="line"/>
      <point x="307.39599999999996" y="700.0" type="line"/>
      <point x="66.548" y="700.0" type="line"/>
    </contour>
  </outline>
</glyph>
<glyph name="M" format="2">
  <advance width="1028.3540000000003"/>
  <unicode hex="004D"/>
  <outline>
    <contour>
      <point x="66.74799999999999" y="0.0" type="line"/>
      <point x="287.644" y="0.0" type="line"/>
      <point x="287.644" y="403.22800000000007" type="line"/>
      <point x="457.45599999999996" y="128.46999999999997" type="line"/>
      <point x="564.7220000000001" y="128.46999999999997" type="line"/>
      <point x="740.7099999999999" y="411.312" type="line"/>
      <point x="740.7099999999999" y="0.0" type="line"/>
      <point x="961.6059999999999" y="0.0" type="line"/>
      <point x="961.6059999999999" y="700.0" type="line"/>
      <point x="729.2399999999999" y="700.0" type="line"/>
      <point x="518.684" y="362.85799999999995" type="line"/>
      <point x="312.444" y="700.0" type="line"/>
      <point x="66.74799999999999" y="700.0" type="line"/>
    </contour>
  </outline>
</glyph>
<glyph name="N" format="2">
  <advance width="887.02"/>
  <unicode hex="004E"/>
  <anchor x="443.9399999999999" y="700.0" name="top"/>
  <anchor x="443.9399999999999" y="0.0" name="bottom"/>
  <outline>
    <contour>
      <point x="66.49000000000001" y="0.0" type="line"/>
      <point x="282.71" y="0.0" type="line"/>
      <point x="282.71" y="371.49999999999994" type="line"/>
      <point x="606.7399999999999" y="-0.2800000000000001" type="line"/>
      <point x="820.53" y="-0.2800000000000001" type="line"/>
      <point x="820.53" y="700.0" type="line"/>
      <point x="604.67" y="700.0" type="line"/>
      <point x="604.67" y="309.84999999999997" type="line"/>
      <point x="281.07000000000005" y="700.98" type="line"/>
      <point x="66.49000000000001" y="700.98" type="line"/>
    </contour>
  </outline>
</glyph>
<glyph name="O" format="2">
  <advance width="932.8699999999999"/>
  <unicode hex="004F"/>
  <anchor x="579.9499999999999" y="1.2900000000000018" name="ogonek"/>
  <anchor x="466.72999999999996" y="700.0" name="top"/>
  <anchor x="739.41" y="687.71" name="topright"/>
  <anchor x="467.2999999999999" y="0.0" name="bottom"/>
  <outline>
    <contour>
      <point x="467.15999999999997" y="156.70000000000002" type="curve" smooth="yes"/>
      <point x="352.73" y="156.70000000000002"/>
      <point x="279.33" y="205.64000000000001"/>
      <point x="279.33" y="350.79" type="curve" smooth="yes"/>
      <point x="279.33" y="494.54"/>
      <point x="350.43999999999994" y="543.5800000000002"/>
      <point x="467.15999999999997" y="543.5800000000002" type="curve" smooth="yes"/>
      <point x="587.89" y="543.5800000000002"/>
      <point x="653.6899999999999" y="489.5200000000001"/>
      <point x="653.6899999999999" y="351.21999999999997" type="curve" smooth="yes"/>
      <point x="653.6899999999999" y="211.97999999999996"/>
      <point x="586.7399999999999" y="156.70000000000002"/>
    </contour>
    <contour>
      <point x="467.2999999999999" y="-10.0" type="curve" smooth="yes"/>
      <point x="751.09" y="-10.0"/>
      <point x="898.43" y="96.29"/>
      <point x="898.43" y="353.57" type="curve" smooth="yes"/>
      <point x="898.43" y="599.8399999999999"/>
      <point x="763.37" y="710.0"/>
      <point x="467.15999999999997" y="710.0" type="curve" smooth="yes"/>
      <point x="169.45" y="710.0"/>
      <point x="34.44" y="599.06"/>
      <point x="34.44" y="351.78999999999996" type="curve" smooth="yes"/>
      <point x="34.44" y="97.53999999999999"/>
      <point x="182.91999999999996" y="-10.0"/>
    </contour>
  </outline>
</glyph>
<glyph name="P" format="2">
  <advance width="905.49"/>
  <unicode hex="0050"/>
  <outline>
    <contour>
      <point x="66.548" y="0.0" type="line"/>
      <point x="307.39599999999996" y="0.0" type="line"/>
      <point x="307.39599999999996" y="177.93" type="line"/>
      <point x="427.83799999999997" y="174.056"/>
      <point x="398.098" y="173.958"/>
      <point x="517.9300000000001" y="173.958" type="curve" smooth="yes"/>
      <point x="792.894" y="173.958"/>
      <point x="879.578" y="251.822"/>
      <point x="879.578" y="445.51800000000003" type="curve" smooth="yes"/>
      <point x="879.578" y="639.6139999999999"/>
      <point x="796.5559999999999" y="710.0"/>
      <point x="451.70799999999997" y="710.0" type="curve" smooth="yes"/>
      <point x="400.262" y="710.0"/>
      <point x="267.418" y="707.6560000000001"/>
      <point x="66.548" y="700.684" type="curve"/>
    </contour>
    <contour>
      <point x="307.654" y="536.2" type="line"/>
      <point x="398.77599999999995" y="540.292"/>
      <point x="416.658" y="540.53"/>
      <point x="471.09999999999997" y="540.53" type="curve" smooth="yes"/>
      <point x="601.8119999999999" y="540.53"/>
      <point x="634.516" y="510.67599999999993"/>
      <point x="634.516" y="447.886" type="curve" smooth="yes"/>
      <point x="634.516" y="372.952"/>
      <point x="614.098" y="344.544"/>
      <point x="424.57599999999996" y="344.544" type="curve" smooth="yes"/>
      <point x="388.612" y="344.544"/>
      <point x="366.28000000000003" y="345.44"/>
      <point x="307.654" y="348.7" type="curve"/>
    </contour>
  </outline>
</glyph>
<glyph name="Q" format="2">
  <advance width="933.1279999999998"/>
  <unicode hex="0051"/>
  <outline>
    <contour>
      <point x="688.1519999999999" y="41.623999999999995" type="curve"/>
      <point x="474.12" y="6.912000000000001" type="line"/>
      <point x="533.956" y="-129.28"/>
      <point x="617.0039999999999" y="-197.406"/>
      <point x="740.3900000000001" y="-197.406" type="curve" smooth="yes"/>
      <point x="780.614" y="-197.406"/>
      <point x="823.5759999999999" y="-190.696"/>
      <point x="867.4739999999999" y="-176.81799999999998" type="curve"/>
      <point x="842.4299999999998" y="-3.862000000000009" type="line"/>
      <point x="823.9619999999999" y="-10.392000000000008"/>
      <point x="805.0699999999999" y="-13.35600000000001"/>
      <point x="786.1099999999999" y="-13.35600000000001" type="curve" smooth="yes"/>
      <point x="746.8019999999999" y="-13.35600000000001"/>
      <point x="714.4100000000001" y="5.693999999999974"/>
    </contour>
    <component base="O"/>
  </outline>
</glyph>
<glyph name="R" format="2">
  <advance width="952.88"/>
  <unicode hex="0052"/>
  <anchor x="469.81999999999994" y="700.0" name="top"/>
  <anchor x="475.64" y="0.0" name="bottom"/>
  <outline>
    <contour>
      <point x="881.5" y="-10.0" type="curve" smooth="yes"/>
      <point x="898.9799999999999" y="-10.0"/>
      <point x="913.4399999999999" y="-9.0"/>
      <point x="923.24" y="-7.64" type="curve"/>
      <point x="923.8199999999999" y="192.06" type="line"/>
      <point x="917.5999999999999" y="191.92000000000002"/>
      <point x="909.24" y="191.42"/>
      <point x="903.3" y="191.42" type="curve" smooth="yes"/>
      <point x="840.16" y="191.42"/>
      <point x="751.9799999999999" y="242.73999999999995"/>
      <point x="670.9799999999999" y="276.8" type="curve"/>
      <point x="795.66" y="299.56"/>
      <point x="874.78" y="359.68"/>
      <point x="874.78" y="486.40000000000003" type="curve" smooth="yes"/>
      <point x="874.78" y="643.1999999999999"/>
      <point x="762.6400000000001" y="709.64"/>
      <point x="454.37999999999994" y="709.64" type="curve" smooth="yes"/>
      <point x="363.31999999999994" y="709.64"/>
      <point x="242.93999999999994" y="706.4200000000001"/>
      <point x="73.4" y="699.5600000000001" type="curve"/>
      <point x="73.4" y="0.0" type="line"/>
      <point x="292.96000000000004" y="0.0" type="line"/>
      <point x="292.96000000000004" y="219.44000000000005" type="line"/>
      <point x="327.50000000000006" y="218.66000000000003"/>
      <point x="360.48" y="218.16000000000005"/>
      <point x="390.23999999999995" y="218.16000000000005" type="curve" smooth="yes"/>
      <point x="401.94" y="218.16000000000005"/>
      <point x="417.8999999999999" y="218.02"/>
      <point x="429.96" y="217.8" type="curve"/>
      <point x="580.4200000000002" y="86.28000000000002"/>
      <point x="744.6999999999999" y="-10.0"/>
    </contour>
    <contour>
      <point x="465.49999999999994" y="361.7" type="curve" smooth="yes"/>
      <point x="393.49999999999994" y="361.7"/>
      <point x="355.46" y="363.2"/>
      <point x="292.96000000000004" y="366.06" type="curve"/>
      <point x="292.96000000000004" y="545.92" type="line"/>
      <point x="374.99999999999994" y="550.0600000000001"/>
      <point x="395.09999999999997" y="550.4200000000001"/>
      <point x="461.73999999999995" y="550.4200000000001" type="curve" smooth="yes"/>
      <point x="607.04" y="550.4200000000001"/>
      <point x="650.0" y="526.48"/>
      <point x="650.0" y="460.26000000000005" type="curve" smooth="yes"/>
      <point x="650.0" y="390.21999999999997"/>
      <point x="604.4800000000001" y="361.7"/>
    </contour>
  </outline>
</glyph>
<glyph name="S" format="2">
  <advance width="836.36"/>
  <unicode hex="0053"/>
  <anchor x="425.37999999999994" y="700.0" name="top"/>
  <anchor x="410.40400000000005" y="0.0" name="bottom"/>
  <outline>
    <contour>
      <point x="773.5239999999999" y="671.2840000000001" type="line"/>
      <point x="701.2239999999998" y="688.96"/>
      <point x="577.6919999999999" y="710.0"/>
      <point x="436.73999999999995" y="710.0" type="curve" smooth="yes"/>
      <point x="160.50000000000003" y="710.0"/>
      <point x="34.872" y="628.196"/>
      <point x="34.872" y="476.424" type="curve" smooth="yes"/>
      <point x="34.872" y="363.92"/>
      <point x="100.6" y="304.35200000000003"/>
      <point x="262.032" y="273.4320000000001" type="curve" smooth="yes"/>
      <point x="478.056" y="236.83999999999997"/>
      <point x="559.1480000000001" y="238.75199999999995"/>
      <point x="559.1480000000001" y="202.708" type="curve" smooth="yes"/>
      <point x="559.1480000000001" y="171.436"/>
      <point x="528.036" y="152.65200000000002"/>
      <point x="421.25199999999995" y="152.65200000000002" type="curve" smooth="yes"/>
      <point x="307.072" y="152.65200000000002"/>
      <point x="164.17600000000002" y="174.744"/>
      <point x="50.931999999999995" y="210.45999999999998" type="curve"/>
      <point x="8.243999999999998" y="42.71199999999998" type="line"/>
      <point x="119.54799999999999" y="9.008"/>
      <point x="268.24399999999997" y="-10.0"/>
      <point x="394.664" y="-10.0" type="curve" smooth="yes"/>
      <point x="666.4399999999998" y="-10.0"/>
      <point x="817.9159999999999" y="64.35199999999999"/>
      <point x="817.9159999999999" y="224.05999999999997" type="curve" smooth="yes"/>
      <point x="817.9159999999999" y="347.396"/>
      <point x="741.1719999999998" y="402.468"/>
      <point x="532.048" y="431.8" type="curve" smooth="yes"/>
      <point x="339.412" y="458.34"/>
      <point x="293.85999999999996" y="459.588"/>
      <point x="293.85999999999996" y="492.676" type="curve" smooth="yes"/>
      <point x="293.85999999999996" y="526.416"/>
      <point x="335.256" y="542.956"/>
      <point x="425.204" y="542.956" type="curve" smooth="yes"/>
      <point x="535.712" y="542.956"/>
      <point x="667.8519999999999" y="524.496"/>
      <point x="733.4159999999999" y="503.74000000000007" type="curve"/>
    </contour>
  </outline>
</glyph>
<glyph name="T" format="2">
  <advance width="846.4920000000001"/>
  <unicode hex="0054"/>
  <anchor x="423.24600000000004" y="700.0" name="top"/>
  <anchor x="423.24600000000004" y="0.0" name="bottom"/>
  <outline>
    <contour>
      <point x="822.044" y="505.90399999999994" type="line"/>
      <point x="822.044" y="700.0" type="line"/>
      <point x="24.448" y="700.0" type="line"/>
      <point x="24.448" y="505.90399999999994" type="line"/>
      <point x="303.08" y="505.90399999999994" type="line"/>
      <point x="303.08" y="0.0" type="line"/>
      <point x="543.67" y="0.0" type="line"/>
      <point x="543.67" y="505.90399999999994" type="line"/>
    </contour>
  </outline>
</glyph>
<glyph name="U" format="2">
  <advance width="915.3599999999999"/>
  <unicode hex="0055"/>
  <anchor x="566.512" y="0.516" name="ogonek"/>
  <anchor x="457.83" y="700.0" name="top"/>
  <anchor x="856.692" y="700.0" name="topright"/>
  <anchor x="457.83" y="0.0" name="bottom"/>
  <outline>
    <contour>
      <point x="58.66799999999999" y="262.74399999999997" type="line"/>
      <point x="58.66799999999999" y="73.75999999999999"/>
      <point x="191.87199999999996" y="-10.0"/>
      <point x="457.314" y="-10.0" type="curve" smooth="yes"/>
      <point x="724.562" y="-10.0"/>
      <point x="856.692" y="73.75999999999999"/>
      <point x="856.692" y="262.74399999999997" type="curve" smooth="yes"/>
      <point x="856.692" y="700.0" type="line"/>
      <point x="620.402" y="700.0" type="line"/>
      <point x="620.402" y="275.55799999999994" type="line" smooth="yes"/>
      <point x="620.402" y="202.12199999999999"/>
      <point x="563.202" y="166.262"/>
      <point x="459.12" y="166.262" type="curve" smooth="yes"/>
      <point x="359.51" y="166.262"/>
      <point x="294.442" y="196.70399999999998"/>
      <point x="294.442" y="275.55799999999994" type="curve" smooth="yes"/>
      <point x="294.442" y="700.0" type="line"/>
      <point x="58.66799999999999" y="700.0" type="line"/>
    </contour>
  </outline>
</glyph>
<glyph name="V" format="2">
  <advance width="871.566"/>
  <unicode hex="0056"/>
  <outline>
    <contour>
      <point x="303.122" y="0.0" type="line"/>
      <point x="570.39" y="0.0" type="line"/>
      <point x="874.906" y="699.51" type="line"/>
      <point x="609.792" y="700.872" type="line"/>
      <point x="437.9599999999999" y="187.65999999999997" type="line"/>
      <point x="264.3" y="700.872" type="line"/>
      <point x="-3.34" y="699.51" type="line"/>
    </contour>
  </outline>
</glyph>
<glyph name="W" format="2">
  <advance width="1061.72"/>
  <unicode hex="0057"/>
  <anchor x="530.9699999999999" y="700.0" name="top"/>
  <anchor x="530.9699999999999" y="0.0" name="bottom"/>
  <outline>
    <contour>
      <point x="873.6239999999998" y="0.0" type="line"/>
      <point x="1062.1519999999998" y="699.806" type="line"/>
      <point x="805.0339999999999" y="700.576" type="line"/>
      <point x="752.8319999999999" y="219.74599999999998" type="line"/>
      <point x="648.7819999999999" y="659.0519999999999" type="line"/>
      <point x="420.68000000000006" y="659.0519999999999" type="line"/>
      <point x="306.396" y="218.058" type="line"/>
      <point x="253.074" y="700.576" type="line"/>
      <point x="-0.4320000000000004" y="699.806" type="line"/>
      <point x="181.07600000000002" y="0.0" type="line"/>
      <point x="413.7199999999999" y="0.0" type="line"/>
      <point x="526.594" y="386.95000000000005" type="line"/>
      <point x="627.4379999999999" y="0.0" type="line"/>
    </contour>
  </outline>
</glyph>
<glyph name="X" format="2">
  <advance width="820.7879999999999"/>
  <unicode hex="0058"/>
  <outline>
    <contour>
      <point x="-0.712000000000001" y="0.6959999999999993" type="line"/>
      <point x="297.972" y="-1.1239999999999997" type="line"/>
      <point x="416.856" y="234.088" type="line"/>
      <point x="535.72" y="-1.1239999999999997" type="line"/>
      <point x="821.156" y="0.6959999999999993" type="line"/>
      <point x="571.38" y="361.27600000000007" type="line"/>
      <point x="807.676" y="699.3040000000001" type="line"/>
      <point x="534.996" y="700.704" type="line"/>
      <point x="417.04799999999994" y="483.54" type="line"/>
      <point x="308.128" y="700.984" type="line"/>
      <point x="20.992" y="699.3040000000001" type="line"/>
      <point x="258.308" y="360.4320000000001" type="line"/>
    </contour>
  </outline>
</glyph>
<glyph name="Y" format="2">
  <advance width="868.8000000000001"/>
  <unicode hex="0059"/>
  <anchor x="434.44199999999995" y="700.0" name="top"/>
  <anchor x="435.086" y="0.0" name="bottom"/>
  <outline>
    <contour>
      <point x="314.704" y="0.0" type="line"/>
      <point x="555.294" y="0.0" type="line"/>
      <point x="555.294" y="233.62" type="line"/>
      <point x="872.214" y="699.09" type="line"/>
      <point x="604.1120000000001" y="700.91" type="line"/>
      <point x="436.332" y="366.0319999999999" type="line"/>
      <point x="266.928" y="700.91" type="line"/>
      <point x="-3.581999999999999" y="699.09" type="line"/>
      <point x="314.704" y="233.62" type="line"/>
    </contour>
  </outline>
</glyph>
<glyph name="Z" format="2">
  <advance width="829.1"/>
  <unicode hex="005A"/>
  <anchor x="415.3" y="350.0" name="center"/>
  <anchor x="415.3" y="0.0" name="bottom"/>
  <anchor x="417.226" y="700.0" name="top"/>
  <outline>
    <contour>
      <point x="29.977999999999998" y="0.0" type="line"/>
      <point x="799.594" y="0.0" type="line"/>
      <point x="799.594" y="173.72199999999998" type="line"/>
      <point x="364.13599999999997" y="173.72199999999998" type="line"/>
      <point x="364.13599999999997" y="175.43599999999998" type="line"/>
      <point x="769.9839999999999" y="536.94" type="line"/>
      <point x="769.9839999999999" y="700.0" type="line"/>
      <point x="51.626000000000005" y="700.0" type="line"/>
      <point x="51.626000000000005" y="526.418" type="line"/>
      <point x="445.72999999999996" y="526.418" type="line"/>
      <point x="445.72999999999996" y="524.564" type="line"/>
      <point x="29.977999999999998" y="163.2" type="line"/>
    </contour>
  </outline>
</glyph>
<glyph name="bracketleft" format="2">
  <advance width="415.512"/>
  <unicode hex="005B"/>
  <outline>
    <contour>
      <point x="218.76399999999998" y="-73.9" type="line"/>
      <point x="218.76399999999998" y="603.9" type="line"/>
      <point x="385.812" y="603.9" type="line"/>
      <point x="385.812" y="740.0" type="line"/>
      <point x="43.190000000000005" y="740.0" type="line"/>
      <point x="43.190000000000005" y="-210.0" type="line"/>
      <point x="385.812" y="-210.0" type="line"/>
      <point x="385.812" y="-73.9" type="line"/>
    </contour>
  </outline>
</glyph>
<glyph name="backslash" format="2">
  <advance width="540.206"/>
  <unicode hex="005C"/>
  <outline>
    <contour>
      <point x="181.608" y="740.0" type="line"/>
      <point x="4.504" y="740.0" type="line"/>
      <point x="358.856" y="-210.0" type="line"/>
      <point x="535.702" y="-210.0" type="line"/>
    </contour>
  </outline>
</glyph>
<glyph name="bracketright" format="2">
  <advance width="415.512"/>
  <unicode hex="005D"/>
  <outline>
    <contour>
      <point x="29.7" y="-73.9" type="line"/>
      <point x="29.7" y="-210.0" type="line"/>
      <point x="372.322" y="-210.0" type="line"/>
      <point x="372.322" y="740.0" type="line"/>
      <point x="29.7" y="740.0" type="line"/>
      <point x="29.7" y="603.9" type="line"/>
      <point x="196.748" y="603.9" type="line"/>
      <point x="196.748" y="-73.9" type="line"/>
    </contour>
  </outline>
</glyph>
<glyph name="asciicircum" format="2">
  <advance width="649.544"/>
  <unicode hex="005E"/>
  <outline>
    <contour>
      <point x="45.61000000000001" y="222.806" type="line"/>
      <point x="222.466" y="222.806" type="line"/>
      <point x="324.772" y="474.2660000000001" type="line"/>
      <point x="427.938" y="222.806" type="line"/>
      <point x="603.934" y="222.806" type="line"/>
      <point x="421.374" y="701.4" type="line"/>
      <point x="228.17000000000002" y="701.4" type="line"/>
    </contour>
  </outline>
</glyph>
<glyph name="underscore" format="2">
  <advance width="911.124"/>
  <unicode hex="005F"/>
  <outline>
    <contour>
      <point x="17.2" y="-199.382" type="line"/>
      <point x="893.924" y="-199.382" type="line"/>
      <point x="893.924" y="-52.102" type="line"/>
      <point x="17.2" y="-52.102" type="line"/>
    </contour>
  </outline>
</glyph>
<glyph name="a" format="2">
  <advance width="733.52"/>
  <unicode hex="0061"/>
  <anchor x="701.7199999999999" y="11.100000000000001" name="ogonek"/>
  <anchor x="367.28" y="0.0" name="bottom"/>
  <anchor x="363.17999999999995" y="547.1999999999999" name="top"/>
  <outline>
    <contour>
      <point x="32.66" y="160.08" type="curve" smooth="yes"/>
      <point x="32.66" y="46.16"/>
      <point x="114.11999999999999" y="-10.0"/>
      <point x="219.84" y="-10.0" type="curve" smooth="yes"/>
      <point x="322.38" y="-10.0"/>
      <point x="396.2" y="19.340000000000007"/>
      <point x="465.9999999999999" y="66.89999999999998" type="curve"/>
      <point x="488.2" y="11.740000000000002"/>
      <point x="535.5200000000001" y="-10.0"/>
      <point x="605.72" y="-10.0" type="curve" smooth="yes"/>
      <point x="654.2599999999999" y="-10.0"/>
      <point x="696.1199999999999" y="2.4599999999999995"/>
      <point x="727.52" y="22.919999999999998" type="curve"/>
      <point x="711.6400000000001" y="163.1" type="line"/>
      <point x="704.3000000000001" y="160.17999999999998"/>
      <point x="694.3799999999999" y="159.54"/>
      <point x="686.9600000000002" y="159.54" type="curve" smooth="yes"/>
      <point x="667.5799999999998" y="159.54"/>
      <point x="653.6" y="171.37999999999997"/>
      <point x="653.6" y="214.95999999999998" type="curve" smooth="yes"/>
      <point x="653.6" y="343.14" type="line" smooth="yes"/>
      <point x="653.6" y="487.12"/>
      <point x="555.26" y="557.1999999999999"/>
      <point x="330.4" y="557.1999999999999" type="curve" smooth="yes"/>
      <point x="244.39999999999998" y="557.1999999999999"/>
      <point x="145.58" y="541.3199999999999"/>
      <point x="67.33999999999997" y="520.3800000000001" type="curve"/>
      <point x="96.91999999999999" y="366.15999999999997" type="line"/>
      <point x="169.66" y="385.38"/>
      <point x="255.6199999999999" y="396.1"/>
      <point x="315.41999999999996" y="396.1" type="curve" smooth="yes"/>
      <point x="400.17999999999995" y="396.1"/>
      <point x="447.07999999999987" y="378.98"/>
      <point x="447.0799999999999" y="339.84" type="curve" smooth="yes"/>
      <point x="447.0799999999999" y="338.96000000000004" type="line"/>
      <point x="151.74" y="328.1"/>
      <point x="32.66" y="302.59999999999997"/>
    </contour>
    <contour>
      <point x="246.05999999999997" y="170.46" type="curve" smooth="yes"/>
      <point x="246.05999999999997" y="225.06"/>
      <point x="303.5" y="232.66"/>
      <point x="447.0799999999999" y="235.06" type="curve"/>
      <point x="447.0799999999999" y="162.99999999999997" type="line"/>
      <point x="407.90000000000003" y="132.38"/>
      <point x="343.2799999999999" y="116.24"/>
      <point x="305.24" y="116.24" type="curve" smooth="yes"/>
      <point x="269.0" y="116.24"/>
      <point x="246.05999999999997" y="131.82"/>
    </contour>
  </outline>
</glyph>
<glyph name="b" format="2">
  <advance width="761.458"/>
  <unicode hex="0062"/>
  <outline>
    <contour>
      <point x="51.41" y="20.973999999999997" type="line"/>
      <point x="175.73000000000002" y="0.8659999999999997"/>
      <point x="284.63" y="-10.0"/>
      <point x="373.75199999999995" y="-10.0" type="curve" smooth="yes"/>
      <point x="625.4879999999999" y="-10.0"/>
      <point x="732.9499999999999" y="76.306"/>
      <point x="732.9499999999999" y="283.33200000000005" type="curve" smooth="yes"/>
      <point x="732.9499999999999" y="460.282"/>
      <point x="648.79" y="557.2"/>
      <point x="498.91999999999996" y="557.2" type="curve" smooth="yes"/>
      <point x="423.572" y="557.2"/>
      <point x="355.192" y="537.716"/>
      <point x="279.96000000000004" y="494.33" type="curve"/>
      <point x="279.96000000000004" y="740.0" type="line"/>
      <point x="51.41" y="740.0" type="line"/>
    </contour>
    <contour>
      <point x="279.96000000000004" y="152.09" type="curve"/>
      <point x="279.96000000000004" y="351.24" type="line"/>
      <point x="328.578" y="373.132"/>
      <point x="369.182" y="383.00000000000006"/>
      <point x="405.83" y="383.00000000000006" type="curve" smooth="yes"/>
      <point x="466.70399999999995" y="383.00000000000006"/>
      <point x="499.15399999999994" y="349.026"/>
      <point x="499.15399999999994" y="269.48600000000005" type="curve" smooth="yes"/>
      <point x="499.15399999999994" y="176.06199999999998"/>
      <point x="458.948" y="139.20600000000002"/>
      <point x="379.476" y="139.20600000000002" type="curve" smooth="yes"/>
      <point x="348.056" y="139.20600000000002"/>
      <point x="313.28999999999996" y="143.44"/>
    </contour>
  </outline>
</glyph>
<glyph name="c" format="2">
  <advance width="685.062"/>
  <unicode hex="0063"/>
  <anchor x="382.29" y="547.1999999999999" name="top"/>
  <anchor x="382.332" y="0.0" name="bottom"/>
  <outline>
    <contour>
      <point x="28.647999999999996" y="259.516" type="curve" smooth="yes"/>
      <point x="28.647999999999996" y="77.524"/>
      <point x="141.774" y="-10.0"/>
      <point x="377.02200000000005" y="-10.0" type="curve" smooth="yes"/>
      <point x="471.9340000000001" y="-10.0"/>
      <point x="576.2359999999999" y="2.0700000000000003"/>
      <point x="663.408" y="22.146" type="curve"/>
      <point x="635.1020000000001" y="175.788" type="line"/>
      <point x="554.9019999999999" y="162.172"/>
      <point x="494.15200000000004" y="155.778"/>
      <point x="423.714" y="155.778" type="curve" smooth="yes"/>
      <point x="321.7219999999999" y="155.778"/>
      <point x="261.884" y="186.60600000000002"/>
      <point x="261.884" y="268.154" type="curve" smooth="yes"/>
      <point x="261.884" y="352.578"/>
      <point x="310.786" y="388.29400000000004"/>
      <point x="411.872" y="388.29400000000004" type="curve" smooth="yes"/>
      <point x="472.7099999999999" y="388.29400000000004"/>
      <point x="545.592" y="381.31"/>
      <point x="622.222" y="367.70000000000005" type="curve"/>
      <point x="648.7" y="530.8340000000001" type="line"/>
      <point x="578.5" y="547.26"/>
      <point x="485.044" y="557.1999999999999"/>
      <point x="398.40999999999997" y="557.1999999999999" type="curve" smooth="yes"/>
      <point x="160.242" y="557.1999999999999"/>
      <point x="28.647999999999996" y="453.228"/>
    </contour>
  </outline>
</glyph>
<glyph name="d" format="2">
  <advance width="762.4159999999999"/>
  <unicode hex="0064"/>
  <anchor x="383.71599999999995" y="275.0" name="center"/>
  <anchor x="373.75999999999993" y="740.0" name="top"/>
  <anchor x="758.016" y="740.0" name="topright"/>
  <anchor x="383.71599999999995" y="0.0" name="bottom"/>
  <outline>
    <contour>
      <point x="514.332" y="-2.436" type="line"/>
      <point x="711.076" y="-2.436" type="line"/>
      <point x="711.076" y="740.0" type="line"/>
      <point x="482.1" y="740.0" type="line"/>
      <point x="482.1" y="551.3879999999999" type="line"/>
      <point x="447.62800000000004" y="555.1440000000001"/>
      <point x="411.0199999999999" y="557.2"/>
      <point x="376.528" y="557.2" type="curve" smooth="yes"/>
      <point x="136.988" y="557.2"/>
      <point x="28.535999999999994" y="464.772"/>
      <point x="28.535999999999994" y="266.20399999999995" type="curve" smooth="yes"/>
      <point x="28.535999999999994" y="90.232"/>
      <point x="113.74399999999997" y="-10.0"/>
      <point x="261.032" y="-10.0" type="curve" smooth="yes"/>
      <point x="338.71599999999995" y="-10.0"/>
      <point x="407.11600000000004" y="9.400000000000002"/>
      <point x="482.676" y="53.315999999999995" type="curve"/>
    </contour>
    <contour>
      <point x="481.4560000000001" y="194.496" type="line"/>
      <point x="433.63999999999993" y="173.58800000000002"/>
      <point x="392.464" y="163.57999999999998"/>
      <point x="356.2" y="163.57999999999998" type="curve" smooth="yes"/>
      <point x="295.152" y="163.57999999999998"/>
      <point x="262.744" y="198.76"/>
      <point x="262.744" y="282.044" type="curve" smooth="yes"/>
      <point x="262.744" y="371.208"/>
      <point x="302.85200000000003" y="407.052"/>
      <point x="381.96799999999996" y="407.052" type="curve" smooth="yes"/>
      <point x="414.332" y="407.052"/>
      <point x="448.16800000000006" y="402.916"/>
      <point x="481.4560000000001" y="393.576" type="curve"/>
    </contour>
  </outline>
</glyph>
<glyph name="e" format="2">
  <advance width="718.7879999999999"/>
  <unicode hex="0065"/>
  <anchor x="623.5159999999998" y="12.987999999999998" name="ogonek"/>
  <anchor x="363.22800000000007" y="0.0" name="bottom"/>
  <anchor x="371.33599999999996" y="547.1999999999999" name="top"/>
  <outline>
    <contour>
      <point x="381.21599999999995" y="-10.0" type="curve" smooth="yes"/>
      <point x="498.156" y="-10.0"/>
      <point x="588.6040000000002" y="1.1879999999999975"/>
      <point x="682.584" y="26.292" type="curve"/>
      <point x="658.444" y="170.108" type="line"/>
      <point x="566.612" y="152.88400000000001"/>
      <point x="481.47600000000006" y="143.276"/>
      <point x="413.248" y="143.276" type="curve" smooth="yes"/>
      <point x="307.46399999999994" y="143.276"/>
      <point x="264.62" y="166.212"/>
      <point x="263.612" y="205.96400000000003" type="curve" smooth="yes"/>
      <point x="263.612" y="208.936"/>
      <point x="263.612" y="210.768"/>
      <point x="263.89199999999994" y="213.74" type="curve"/>
      <point x="446.68399999999997" y="217.46800000000002"/>
      <point x="591.3679999999999" y="228.452"/>
      <point x="681.6239999999999" y="233.74399999999994" type="curve"/>
      <point x="683.1279999999999" y="253.176"/>
      <point x="683.4839999999999" y="279.94"/>
      <point x="683.4839999999999" y="294.828" type="curve" smooth="yes"/>
      <point x="683.4839999999999" y="478.084"/>
      <point x="585.936" y="557.1999999999999"/>
      <point x="379.0799999999999" y="557.1999999999999" type="curve" smooth="yes"/>
      <point x="188.66" y="557.1999999999999"/>
      <point x="28.535999999999998" y="476.504"/>
      <point x="28.535999999999998" y="263.864" type="curve" smooth="yes"/>
      <point x="28.535999999999998" y="62.047999999999995"/>
      <point x="164.964" y="-10.0"/>
    </contour>
    <contour>
      <point x="264.816" y="330.628" type="curve"/>
      <point x="277.78" y="395.176"/>
      <point x="316.91999999999996" y="415.44800000000004"/>
      <point x="367.33599999999996" y="415.44800000000004" type="curve" smooth="yes"/>
      <point x="426.664" y="415.44800000000004"/>
      <point x="451.508" y="392.648"/>
      <point x="456.38000000000005" y="336.8" type="curve"/>
      <point x="413.01199999999994" y="334.73600000000005"/>
      <point x="337.7" y="331.916"/>
    </contour>
  </outline>
</glyph>
<glyph name="f" format="2">
  <advance width="528.076"/>
  <unicode hex="0066"/>
  <outline>
    <contour>
      <point x="104.53199999999998" y="0.0" type="line"/>
      <point x="329.642" y="0.0" type="line"/>
      <point x="329.642" y="346.394" type="line"/>
      <point x="498.5" y="346.394" type="line"/>
      <point x="498.5" y="495.61000000000007" type="line"/>
      <point x="329.9" y="495.61000000000007" type="line"/>
      <point x="329.9" y="507.756" type="line" smooth="yes"/>
      <point x="329.9" y="564.4140000000001"/>
      <point x="364.176" y="587.208"/>
      <point x="423.27" y="587.208" type="curve" smooth="yes"/>
      <point x="458.68799999999993" y="587.208"/>
      <point x="505.964" y="580.6579999999999"/>
      <point x="539.952" y="571.3259999999999" type="curve"/>
      <point x="566.8399999999999" y="719.124" type="line"/>
      <point x="506.442" y="739.8439999999999"/>
      <point x="439.842" y="750.0980000000001"/>
      <point x="372.998" y="750.0980000000001" type="curve" smooth="yes"/>
      <point x="200.77200000000002" y="750.0980000000001"/>
      <point x="104.53199999999998" y="666.312"/>
      <point x="104.53199999999998" y="511.884" type="curve" smooth="yes"/>
      <point x="104.53199999999998" y="495.61000000000007" type="line"/>
      <point x="14.589999999999998" y="481.02200000000005" type="line"/>
      <point x="14.589999999999998" y="346.394" type="line"/>
      <point x="104.53199999999998" y="346.394" type="line"/>
    </contour>
  </outline>
</glyph>
<glyph name="g" format="2">
  <advance width="742.652"/>
  <unicode hex="0067"/>
  <anchor x="349.484" y="547.1999999999999" name="top"/>
  <anchor x="342.50399999999996" y="-217.0" name="bottom"/>
  <outline>
    <contour>
      <point x="312.20799999999997" y="-220.0" type="curve" smooth="yes"/>
      <point x="590.9799999999999" y="-220.0"/>
      <point x="719.5759999999998" y="-148.488"/>
      <point x="719.5759999999998" y="-10.02" type="curve" smooth="yes"/>
      <point x="719.5759999999998" y="83.668"/>
      <point x="644.88" y="143.588"/>
      <point x="516.216" y="143.588" type="curve" smooth="yes"/>
      <point x="272.4479999999999" y="143.588" type="line" smooth="yes"/>
      <point x="237.512" y="143.588"/>
      <point x="220.472" y="153.23999999999998"/>
      <point x="220.472" y="174.28" type="curve" smooth="yes"/>
      <point x="220.472" y="193.276"/>
      <point x="231.24" y="205.448"/>
      <point x="255.21199999999996" y="218.716" type="curve"/>
      <point x="146.30800000000002" y="245.38" type="line"/>
      <point x="79.92" y="218.6"/>
      <point x="37.431999999999995" y="177.644"/>
      <point x="37.431999999999995" y="115.09199999999998" type="curve" smooth="yes"/>
      <point x="37.431999999999995" y="15.58"/>
      <point x="140.304" y="-14.663999999999998"/>
      <point x="292.53599999999994" y="-14.663999999999998" type="curve" smooth="yes"/>
      <point x="428.71199999999993" y="-14.663999999999998" type="line" smooth="yes"/>
      <point x="493.716" y="-14.663999999999998"/>
      <point x="502.35599999999994" y="-18.887999999999998"/>
      <point x="502.35599999999994" y="-39.76400000000002" type="curve" smooth="yes"/>
      <point x="502.35599999999994" y="-68.71600000000001"/>
      <point x="450.1679999999999" y="-85.00400000000002"/>
      <point x="332.82399999999996" y="-85.00400000000002" type="curve" smooth="yes"/>
      <point x="220.772" y="-85.00400000000002"/>
      <point x="190.33200000000002" y="-73.628"/>
      <point x="190.33200000000002" y="-39.70400000000001" type="curve" smooth="yes"/>
      <point x="190.33200000000002" y="-21.468000000000004"/>
      <point x="199.34400000000002" y="-11.008"/>
      <point x="223.27599999999998" y="0.5999999999999974" type="curve"/>
      <point x="120.23599999999998" y="36.248000000000005" type="line"/>
      <point x="37.839999999999996" y="8.599999999999996"/>
      <point x="10.211999999999998" y="-34.156"/>
      <point x="10.211999999999998" y="-86.72399999999999" type="curve" smooth="yes"/>
      <point x="10.211999999999998" y="-175.96"/>
      <point x="111.296" y="-220.0"/>
    </contour>
    <contour>
      <point x="349.0" y="186.40399999999997" type="curve" smooth="yes"/>
      <point x="551.028" y="186.40399999999997"/>
      <point x="651.5919999999999" y="248.63600000000002"/>
      <point x="651.5919999999999" y="372.124" type="curve" smooth="yes"/>
      <point x="651.5919999999999" y="495.61199999999997"/>
      <point x="551.028" y="557.8439999999999"/>
      <point x="349.0" y="557.8439999999999" type="curve" smooth="yes"/>
      <point x="146.97200000000004" y="557.8439999999999"/>
      <point x="46.54800000000001" y="495.61199999999997"/>
      <point x="46.54800000000001" y="372.124" type="curve" smooth="yes"/>
      <point x="46.54800000000001" y="248.63600000000002"/>
      <point x="146.97200000000004" y="186.40399999999997"/>
    </contour>
    <contour>
      <point x="349.0" y="312.88000000000005" type="curve" smooth="yes"/>
      <point x="287.18000000000006" y="312.88000000000005"/>
      <point x="259.96799999999996" y="327.848"/>
      <point x="259.96799999999996" y="372.124" type="curve" smooth="yes"/>
      <point x="259.96799999999996" y="416.53999999999996"/>
      <point x="287.18000000000006" y="431.508"/>
      <point x="349.0" y="431.508" type="curve" smooth="yes"/>
      <point x="410.81999999999994" y="431.508"/>
      <point x="438.032" y="416.53999999999996"/>
      <point x="438.032" y="372.124" type="curve" smooth="yes"/>
      <point x="438.032" y="327.848"/>
      <point x="410.81999999999994" y="312.88000000000005"/>
    </contour>
    <contour>
      <point x="616.92" y="412.2919999999999" type="line"/>
      <point x="628.54" y="427.92799999999994"/>
      <point x="644.468" y="434.68"/>
      <point x="665.784" y="434.68" type="curve" smooth="yes"/>
      <point x="681.572" y="434.68"/>
      <point x="700.304" y="432.96000000000004"/>
      <point x="715.3040000000001" y="429.532" type="curve"/>
      <point x="736.7240000000002" y="580.7479999999999" type="line"/>
      <point x="718.8759999999999" y="585.184"/>
      <point x="699.06" y="587.4040000000001"/>
      <point x="674.8120000000001" y="587.4040000000001" type="curve" smooth="yes"/>
      <point x="596.8399999999998" y="587.4040000000001"/>
      <point x="547.756" y="557.232"/>
      <point x="531.1199999999998" y="497.896" type="curve"/>
    </contour>
  </outline>
</glyph>
<glyph name="h" format="2">
  <advance width="742.914"/>
  <unicode hex="0068"/>
  <anchor x="365.402" y="395.0" name="center"/>
  <anchor x="371.42199999999997" y="0.0" name="bottom"/>
  <anchor x="372.56399999999996" y="740.0" name="top"/>
  <outline>
    <contour>
      <point x="51.339999999999996" y="0.0" type="line"/>
      <point x="280.1" y="0.0" type="line"/>
      <point x="280.1" y="355.94800000000004" type="line"/>
      <point x="320.75" y="371.98"/>
      <point x="353.534" y="382.618"/>
      <point x="388.14199999999994" y="382.618" type="curve" smooth="yes"/>
      <point x="434.828" y="382.618"/>
      <point x="463.03000000000003" y="358.1619999999999"/>
      <point x="463.03000000000003" y="293.902" type="curve" smooth="yes"/>
      <point x="463.03000000000003" y="0.0" type="line"/>
      <point x="692.006" y="0.0" type="line"/>
      <point x="692.006" y="371.87399999999997" type="line" smooth="yes"/>
      <point x="692.006" y="479.356"/>
      <point x="624.9319999999999" y="557.2"/>
      <point x="483.52000000000004" y="557.2" type="curve" smooth="yes"/>
      <point x="410.51199999999994" y="557.2"/>
      <point x="353.58399999999995" y="537.6059999999999"/>
      <point x="280.1" y="498.27799999999996" type="curve"/>
      <point x="280.1" y="740.0" type="line"/>
      <point x="51.339999999999996" y="740.0" type="line"/>
    </contour>
  </outline>
</glyph>
<glyph name="i" format="2">
  <advance width="331.37"/>
  <unicode hex="0069"/>
  <anchor x="279.862" y="0.0" name="ogonek"/>
  <anchor x="165.814" y="0.0" name="bottom"/>
  <outline>
    <contour>
      <point x="165.814" y="584.722" type="curve" smooth="yes"/>
      <point x="262.74199999999996" y="584.722"/>
      <point x="301.712" y="617.284"/>
      <point x="301.712" y="681.702" type="curve" smooth="yes"/>
      <point x="301.712" y="746.6360000000001"/>
      <point x="262.226" y="778.94"/>
      <point x="165.814" y="778.94" type="curve" smooth="yes"/>
      <point x="69.14399999999999" y="778.94"/>
      <point x="29.657999999999994" y="746.6360000000001"/>
      <point x="29.657999999999994" y="681.702" type="curve" smooth="yes"/>
      <point x="29.657999999999994" y="617.0260000000001"/>
      <point x="69.28399999999999" y="584.722"/>
    </contour>
    <contour>
      <point x="51.41" y="0.0" type="line"/>
      <point x="279.96000000000004" y="0.0" type="line"/>
      <point x="279.96000000000004" y="547.2" type="line"/>
      <point x="51.41" y="547.2" type="line"/>
    </contour>
  </outline>
</glyph>
<glyph name="j" format="2">
  <advance width="348.38"/>
  <unicode hex="006A"/>
  <outline>
    <contour>
      <point x="297.068" y="547.2" type="line"/>
      <point x="68.518" y="547.2" type="line"/>
      <point x="68.518" y="58.548" type="line" smooth="yes"/>
      <point x="68.518" y="-9.058"/>
      <point x="45.809999999999995" y="-33.86800000000001"/>
      <point x="-7.4239999999999995" y="-38.348" type="curve" smooth="yes"/>
      <point x="-14.719999999999999" y="-39.146"/>
      <point x="-21.5" y="-39.02999999999999"/>
      <point x="-29.71" y="-38.257999999999996" type="curve"/>
      <point x="-41.338" y="-210.512" type="line"/>
      <point x="-12.477999999999998" y="-214.20999999999998"/>
      <point x="31.562" y="-216.724"/>
      <point x="58.034000000000006" y="-215.884" type="curve" smooth="yes"/>
      <point x="226.896" y="-210.9"/>
      <point x="297.068" y="-118.896"/>
      <point x="297.068" y="50.205999999999996" type="curve" smooth="yes"/>
    </contour>
    <contour>
      <point x="182.726" y="584.722" type="curve" smooth="yes"/>
      <point x="279.612" y="584.722"/>
      <point x="318.624" y="617.284"/>
      <point x="318.624" y="681.702" type="curve" smooth="yes"/>
      <point x="318.624" y="746.6360000000001"/>
      <point x="279.096" y="778.94"/>
      <point x="182.726" y="778.94" type="curve" smooth="yes"/>
      <point x="86.056" y="778.94"/>
      <point x="46.57" y="746.6360000000001"/>
      <point x="46.57" y="681.702" type="curve" smooth="yes"/>
      <point x="46.57" y="617.0260000000001"/>
      <point x="86.196" y="584.722"/>
    </contour>
  </outline>
</glyph>
<glyph name="k" format="2">
  <advance width="732.7399999999999"/>
  <unicode hex="006B"/>
  <anchor x="158.71999999999997" y="740.0" name="top"/>
  <anchor x="373.5199999999999" y="0.0" name="bottom"/>
  <outline>
    <contour>
      <point x="660.44" y="-10.580000000000002" type="curve" smooth="yes"/>
      <point x="680.4799999999999" y="-10.580000000000002"/>
      <point x="692.64" y="-9.719999999999997"/>
      <point x="705.24" y="-7.859999999999999" type="curve"/>
      <point x="704.32" y="186.34" type="line"/>
      <point x="696.9600000000002" y="185.84"/>
      <point x="690.8199999999999" y="185.7"/>
      <point x="684.24" y="185.7" type="curve" smooth="yes"/>
      <point x="639.1399999999999" y="185.7"/>
      <point x="587.48" y="208.34"/>
      <point x="466.96" y="289.87999999999994" type="curve" smooth="yes"/>
      <point x="259.47999999999996" y="430.2" type="line"/>
      <point x="259.47999999999996" y="740.0" type="line"/>
      <point x="57.819999999999986" y="740.0" type="line"/>
      <point x="57.819999999999986" y="0.0" type="line"/>
      <point x="259.47999999999996" y="0.0" type="line"/>
      <point x="259.47999999999996" y="197.86" type="line"/>
      <point x="431.85999999999996" y="83.4" type="line" smooth="yes"/>
      <point x="551.5799999999999" y="3.7999999999999994"/>
      <point x="603.66" y="-10.580000000000002"/>
    </contour>
    <contour>
      <point x="415.4599999999999" y="245.38" type="line"/>
      <point x="516.5600000000001" y="317.15999999999997"/>
      <point x="653.8" y="432.84000000000003"/>
      <point x="697.3799999999999" y="545.9799999999999" type="curve"/>
      <point x="479.34000000000003" y="556.6999999999999" type="line"/>
      <point x="447.64000000000004" y="473.97999999999996"/>
      <point x="369.75999999999993" y="404.8"/>
      <point x="235.66000000000003" y="305.28" type="curve"/>
    </contour>
  </outline>
</glyph>
<glyph name="l" format="2">
  <advance width="420.38599999999997"/>
  <unicode hex="006C"/>
  <anchor x="209.79" y="395.0" name="center"/>
  <anchor x="165.814" y="740.0" name="top"/>
  <anchor x="326.97" y="740.0" name="topright"/>
  <anchor x="231.43" y="0.0" name="bottom"/>
  <outline>
    <contour>
      <point x="279.96000000000004" y="740.0" type="line"/>
      <point x="51.41" y="740.0" type="line"/>
      <point x="51.41" y="211.314" type="line" smooth="yes"/>
      <point x="51.41" y="46.54"/>
      <point x="123.706" y="-10.0"/>
      <point x="265.49399999999997" y="-10.0" type="curve" smooth="yes"/>
      <point x="328.298" y="-10.0"/>
      <point x="379.262" y="2.8100000000000005"/>
      <point x="423.16399999999993" y="19.64" type="curve"/>
      <point x="399.556" y="179.26199999999997" type="line"/>
      <point x="372.81399999999996" y="172.494"/>
      <point x="352.044" y="168.49800000000002"/>
      <point x="334.98199999999997" y="168.49800000000002" type="curve" smooth="yes"/>
      <point x="300.75600000000003" y="168.49800000000002"/>
      <point x="279.96000000000004" y="178.382"/>
      <point x="279.96000000000004" y="226.708" type="curve" smooth="yes"/>
    </contour>
  </outline>
</glyph>
<glyph name="m" format="2">
  <advance width="1097.538"/>
  <unicode hex="006D"/>
  <outline>
    <contour>
      <point x="51.41" y="0.0" type="line"/>
      <point x="280.218" y="0.0" type="line"/>
      <point x="280.218" y="355.48600000000005" type="line"/>
      <point x="310.48800000000006" y="370.252"/>
      <point x="337.174" y="379.328"/>
      <point x="365.51" y="379.328" type="curve" smooth="yes"/>
      <point x="415.346" y="379.328"/>
      <point x="434.868" y="344.876"/>
      <point x="434.868" y="293.48199999999997" type="curve" smooth="yes"/>
      <point x="434.868" y="0.0" type="line"/>
      <point x="663.6759999999999" y="0.0" type="line"/>
      <point x="663.6759999999999" y="316.01399999999995" type="line" smooth="yes"/>
      <point x="663.6759999999999" y="328.54400000000004"/>
      <point x="663.3539999999999" y="342.746"/>
      <point x="661.4639999999999" y="356.06" type="curve"/>
      <point x="692.994" y="369.692"/>
      <point x="721.024" y="380.42"/>
      <point x="750.494" y="380.42" type="curve" smooth="yes"/>
      <point x="800.1199999999999" y="380.42"/>
      <point x="817.836" y="346.472"/>
      <point x="817.836" y="293.87399999999997" type="curve" smooth="yes"/>
      <point x="817.836" y="0.0" type="line"/>
      <point x="1046.644" y="0.0" type="line"/>
      <point x="1046.644" y="373.08" type="line" smooth="yes"/>
      <point x="1046.644" y="479.0919999999999"/>
      <point x="980.1999999999999" y="557.2"/>
      <point x="859.578" y="557.2" type="curve" smooth="yes"/>
      <point x="781.55" y="557.2"/>
      <point x="721.7659999999998" y="536.1600000000001"/>
      <point x="624.138" y="481.96200000000005" type="curve"/>
      <point x="595.0419999999999" y="532.5980000000001"/>
      <point x="550.04" y="556.71"/>
      <point x="467.972" y="556.71" type="curve" smooth="yes"/>
      <point x="401.27" y="556.71"/>
      <point x="335.67599999999993" y="535.3620000000001"/>
      <point x="257.16999999999996" y="488.9680000000001" type="curve"/>
      <point x="257.16999999999996" y="547.2" type="line"/>
      <point x="51.41" y="547.2" type="line"/>
    </contour>
  </outline>
</glyph>
<glyph name="n" format="2">
  <advance width="743.0459999999999"/>
  <unicode hex="006E"/>
  <anchor x="367.06" y="547.2" name="top"/>
  <anchor x="367.34" y="0.0" name="bottom"/>
  <outline>
    <contour>
      <point x="51.41" y="0.0" type="line"/>
      <point x="280.218" y="0.0" type="line"/>
      <point x="280.218" y="356.004" type="line"/>
      <point x="320.666" y="371.86199999999997"/>
      <point x="353.722" y="382.828"/>
      <point x="388.42799999999994" y="382.828" type="curve" smooth="yes"/>
      <point x="435.1139999999999" y="382.828"/>
      <point x="463.34400000000005" y="358.27399999999994"/>
      <point x="463.34400000000005" y="293.972" type="curve" smooth="yes"/>
      <point x="463.34400000000005" y="0.0" type="line"/>
      <point x="692.1519999999999" y="0.0" type="line"/>
      <point x="692.1519999999999" y="373.17800000000005" type="line" smooth="yes"/>
      <point x="692.1519999999999" y="476.9219999999999"/>
      <point x="626.9540000000001" y="557.2"/>
      <point x="483.66599999999994" y="557.2" type="curve" smooth="yes"/>
      <point x="403.76200000000006" y="557.2"/>
      <point x="343.628" y="535.502"/>
      <point x="257.16999999999996" y="489.234" type="curve"/>
      <point x="257.16999999999996" y="547.2" type="line"/>
      <point x="51.41" y="547.2" type="line"/>
    </contour>
  </outline>
</glyph>
<glyph name="o" format="2">
  <advance width="745.18"/>
  <unicode hex="006F"/>
  <anchor x="490.662" y="3.2799999999999994" name="ogonek"/>
  <anchor x="372.59" y="547.2" name="top"/>
  <anchor x="579.9639999999998" y="538.1800000000001" name="topright"/>
  <anchor x="373.094" y="0.0" name="bottom"/>
  <outline>
    <contour>
      <point x="28.605999999999995" y="275.258" type="curve" smooth="yes"/>
      <point x="28.605999999999995" y="93.75800000000001"/>
      <point x="125.95800000000001" y="-10.0"/>
      <point x="373.094" y="-10.0" type="curve" smooth="yes"/>
      <point x="619.222" y="-10.0"/>
      <point x="716.574" y="93.75800000000001"/>
      <point x="716.574" y="275.258" type="curve" smooth="yes"/>
      <point x="716.574" y="447.658"/>
      <point x="631.626" y="557.2"/>
      <point x="373.094" y="557.2" type="curve" smooth="yes"/>
      <point x="113.358" y="557.2"/>
      <point x="28.605999999999995" y="447.658"/>
    </contour>
    <contour>
      <point x="262.39" y="274.75399999999996" type="curve" smooth="yes"/>
      <point x="262.39" y="364.82599999999996"/>
      <point x="289.506" y="408.324"/>
      <point x="372.59" y="408.324" type="curve" smooth="yes"/>
      <point x="455.91999999999996" y="408.324"/>
      <point x="482.59400000000005" y="364.82599999999996"/>
      <point x="482.59400000000005" y="274.75399999999996" type="curve" smooth="yes"/>
      <point x="482.59400000000005" y="180.398"/>
      <point x="450.74" y="139.134"/>
      <point x="372.59" y="139.134" type="curve" smooth="yes"/>
      <point x="294.182" y="139.134"/>
      <point x="262.39" y="180.398"/>
    </contour>
  </outline>
</glyph>
<glyph name="p" format="2">
  <advance width="761.716"/>
  <unicode hex="0070"/>
  <outline>
    <contour>
      <point x="51.41" y="-210.0" type="line"/>
      <point x="280.82" y="-210.0" type="line"/>
      <point x="280.82" y="-3.9220000000000006" type="line"/>
      <point x="316.592" y="-7.916"/>
      <point x="352.066" y="-10.0"/>
      <point x="385.104" y="-10.0" type="curve" smooth="yes"/>
      <point x="624.7139999999999" y="-10.0"/>
      <point x="733.2080000000001" y="82.756"/>
      <point x="733.2080000000001" y="281.26800000000003" type="curve" smooth="yes"/>
      <point x="733.2080000000001" y="457.702"/>
      <point x="648.5319999999999" y="557.2"/>
      <point x="500.72599999999994" y="557.2" type="curve" smooth="yes"/>
      <point x="421.938" y="557.2"/>
      <point x="345.732" y="534.8779999999999"/>
      <point x="260.266" y="485.38599999999997" type="curve"/>
      <point x="257.16999999999996" y="547.62" type="line"/>
      <point x="51.41" y="547.62" type="line"/>
    </contour>
    <contour>
      <point x="379.734" y="140.238" type="curve" smooth="yes"/>
      <point x="348.056" y="140.238"/>
      <point x="313.28999999999996" y="144.73000000000002"/>
      <point x="280.218" y="153.89600000000002" type="curve"/>
      <point x="280.218" y="353.046" type="line"/>
      <point x="328.32" y="374.422"/>
      <point x="369.182" y="384.03200000000004"/>
      <point x="405.572" y="384.03200000000004" type="curve" smooth="yes"/>
      <point x="466.70399999999995" y="384.03200000000004"/>
      <point x="499.15399999999994" y="349.54200000000003"/>
      <point x="499.15399999999994" y="265.35800000000006" type="curve" smooth="yes"/>
      <point x="499.15399999999994" y="176.578"/>
      <point x="458.948" y="140.238"/>
    </contour>
  </outline>
</glyph>
<glyph name="q" format="2">
  <advance width="761.974"/>
  <unicode hex="0071"/>
  <outline>
    <contour>
      <point x="710.5640000000001" y="527.3" type="line"/>
      <point x="588.182" y="546.8919999999999"/>
      <point x="479.1499999999999" y="557.2"/>
      <point x="388.222" y="557.2" type="curve" smooth="yes"/>
      <point x="139.06599999999997" y="557.2"/>
      <point x="28.507999999999996" y="469.08799999999997"/>
      <point x="28.507999999999996" y="271.092" type="curve" smooth="yes"/>
      <point x="28.507999999999996" y="88.25"/>
      <point x="112.452" y="-10.0"/>
      <point x="263.054" y="-10.0" type="curve" smooth="yes"/>
      <point x="338.918" y="-10.0"/>
      <point x="407.298" y="9.483999999999996"/>
      <point x="482.01399999999995" y="52.61199999999999" type="curve"/>
      <point x="482.01399999999995" y="-210.0" type="line"/>
      <point x="710.5640000000001" y="-210.0" type="line"/>
    </contour>
    <contour>
      <point x="481.756" y="394.552" type="curve"/>
      <point x="481.756" y="195.44400000000002" type="line"/>
      <point x="433.65399999999994" y="173.81"/>
      <point x="392.792" y="163.684"/>
      <point x="356.144" y="163.684" type="curve" smooth="yes"/>
      <point x="295.312" y="163.684"/>
      <point x="262.82" y="197.742"/>
      <point x="262.82" y="277.198" type="curve" smooth="yes"/>
      <point x="262.82" y="370.622"/>
      <point x="303.026" y="407.47800000000007"/>
      <point x="382.498" y="407.47800000000007" type="curve" smooth="yes"/>
      <point x="414.21999999999997" y="407.47800000000007"/>
      <point x="448.684" y="403.24399999999997"/>
    </contour>
  </outline>
</glyph>
<glyph name="r" format="2">
  <advance width="542.7159999999999"/>
  <unicode hex="0072"/>
  <anchor x="280.84599999999995" y="547.2" name="top"/>
  <anchor x="165.556" y="0.0" name="bottom"/>
  <outline>
    <contour>
      <point x="256.91200000000003" y="547.2" type="line"/>
      <point x="51.41" y="547.2" type="line"/>
      <point x="51.41" y="0.0" type="line"/>
      <point x="279.702" y="0.0" type="line"/>
      <point x="279.702" y="333.28600000000006" type="line"/>
      <point x="330.59" y="360.5"/>
      <point x="372.096" y="368.9820000000001"/>
      <point x="410.364" y="368.9820000000001" type="curve" smooth="yes"/>
      <point x="439.5059999999999" y="368.9820000000001"/>
      <point x="469.80000000000007" y="364.50199999999995"/>
      <point x="503.40799999999996" y="356.904" type="curve"/>
      <point x="536.088" y="544.994" type="line"/>
      <point x="505.2859999999999" y="552.966"/>
      <point x="475.142" y="557.2"/>
      <point x="447.984" y="557.2" type="curve" smooth="yes"/>
      <point x="376.714" y="557.2"/>
      <point x="332.938" y="534.136"/>
      <point x="256.91200000000003" y="471.078" type="curve"/>
    </contour>
  </outline>
</glyph>
<glyph name="s" format="2">
  <advance width="609.3199999999999"/>
  <unicode hex="0073"/>
  <anchor x="301.08000000000004" y="547.1999999999999" name="top"/>
  <anchor x="302.63999999999993" y="0.0" name="bottom"/>
  <outline>
    <contour>
      <point x="24.800000000000004" y="21.319999999999997" type="line"/>
      <point x="107.43999999999997" y="-0.7000000000000011"/>
      <point x="195.06" y="-10.0"/>
      <point x="283.52" y="-10.0" type="curve" smooth="yes"/>
      <point x="431.31999999999994" y="-10.0"/>
      <point x="589.76" y="21.800000000000008"/>
      <point x="589.76" y="179.57999999999998" type="curve" smooth="yes"/>
      <point x="589.76" y="294.2"/>
      <point x="503.11999999999983" y="334.47999999999996"/>
      <point x="382.36" y="348.85999999999996" type="curve" smooth="yes"/>
      <point x="290.35999999999996" y="359.6"/>
      <point x="249.9" y="357.84"/>
      <point x="249.9" y="383.69999999999993" type="curve" smooth="yes"/>
      <point x="249.9" y="403.46"/>
      <point x="276.35999999999996" y="411.24"/>
      <point x="320.65999999999997" y="411.24" type="curve" smooth="yes"/>
      <point x="415.28" y="411.24"/>
      <point x="475.88000000000005" y="397.20000000000005"/>
      <point x="529.14" y="382.46" type="curve"/>
      <point x="553.56" y="526.4799999999999" type="line"/>
      <point x="491.9800000000001" y="543.6599999999999"/>
      <point x="417.1" y="557.1999999999999"/>
      <point x="323.24" y="557.1999999999999" type="curve" smooth="yes"/>
      <point x="129.78" y="557.1999999999999"/>
      <point x="36.18" y="498.09999999999997"/>
      <point x="36.18" y="360.78" type="curve" smooth="yes"/>
      <point x="36.18" y="266.78"/>
      <point x="90.66" y="221.54000000000002"/>
      <point x="194.04" y="203.18000000000006" type="curve" smooth="yes"/>
      <point x="286.84000000000003" y="186.89999999999998"/>
      <point x="371.10000000000014" y="189.3"/>
      <point x="371.10000000000014" y="159.88" type="curve" smooth="yes"/>
      <point x="371.10000000000014" y="141.64000000000001"/>
      <point x="344.92" y="131.07999999999996"/>
      <point x="296.2799999999999" y="131.07999999999996" type="curve" smooth="yes"/>
      <point x="226.94" y="131.07999999999996"/>
      <point x="112.22" y="147.12"/>
      <point x="47.77999999999999" y="165.56" type="curve"/>
    </contour>
  </outline>
</glyph>
<glyph name="t" format="2">
  <advance width="535.556"/>
  <unicode hex="0074"/>
  <anchor x="259.09799999999996" y="275.0" name="center"/>
  <anchor x="228.284" y="662.1619999999999" name="top"/>
  <anchor x="393.392" y="781.94" name="topright"/>
  <anchor x="296.072" y="0.0" name="bottom"/>
  <outline>
    <contour>
      <point x="312.16799999999995" y="-10.0" type="curve" smooth="yes"/>
      <point x="382.57800000000003" y="-10.0"/>
      <point x="446.358" y="-0.04200000000000037"/>
      <point x="520.5159999999998" y="20.026000000000003" type="curve"/>
      <point x="492.58399999999995" y="183.98000000000002" type="line"/>
      <point x="448.604" y="174.98000000000002"/>
      <point x="419.05999999999995" y="168.79999999999998"/>
      <point x="391.508" y="168.79999999999998" type="curve" smooth="yes"/>
      <point x="348.758" y="168.79999999999998"/>
      <point x="330.24" y="185.54399999999998"/>
      <point x="330.24" y="232.472" type="curve" smooth="yes"/>
      <point x="330.24" y="397.98400000000004" type="line"/>
      <point x="493.98599999999993" y="397.98400000000004" type="line"/>
      <point x="493.98599999999993" y="547.2" type="line"/>
      <point x="330.24" y="547.2" type="line"/>
      <point x="330.24" y="662.1619999999999" type="line"/>
      <point x="126.28599999999999" y="662.1619999999999" type="line"/>
      <point x="101.69000000000001" y="547.2" type="line"/>
      <point x="5.209999999999999" y="532.8700000000001" type="line"/>
      <point x="5.209999999999999" y="398.24199999999996" type="line"/>
      <point x="101.69000000000001" y="398.24199999999996" type="line"/>
      <point x="101.69000000000001" y="218.368" type="line" smooth="yes"/>
      <point x="101.69000000000001" y="48.652"/>
      <point x="180.15" y="-10.0"/>
    </contour>
  </outline>
</glyph>
<glyph name="u" format="2">
  <advance width="759.704"/>
  <unicode hex="0075"/>
  <anchor x="757.606" y="26.003999999999998" name="ogonek"/>
  <anchor x="376.834" y="547.2" name="top"/>
  <anchor x="687.1639999999999" y="547.2" name="topright"/>
  <anchor x="380.604" y="0.0" name="bottom"/>
  <outline>
    <contour>
      <point x="260.13399999999996" y="-10.0" type="curve" smooth="yes"/>
      <point x="345.42199999999997" y="-10.0"/>
      <point x="411.578" y="13.504000000000001"/>
      <point x="487.3159999999999" y="54.966" type="curve"/>
      <point x="514.2099999999999" y="12.108000000000002"/>
      <point x="550.75" y="-10.0"/>
      <point x="617.6279999999999" y="-10.0" type="curve" smooth="yes"/>
      <point x="670.516" y="-10.0"/>
      <point x="727.4879999999999" y="6.116"/>
      <point x="757.606" y="26.003999999999998" type="curve"/>
      <point x="739.438" y="166.144" type="line"/>
      <point x="731.7479999999999" y="162.778"/>
      <point x="724.334" y="161.54"/>
      <point x="716.3299999999999" y="161.54" type="curve" smooth="yes"/>
      <point x="700.034" y="161.54"/>
      <point x="687.1639999999999" y="171.77"/>
      <point x="687.1639999999999" y="200.638" type="curve" smooth="yes"/>
      <point x="687.1639999999999" y="547.2" type="line"/>
      <point x="458.614" y="547.2" type="line"/>
      <point x="458.614" y="187.486" type="line"/>
      <point x="416.332" y="169.76"/>
      <point x="390.03200000000004" y="161.96400000000003"/>
      <point x="354.85599999999994" y="161.96400000000003" type="curve" smooth="yes"/>
      <point x="308.53400000000005" y="161.96400000000003"/>
      <point x="279.702" y="186.02800000000002"/>
      <point x="279.702" y="242.83999999999997" type="curve" smooth="yes"/>
      <point x="279.702" y="547.2" type="line"/>
      <point x="50.894000000000005" y="547.2" type="line"/>
      <point x="50.894000000000005" y="178.512" type="line" smooth="yes"/>
      <point x="50.894000000000005" y="57.11999999999999"/>
      <point x="132.974" y="-10.0"/>
    </contour>
  </outline>
</glyph>
<glyph name="v" format="2">
  <advance width="736.2959999999999"/>
  <unicode hex="0076"/>
  <outline>
    <contour>
      <point x="246.18599999999998" y="0.0" type="line"/>
      <point x="488.722" y="0.0" type="line"/>
      <point x="729.704" y="546.528" type="line"/>
      <point x="479.61600000000004" y="547.872" type="line"/>
      <point x="376.58199999999994" y="176.438" type="line"/>
      <point x="257.53999999999996" y="547.872" type="line"/>
      <point x="6.161999999999999" y="546.528" type="line"/>
    </contour>
  </outline>
</glyph>
<glyph name="w" format="2">
  <advance width="1002.5739999999998"/>
  <unicode hex="0077"/>
  <anchor x="501.33799999999997" y="547.2" name="top"/>
  <anchor x="501.33799999999997" y="0.0" name="bottom"/>
  <outline>
    <contour>
      <point x="159.72799999999998" y="0.0" type="line"/>
      <point x="417.5059999999999" y="0.0" type="line"/>
      <point x="495.23199999999997" y="318.422" type="line"/>
      <point x="583.606" y="0.0" type="line"/>
      <point x="831.4939999999999" y="0.0" type="line"/>
      <point x="992.9759999999999" y="546.4839999999999" type="line"/>
      <point x="770.828" y="547.932" type="line"/>
      <point x="709.3939999999999" y="189.37" type="line"/>
      <point x="621.762" y="547.2" type="line"/>
      <point x="380.31199999999995" y="547.2" type="line"/>
      <point x="294.4599999999999" y="190.176" type="line"/>
      <point x="238.024" y="547.932" type="line"/>
      <point x="9.097999999999999" y="546.4839999999999" type="line"/>
    </contour>
  </outline>
</glyph>
<glyph name="x" format="2">
  <advance width="755.292"/>
  <unicode hex="0078"/>
  <outline>
    <contour>
      <point x="2.231999999999999" y="0.7040000000000011" type="line"/>
      <point x="289.94800000000004" y="-1.0480000000000005" type="line"/>
      <point x="384.20000000000005" y="163.34799999999998" type="line"/>
      <point x="480.30800000000005" y="-1.0480000000000005" type="line"/>
      <point x="753.6359999999999" y="0.7040000000000011" type="line"/>
      <point x="527.3760000000001" y="282.17600000000004" type="line"/>
      <point x="742.0840000000001" y="546.5039999999999" type="line"/>
      <point x="479.4559999999999" y="548.3960000000001" type="line"/>
      <point x="384.996" y="390.26800000000003" type="line"/>
      <point x="295.13599999999997" y="548.1800000000001" type="line"/>
      <point x="20.880000000000003" y="546.36" type="line"/>
      <point x="235.48799999999994" y="279.488" type="line"/>
    </contour>
  </outline>
</glyph>
<glyph name="y" format="2">
  <advance width="741.802"/>
  <unicode hex="0079"/>
  <anchor x="362.682" y="547.1999999999999" name="top"/>
  <anchor x="609.678" y="0.0" name="bottom"/>
  <outline>
    <contour>
      <point x="186.936" y="-209.524" type="line"/>
      <point x="427.204" y="-210.756" type="line"/>
      <point x="735.598" y="547.1160000000001" type="line"/>
      <point x="497.1419999999999" y="548.264" type="line"/>
      <point x="380.48400000000004" y="169.53200000000004" type="line"/>
      <point x="261.48800000000006" y="548.264" type="line"/>
      <point x="6.203999999999999" y="546.9200000000001" type="line"/>
      <point x="247.87" y="0.0" type="line"/>
      <point x="270.61600000000004" y="0.0" type="line"/>
    </contour>
  </outline>
</glyph>
<glyph name="z" format="2">
  <advance width="685.9839999999999"/>
  <unicode hex="007A"/>
  <anchor x="345.18" y="547.2" name="top"/>
  <outline>
    <contour>
      <point x="32.27199999999999" y="0.0" type="line"/>
      <point x="653.468" y="0.0" type="line"/>
      <point x="653.468" y="156.952" type="line"/>
      <point x="335.82399999999996" y="156.952" type="line"/>
      <point x="632.732" y="410.88000000000005" type="line"/>
      <point x="632.732" y="547.2" type="line"/>
      <point x="50.29599999999999" y="547.2" type="line"/>
      <point x="50.29599999999999" y="390.82" type="line"/>
      <point x="335.47999999999996" y="390.82" type="line"/>
      <point x="32.27199999999999" y="137.108" type="line"/>
    </contour>
  </outline>
</glyph>
<glyph name="braceleft" format="2">
  <advance width="416.47799999999995"/>
  <unicode hex="007B"/>
  <outline>
    <contour>
      <point x="67.132" y="-38.466" type="curve" smooth="yes"/>
      <point x="67.132" y="-160.19199999999998"/>
      <point x="155.128" y="-210.258"/>
      <point x="265.41" y="-210.258" type="curve" smooth="yes"/>
      <point x="384.832" y="-210.258" type="line"/>
      <point x="384.832" y="-74.158" type="line"/>
      <point x="327.33" y="-74.158" type="line" smooth="yes"/>
      <point x="282.93" y="-74.158"/>
      <point x="265.496" y="-49.571999999999996"/>
      <point x="265.496" y="-12.666" type="curve" smooth="yes"/>
      <point x="265.496" y="34.926"/>
      <point x="301.67799999999994" y="82.608"/>
      <point x="301.67799999999994" y="138.052" type="curve" smooth="yes"/>
      <point x="301.67799999999994" y="184.834"/>
      <point x="288.43399999999997" y="231.61399999999998"/>
      <point x="214.994" y="265.0" type="curve"/>
      <point x="288.336" y="299.418"/>
      <point x="301.67799999999994" y="344.71200000000005"/>
      <point x="301.67799999999994" y="391.494" type="curve" smooth="yes"/>
      <point x="301.67799999999994" y="447.03599999999994"/>
      <point x="265.496" y="494.228"/>
      <point x="265.496" y="542.212" type="curve" smooth="yes"/>
      <point x="265.496" y="579.118"/>
      <point x="282.93" y="603.9"/>
      <point x="327.33" y="603.9" type="curve" smooth="yes"/>
      <point x="384.832" y="603.9" type="line"/>
      <point x="384.832" y="740.0" type="line"/>
      <point x="265.41" y="740.0" type="line" smooth="yes"/>
      <point x="155.128" y="740.0"/>
      <point x="67.132" y="689.738"/>
      <point x="67.132" y="568.012" type="curve" smooth="yes"/>
      <point x="67.132" y="481.73999999999995"/>
      <point x="108.04400000000001" y="434.758"/>
      <point x="108.04400000000001" y="388.05400000000003" type="curve" smooth="yes"/>
      <point x="108.04400000000001" y="354.57000000000005"/>
      <point x="97.738" y="333.48"/>
      <point x="60.211999999999996" y="333.48" type="curve" smooth="yes"/>
      <point x="42.30799999999999" y="333.48" type="line"/>
      <point x="42.30799999999999" y="196.262" type="line"/>
      <point x="60.211999999999996" y="196.262" type="line" smooth="yes"/>
      <point x="97.738" y="196.262"/>
      <point x="108.04400000000001" y="175.018"/>
      <point x="108.04400000000001" y="141.492" type="curve" smooth="yes"/>
      <point x="108.04400000000001" y="94.858"/>
      <point x="67.132" y="47.315999999999995"/>
    </contour>
  </outline>
</glyph>
<glyph name="bar" format="2">
  <advance width="294.90799999999996"/>
  <unicode hex="007C"/>
  <outline>
    <contour>
      <point x="237.434" y="790.258" type="line"/>
      <point x="57.474000000000004" y="790.258" type="line"/>
      <point x="57.474000000000004" y="-210.0" type="line"/>
      <point x="237.434" y="-210.0" type="line"/>
    </contour>
  </outline>
</glyph>
<glyph name="braceright" format="2">
  <advance width="416.47799999999995"/>
  <unicode hex="007D"/>
  <outline>
    <contour>
      <point x="31.646" y="-74.158" type="line"/>
      <point x="31.646" y="-210.258" type="line"/>
      <point x="151.10999999999999" y="-210.258" type="line" smooth="yes"/>
      <point x="261.392" y="-210.258"/>
      <point x="349.388" y="-160.19199999999998"/>
      <point x="349.388" y="-38.466" type="curve" smooth="yes"/>
      <point x="349.388" y="47.315999999999995"/>
      <point x="308.47599999999994" y="94.858"/>
      <point x="308.47599999999994" y="141.492" type="curve" smooth="yes"/>
      <point x="308.47599999999994" y="175.018"/>
      <point x="318.78200000000004" y="196.262"/>
      <point x="356.30799999999994" y="196.262" type="curve" smooth="yes"/>
      <point x="374.17" y="196.262" type="line"/>
      <point x="374.17" y="333.48" type="line"/>
      <point x="356.30799999999994" y="333.48" type="line" smooth="yes"/>
      <point x="318.74" y="333.48"/>
      <point x="308.47599999999994" y="354.57000000000005"/>
      <point x="308.47599999999994" y="388.05400000000003" type="curve" smooth="yes"/>
      <point x="308.47599999999994" y="434.758"/>
      <point x="349.388" y="481.73999999999995"/>
      <point x="349.388" y="568.012" type="curve" smooth="yes"/>
      <point x="349.388" y="689.738"/>
      <point x="261.392" y="740.0"/>
      <point x="151.10999999999999" y="740.0" type="curve" smooth="yes"/>
      <point x="31.646" y="740.0" type="line"/>
      <point x="31.646" y="603.9" type="line"/>
      <point x="84.804" y="603.9" type="line" smooth="yes"/>
      <point x="129.162" y="603.9"/>
      <point x="146.638" y="579.118"/>
      <point x="146.638" y="542.212" type="curve" smooth="yes"/>
      <point x="146.638" y="494.228"/>
      <point x="110.45600000000002" y="447.03599999999994"/>
      <point x="110.45600000000002" y="391.494" type="curve" smooth="yes"/>
      <point x="110.45600000000002" y="344.71200000000005"/>
      <point x="123.756" y="299.418"/>
      <point x="197.14" y="265.0" type="curve"/>
      <point x="123.658" y="231.61399999999998"/>
      <point x="110.45600000000002" y="184.834"/>
      <point x="110.45600000000002" y="138.052" type="curve" smooth="yes"/>
      <point x="110.45600000000002" y="82.608"/>
      <point x="146.638" y="34.926"/>
      <point x="146.638" y="-12.666" type="curve" smooth="yes"/>
      <point x="146.638" y="-49.571999999999996"/>
      <point x="129.162" y="-74.158"/>
      <point x="84.804" y="-74.158" type="curve" smooth="yes"/>
    </contour>
  </outline>
</glyph>
<glyph name="asciitilde" format="2">
  <advance width="649.544"/>
  <unicode hex="007E"/>
  <outline>
    <contour>
      <point x="590.39" y="228.27800000000002" type="curve"/>
      <point x="590.39" y="395.94" type="line"/>
      <point x="561.1560000000001" y="369.23800000000006"/>
      <point x="524.068" y="356.24"/>
      <point x="476.586" y="356.24" type="curve" smooth="yes"/>
      <point x="347.208" y="356.24"/>
      <point x="277.996" y="438.39799999999997"/>
      <point x="178.06799999999998" y="438.39799999999997" type="curve" smooth="yes"/>
      <point x="107.50800000000001" y="438.39799999999997"/>
      <point x="71.994" y="408.34399999999994"/>
      <point x="59.798" y="399.496" type="curve"/>
      <point x="59.798" y="231.736" type="line"/>
      <point x="88.038" y="250.244"/>
      <point x="117.23799999999999" y="268.93"/>
      <point x="171.6" y="268.93" type="curve" smooth="yes"/>
      <point x="276.904" y="268.93"/>
      <point x="353.382" y="186.17000000000002"/>
      <point x="477.342" y="186.17000000000002" type="curve" smooth="yes"/>
      <point x="522.64" y="186.17000000000002"/>
      <point x="564.446" y="204.20799999999997"/>
    </contour>
  </outline>
</glyph>
<glyph name="exclamdown" format="2">
  <advance width="324.09599999999995"/>
  <unicode hex="00A1"/>
  <outline>
    <contour>
      <point x="260.972" y="286.898" type="line"/>
      <point x="67.85399999999998" y="286.898" type="line"/>
      <point x="51.685999999999986" y="-193.40200000000002" type="line"/>
      <point x="276.366" y="-193.40200000000002" type="line"/>
    </contour>
    <contour>
      <point x="286.422" y="454.606" type="curve" smooth="yes"/>
      <point x="286.422" y="522.12"/>
      <point x="252.01" y="555.8"/>
      <point x="162.04799999999997" y="555.8" type="curve" smooth="yes"/>
      <point x="72.226" y="555.8"/>
      <point x="37.673999999999985" y="522.12"/>
      <point x="37.673999999999985" y="454.606" type="curve" smooth="yes"/>
      <point x="37.673999999999985" y="386.232"/>
      <point x="72.08599999999998" y="352.552"/>
      <point x="162.04799999999997" y="352.552" type="curve" smooth="yes"/>
      <point x="252.01" y="352.552"/>
      <point x="286.422" y="386.232"/>
    </contour>
  </outline>
</glyph>
<glyph name="cent" format="2">
  <advance width="852.292"/>
  <unicode hex="00A2"/>
  <outline>
    <contour>
      <point x="442.39399999999995" y="-10.258" type="curve" smooth="yes"/>
      <point x="539.4140000000001" y="-10.258"/>
      <point x="641.598" y="1.0999999999999996"/>
      <point x="725.174" y="21.6" type="curve"/>
      <point x="697.6100000000001" y="177.44" type="line"/>
      <point x="621.8399999999999" y="163.874"/>
      <point x="561.1239999999999" y="157.878"/>
      <point x="498.50199999999995" y="157.878" type="curve" smooth="yes"/>
      <point x="399.68600000000004" y="157.878"/>
      <point x="343.326" y="192.54"/>
      <point x="343.326" y="269.186" type="curve" smooth="yes"/>
      <point x="343.326" y="348.74800000000005"/>
      <point x="393.27599999999995" y="386.05400000000003"/>
      <point x="485.07000000000005" y="386.05400000000003" type="curve" smooth="yes"/>
      <point x="551.342" y="386.05400000000003"/>
      <point x="615.96" y="379.24"/>
      <point x="685.15" y="365.362" type="curve"/>
      <point x="711.208" y="530.8340000000001" type="line"/>
      <point x="634.634" y="547.782"/>
      <point x="567.824" y="557.716"/>
      <point x="465.376" y="557.716" type="curve" smooth="yes"/>
      <point x="214.528" y="557.716"/>
      <point x="117.958" y="423.78999999999996"/>
      <point x="117.958" y="264.02599999999995" type="curve" smooth="yes"/>
      <point x="117.958" y="86.376"/>
      <point x="232.614" y="-10.258"/>
    </contour>
    <contour>
      <point x="351.104" y="-105.258" type="line"/>
      <point x="516.444" y="-105.258" type="line"/>
      <point x="516.444" y="7.826" type="line"/>
      <point x="351.104" y="13.787999999999998" type="line"/>
    </contour>
    <contour>
      <point x="351.104" y="529.7460000000001" type="line"/>
      <point x="516.444" y="540.8480000000001" type="line"/>
      <point x="516.444" y="651.942" type="line"/>
      <point x="351.104" y="651.942" type="line"/>
    </contour>
  </outline>
</glyph>
<glyph name="sterling" format="2">
  <advance width="852.46"/>
  <unicode hex="00A3"/>
  <outline>
    <contour>
      <point x="102.76" y="0.0" type="line"/>
      <point x="761.552" y="0.0" type="line"/>
      <point x="761.552" y="165.32000000000002" type="line"/>
      <point x="369.17999999999995" y="165.32000000000002" type="line"/>
      <point x="410.552" y="193.13600000000002"/>
      <point x="437.228" y="233.61200000000002"/>
      <point x="437.228" y="274.496" type="curve" smooth="yes"/>
      <point x="437.228" y="335.69200000000006"/>
      <point x="374.53999999999996" y="399.25200000000007"/>
      <point x="374.53999999999996" y="453.23999999999995" type="curve" smooth="yes"/>
      <point x="374.53999999999996" y="511.5520000000001"/>
      <point x="432.94000000000005" y="531.98"/>
      <point x="502.7799999999998" y="531.98" type="curve" smooth="yes"/>
      <point x="586.044" y="531.98"/>
      <point x="661.5279999999999" y="522.064"/>
      <point x="724.916" y="503.55999999999995" type="curve"/>
      <point x="753.7079999999999" y="668.544" type="line"/>
      <point x="669.9119999999999" y="695.3600000000001"/>
      <point x="590.464" y="710.0"/>
      <point x="479.06" y="710.0" type="curve" smooth="yes"/>
      <point x="256.0079999999999" y="710.0"/>
      <point x="140.69199999999998" y="635.1560000000001"/>
      <point x="140.69199999999998" y="513.6160000000001" type="curve" smooth="yes"/>
      <point x="140.69199999999998" y="416.55600000000004"/>
      <point x="218.86" y="342.596"/>
      <point x="218.86" y="271.488" type="curve" smooth="yes"/>
      <point x="218.86" y="216.104"/>
      <point x="188.38799999999998" y="187.576"/>
      <point x="102.76" y="135.22" type="curve"/>
    </contour>
    <contour>
      <point x="95.97200000000001" y="295.244" type="line"/>
      <point x="646.168" y="295.244" type="line"/>
      <point x="646.168" y="396.884" type="line"/>
      <point x="95.97200000000001" y="396.884" type="line"/>
    </contour>
  </outline>
</glyph>
<glyph name="currency" format="2">
  <advance width="543.62"/>
  <unicode hex="00A4"/>
  <outline>
    <contour>
      <point x="52.966" y="425.544" type="line"/>
      <point x="109.594" y="367.916" type="line"/>
      <point x="102.20400000000001" y="349.818"/>
      <point x="97.85799999999999" y="330.13800000000003"/>
      <point x="97.85799999999999" y="308.694" type="curve" smooth="yes"/>
      <point x="97.85799999999999" y="286.39"/>
      <point x="102.20400000000001" y="265.59200000000004"/>
      <point x="110.594" y="247.236" type="curve"/>
      <point x="52.966" y="189.608" type="line"/>
      <point x="153.912" y="88.66199999999999" type="line"/>
      <point x="225.38600000000002" y="159.534" type="line"/>
      <point x="238.75400000000002" y="155.014"/>
      <point x="254.21999999999997" y="153.474"/>
      <point x="270.70799999999997" y="153.474" type="curve" smooth="yes"/>
      <point x="287.884" y="153.474"/>
      <point x="303.318" y="155.616"/>
      <point x="317.63200000000006" y="159.87800000000001" type="curve"/>
      <point x="389.70799999999997" y="88.66199999999999" type="line"/>
      <point x="490.654" y="189.608" type="line"/>
      <point x="431.048" y="248.956" type="line"/>
      <point x="438.492" y="267.226"/>
      <point x="443.096" y="287.078"/>
      <point x="443.096" y="308.694" type="curve" smooth="yes"/>
      <point x="443.096" y="329.192"/>
      <point x="439.094" y="348.18399999999997"/>
      <point x="431.30600000000004" y="366.196" type="curve"/>
      <point x="490.654" y="425.544" type="line"/>
      <point x="389.70799999999997" y="526.49" type="line"/>
      <point x="318.664" y="455.446" type="line"/>
      <point x="304.092" y="460.31"/>
      <point x="288.28200000000004" y="462.84999999999997"/>
      <point x="270.70799999999997" y="462.84999999999997" type="curve" smooth="yes"/>
      <point x="253.564" y="462.84999999999997"/>
      <point x="238.098" y="460.052"/>
      <point x="224.214" y="455.78999999999996" type="curve"/>
      <point x="153.912" y="526.49" type="line"/>
    </contour>
    <contour>
      <point x="270.106" y="264.20399999999995" type="curve" smooth="yes"/>
      <point x="244.48399999999998" y="264.20399999999995"/>
      <point x="225.874" y="282.212"/>
      <point x="225.874" y="308.436" type="curve" smooth="yes"/>
      <point x="225.874" y="332.47799999999995"/>
      <point x="243.88199999999998" y="351.86199999999997"/>
      <point x="270.106" y="351.86199999999997" type="curve" smooth="yes"/>
      <point x="296.46999999999997" y="351.86199999999997"/>
      <point x="315.08000000000004" y="332.47799999999995"/>
      <point x="315.08000000000004" y="308.436" type="curve" smooth="yes"/>
      <point x="315.08000000000004" y="282.212"/>
      <point x="295.868" y="264.20399999999995"/>
    </contour>
  </outline>
</glyph>
<glyph name="yen" format="2">
  <advance width="874.78"/>
  <unicode hex="00A5"/>
  <outline>
    <contour>
      <point x="113.61999999999998" y="306.67999999999995" type="line"/>
      <point x="327.15999999999997" y="306.67999999999995" type="line"/>
      <point x="327.15999999999997" y="259.28000000000003" type="line"/>
      <point x="113.61999999999998" y="259.28000000000003" type="line"/>
      <point x="113.61999999999998" y="173.46" type="line"/>
      <point x="327.15999999999997" y="173.46" type="line"/>
      <point x="327.15999999999997" y="0.0" type="line"/>
      <point x="550.6599999999999" y="0.0" type="line"/>
      <point x="550.6599999999999" y="173.46" type="line"/>
      <point x="770.1399999999999" y="173.46" type="line"/>
      <point x="770.1399999999999" y="259.28000000000003" type="line"/>
      <point x="550.6599999999999" y="259.28000000000003" type="line"/>
      <point x="550.6599999999999" y="306.67999999999995" type="line"/>
      <point x="770.1399999999999" y="306.67999999999995" type="line"/>
      <point x="770.1399999999999" y="392.64000000000004" type="line"/>
      <point x="550.6599999999999" y="392.64000000000004" type="line"/>
      <point x="823.6600000000001" y="698.4399999999998" type="line"/>
      <point x="595.06" y="701.7000000000002" type="line"/>
      <point x="440.8199999999999" y="505.4" type="line"/>
      <point x="283.46000000000004" y="701.7000000000002" type="line"/>
      <point x="51.39999999999999" y="698.4399999999998" type="line"/>
      <point x="327.15999999999997" y="392.64000000000004" type="line"/>
      <point x="113.61999999999998" y="392.64000000000004" type="line"/>
    </contour>
  </outline>
</glyph>
<glyph name="brokenbar" format="2">
  <advance width="294.65"/>
  <unicode hex="00A6"/>
  <outline>
    <contour>
      <point x="237.176" y="391.0" type="line"/>
      <point x="237.176" y="790.258" type="line"/>
      <point x="57.474000000000004" y="790.258" type="line"/>
      <point x="57.474000000000004" y="391.0" type="line"/>
    </contour>
    <contour>
      <point x="57.474000000000004" y="190.258" type="line"/>
      <point x="57.474000000000004" y="-210.0" type="line"/>
      <point x="237.176" y="-210.0" type="line"/>
      <point x="237.176" y="190.258" type="line"/>
    </contour>
  </outline>
</glyph>
<glyph name="section" format="2">
  <advance width="713.9520000000001"/>
  <unicode hex="00A7"/>
  <outline>
    <contour>
      <point x="284.878" y="-220.35600000000002" type="curve" smooth="yes"/>
      <point x="512.8319999999999" y="-220.35600000000002"/>
      <point x="653.6940000000001" y="-103.606"/>
      <point x="653.6940000000001" y="84.72" type="curve" smooth="yes"/>
      <point x="653.6940000000001" y="176.86999999999998"/>
      <point x="625.5659999999999" y="252.54999999999998"/>
      <point x="544.848" y="365.688" type="curve" smooth="yes"/>
      <point x="493.078" y="444.62999999999994"/>
      <point x="472.938" y="478.166"/>
      <point x="472.938" y="505.81199999999995" type="curve" smooth="yes"/>
      <point x="472.938" y="538.004"/>
      <point x="496.81399999999996" y="558.6639999999999"/>
      <point x="535.076" y="558.6639999999999" type="curve" smooth="yes"/>
      <point x="550.3240000000001" y="558.6639999999999"/>
      <point x="565.84" y="556.174"/>
      <point x="586.6880000000001" y="548.698" type="curve"/>
      <point x="615.8340000000001" y="725.3679999999999" type="line"/>
      <point x="553.664" y="743.222"/>
      <point x="493.43" y="750.0000000000001"/>
      <point x="437.43199999999996" y="750.0000000000001" type="curve" smooth="yes"/>
      <point x="189.6" y="750.0000000000001"/>
      <point x="64.05199999999999" y="638.482"/>
      <point x="65.774" y="455.14000000000004" type="curve" smooth="yes"/>
      <point x="66.562" y="365.05600000000004"/>
      <point x="94.54400000000001" y="291.624"/>
      <point x="171.90800000000002" y="169.01" type="curve" smooth="yes"/>
      <point x="222.95199999999997" y="86.368"/>
      <point x="247.14399999999998" y="52.262"/>
      <point x="247.21400000000003" y="17.582" type="curve" smooth="yes"/>
      <point x="247.28399999999996" y="-12.338000000000008"/>
      <point x="221.698" y="-32.268"/>
      <point x="178.88800000000003" y="-32.268" type="curve" smooth="yes"/>
      <point x="150.518" y="-32.268"/>
      <point x="127.33800000000001" y="-25.440000000000015"/>
      <point x="93.65199999999999" y="-10.26200000000001" type="curve"/>
      <point x="57.424" y="-178.336" type="line"/>
      <point x="133.466" y="-207.09199999999998"/>
      <point x="203.28799999999998" y="-220.35600000000002"/>
    </contour>
    <contour>
      <point x="301.664" y="-110.418" type="curve" smooth="yes"/>
      <point x="272.336" y="-110.418"/>
      <point x="242.32399999999998" y="-106.27199999999999"/>
      <point x="217.32" y="-93.46600000000001" type="curve"/>
      <point x="249.94799999999998" y="-120.16399999999999" type="line"/>
      <point x="347.62399999999997" y="-126.386"/>
      <point x="426.894" y="-68.51"/>
      <point x="426.894" y="17.729999999999986" type="curve" smooth="yes"/>
      <point x="426.894" y="72.44"/>
      <point x="400.64399999999995" y="132.64"/>
      <point x="333.32200000000006" y="241.94" type="curve" smooth="yes"/>
      <point x="268.072" y="348.476"/>
      <point x="242.736" y="413.11600000000004"/>
      <point x="242.736" y="474.87" type="curve" smooth="yes"/>
      <point x="242.736" y="562.872"/>
      <point x="303.072" y="622.2440000000001"/>
      <point x="386.8179999999999" y="622.2440000000001" type="curve" smooth="yes"/>
      <point x="418.3059999999999" y="622.2440000000001"/>
      <point x="438.26399999999995" y="617.37"/>
      <point x="463.49999999999994" y="603.1740000000001" type="curve"/>
      <point x="431.26599999999996" y="635.8439999999999" type="line"/>
      <point x="363.80400000000003" y="637.3480000000001"/>
      <point x="300.354" y="582.4300000000001"/>
      <point x="300.14399999999995" y="509.89599999999996" type="curve" smooth="yes"/>
      <point x="300.14399999999995" y="451.81399999999996"/>
      <point x="319.91999999999996" y="407.686"/>
      <point x="382.506" y="300.78800000000007" type="curve" smooth="yes"/>
      <point x="460.37" y="168.852"/>
      <point x="485.62999999999994" y="115.01799999999999"/>
      <point x="485.62999999999994" y="56.496" type="curve" smooth="yes"/>
      <point x="485.69999999999993" y="-21.385999999999996"/>
      <point x="434.88800000000003" y="-110.348"/>
    </contour>
  </outline>
</glyph>
<glyph name="copyright" format="2">
  <advance width="851.0439999999999"/>
  <unicode hex="00A9"/>
  <outline>
    <contour>
      <point x="425.61999999999995" y="62.696" type="curve" smooth="yes"/>
      <point x="232.54999999999998" y="62.696"/>
      <point x="130.91799999999998" y="173.428"/>
      <point x="130.91799999999998" y="349.05400000000003" type="curve" smooth="yes"/>
      <point x="130.91799999999998" y="525.9259999999999"/>
      <point x="233.24999999999997" y="633.5079999999999"/>
      <point x="425.61999999999995" y="633.5079999999999" type="curve" smooth="yes"/>
      <point x="618.568" y="633.5079999999999"/>
      <point x="719.8679999999998" y="525.9259999999999"/>
      <point x="719.8679999999998" y="349.05400000000003" type="curve" smooth="yes"/>
      <point x="719.8679999999998" y="173.428"/>
      <point x="619.268" y="62.696"/>
    </contour>
    <contour>
      <point x="425.61999999999995" y="710.0" type="curve" smooth="yes"/>
      <point x="188.58800000000002" y="710.0"/>
      <point x="47.24" y="564.6640000000001"/>
      <point x="47.24" y="349.05400000000003" type="curve" smooth="yes"/>
      <point x="47.24" y="134.752"/>
      <point x="186.88" y="-10.0"/>
      <point x="425.61999999999995" y="-10.0" type="curve" smooth="yes"/>
      <point x="664.1639999999999" y="-10.0"/>
      <point x="803.8039999999999" y="134.752"/>
      <point x="803.8039999999999" y="349.05400000000003" type="curve" smooth="yes"/>
      <point x="803.8039999999999" y="564.6640000000001"/>
      <point x="662.6519999999999" y="710.0"/>
    </contour>
    <contour>
      <point x="231.348" y="344.77200000000005" type="curve" smooth="yes"/>
      <point x="231.348" y="207.23000000000002"/>
      <point x="316.17199999999997" y="156.248"/>
      <point x="427.44599999999997" y="156.248" type="curve" smooth="yes"/>
      <point x="490.3119999999999" y="156.248"/>
      <point x="553.3340000000001" y="169.89"/>
      <point x="597.33" y="190.818" type="curve"/>
      <point x="579.548" y="282.43600000000004" type="line"/>
      <point x="549.412" y="273.092"/>
      <point x="500.52200000000005" y="261.838"/>
      <point x="453.85599999999994" y="261.838" type="curve" smooth="yes"/>
      <point x="392.05199999999996" y="261.838"/>
      <point x="363.426" y="283.236"/>
      <point x="363.426" y="346.27000000000004" type="curve" smooth="yes"/>
      <point x="363.426" y="419.424"/>
      <point x="394.51200000000006" y="441.964"/>
      <point x="459.28999999999996" y="441.964" type="curve" smooth="yes"/>
      <point x="495.65599999999995" y="441.964"/>
      <point x="539.8119999999999" y="432.912"/>
      <point x="570.128" y="424.36199999999997" type="curve"/>
      <point x="591.092" y="518.2520000000001" type="line"/>
      <point x="549.138" y="538.656"/>
      <point x="493.68999999999994" y="548.7580000000002"/>
      <point x="440.274" y="548.7580000000002" type="curve" smooth="yes"/>
      <point x="321.55600000000004" y="548.7580000000002"/>
      <point x="231.348" y="492.81600000000003"/>
    </contour>
  </outline>
</glyph>
<glyph name="ordfeminine" format="2">
  <advance width="516.908"/>
  <unicode hex="00AA"/>
  <outline>
    <contour>
      <point x="55.038" y="186.694" type="line"/>
      <point x="488.18399999999997" y="186.694" type="line"/>
      <point x="488.18399999999997" y="303.914" type="line"/>
      <point x="55.038" y="303.914" type="line"/>
    </contour>
    <component base="a.superior" xOffset="8.854"/>
  </outline>
</glyph>
<glyph name="logicalnot" format="2">
  <advance width="649.544"/>
  <unicode hex="00AC"/>
  <outline>
    <contour>
      <point x="54.936" y="296.96799999999996" type="line"/>
      <point x="427.15999999999997" y="296.96799999999996" type="line"/>
      <point x="427.15999999999997" y="162.466" type="line"/>
      <point x="594.65" y="162.466" type="line"/>
      <point x="594.65" y="464.458" type="line"/>
      <point x="54.936" y="464.458" type="line"/>
    </contour>
  </outline>
</glyph>
<glyph name="registered" format="2">
  <advance width="816.9439999999997"/>
  <unicode hex="00AE"/>
  <outline>
    <contour>
      <point x="400.244" y="206.70999999999995" type="curve" smooth="yes"/>
      <point x="635.87" y="206.70999999999995"/>
      <point x="769.7040000000001" y="340.47200000000004"/>
      <point x="769.7040000000001" y="549.668" type="curve" smooth="yes"/>
      <point x="769.7040000000001" y="754.4100000000001"/>
      <point x="636.398" y="893.486"/>
      <point x="400.244" y="893.486" type="curve" smooth="yes"/>
      <point x="174.89999999999998" y="893.486"/>
      <point x="47.24" y="754.4100000000001"/>
      <point x="47.24" y="549.668" type="curve" smooth="yes"/>
      <point x="47.24" y="345.926"/>
      <point x="173.08200000000002" y="206.70999999999995"/>
    </contour>
    <contour>
      <point x="400.244" y="275.9" type="curve" smooth="yes"/>
      <point x="217.162" y="275.9"/>
      <point x="126.75399999999999" y="383.07399999999996"/>
      <point x="126.75399999999999" y="549.668" type="curve" smooth="yes"/>
      <point x="126.75399999999999" y="717.594"/>
      <point x="217.49399999999997" y="820.66"/>
      <point x="400.244" y="820.66" type="curve" smooth="yes"/>
      <point x="593.9399999999999" y="820.66"/>
      <point x="689.8020000000001" y="717.2620000000001"/>
      <point x="689.8020000000001" y="549.668" type="curve" smooth="yes"/>
      <point x="689.8020000000001" y="382.116"/>
      <point x="592.65" y="275.9"/>
    </contour>
    <contour>
      <point x="592.7059999999999" y="383.19" type="curve" smooth="yes"/>
      <point x="596.038" y="383.19"/>
      <point x="599.052" y="383.19"/>
      <point x="602.038" y="383.23199999999997" type="curve"/>
      <point x="601.912" y="484.50600000000003" type="line"/>
      <point x="600.8699999999999" y="484.46399999999994"/>
      <point x="599.2439999999999" y="484.46399999999994"/>
      <point x="598.104" y="484.46399999999994" type="curve" smooth="yes"/>
      <point x="573.1379999999999" y="485.22599999999994"/>
      <point x="540.9179999999999" y="502.40400000000005"/>
      <point x="513.124" y="522.8759999999999" type="curve"/>
      <point x="562.3779999999999" y="530.4879999999999"/>
      <point x="596.546" y="558.624"/>
      <point x="596.546" y="619.236" type="curve" smooth="yes"/>
      <point x="596.546" y="692.5500000000001"/>
      <point x="546.8539999999999" y="725.15"/>
      <point x="408.58199999999994" y="725.15" type="curve" smooth="yes"/>
      <point x="374.606" y="725.15"/>
      <point x="316.36400000000003" y="723.6779999999999"/>
      <point x="235.318" y="719.874" type="curve"/>
      <point x="235.318" y="387.67199999999997" type="line"/>
      <point x="350.046" y="387.67199999999997" type="line"/>
      <point x="350.046" y="490.904" type="line"/>
      <point x="358.22800000000007" y="490.862"/>
      <point x="364.90199999999993" y="490.62399999999997"/>
      <point x="372.12200000000007" y="490.62399999999997" type="curve" smooth="yes"/>
      <point x="377.80399999999986" y="490.62399999999997"/>
      <point x="382.29400000000004" y="490.62399999999997"/>
      <point x="387.5459999999999" y="490.66600000000005" type="curve"/>
      <point x="452.582" y="419.818"/>
      <point x="521.2819999999999" y="383.62"/>
    </contour>
    <contour>
      <point x="394.3959999999999" y="558.9019999999999" type="curve" smooth="yes"/>
      <point x="382.624" y="558.9019999999999"/>
      <point x="372.35600000000005" y="559.4300000000001"/>
      <point x="350.046" y="559.9019999999999" type="curve"/>
      <point x="350.046" y="640.912" type="line"/>
      <point x="383.002" y="642.58"/>
      <point x="389.1459999999999" y="642.622"/>
      <point x="413.414" y="642.622" type="curve" smooth="yes"/>
      <point x="466.876" y="642.622"/>
      <point x="477.85" y="631.212"/>
      <point x="477.85" y="604.276" type="curve" smooth="yes"/>
      <point x="477.85" y="568.92"/>
      <point x="465.38399999999996" y="558.9019999999999"/>
    </contour>
  </outline>
</glyph>
<glyph name="degree" format="2">
  <advance width="418.98"/>
  <unicode hex="00B0"/>
  <outline>
    <contour>
      <point x="209.448" y="356.6" type="curve" smooth="yes"/>
      <point x="330.738" y="356.6"/>
      <point x="386.74399999999997" y="443.978"/>
      <point x="386.74399999999997" y="534.4200000000001" type="curve" smooth="yes"/>
      <point x="386.74399999999997" y="618.94"/>
      <point x="337.606" y="712.52"/>
      <point x="209.448" y="712.52" type="curve" smooth="yes"/>
      <point x="81.094" y="712.52"/>
      <point x="32.236" y="618.94"/>
      <point x="32.236" y="534.4200000000001" type="curve" smooth="yes"/>
      <point x="32.236" y="443.978"/>
      <point x="88.158" y="356.6"/>
    </contour>
    <contour>
      <point x="209.448" y="481.676" type="curve" smooth="yes"/>
      <point x="182.31799999999998" y="481.676"/>
      <point x="165.052" y="502.53400000000005"/>
      <point x="165.052" y="533.658" type="curve" smooth="yes"/>
      <point x="165.052" y="562.8660000000001"/>
      <point x="180.856" y="584.1999999999999"/>
      <point x="209.448" y="584.1999999999999" type="curve" smooth="yes"/>
      <point x="237.844" y="584.1999999999999"/>
      <point x="254.124" y="562.8660000000001"/>
      <point x="254.124" y="533.658" type="curve" smooth="yes"/>
      <point x="254.124" y="502.53400000000005"/>
      <point x="236.578" y="481.676"/>
    </contour>
  </outline>
</glyph>
<glyph name="plusminus" format="2">
  <advance width="650.888"/>
  <unicode hex="00B1"/>
  <outline>
    <contour>
      <point x="54.767999999999994" y="9.477999999999998" type="line"/>
      <point x="596.12" y="9.477999999999998" type="line"/>
      <point x="596.12" y="176.968" type="line"/>
      <point x="420.928" y="176.968" type="line"/>
      <point x="420.928" y="289.916" type="line"/>
      <point x="596.12" y="289.916" type="line"/>
      <point x="596.12" y="457.406" type="line"/>
      <point x="420.928" y="457.406" type="line"/>
      <point x="420.928" y="585.1800000000001" type="line"/>
      <point x="229.35799999999998" y="585.1800000000001" type="line"/>
      <point x="229.35799999999998" y="457.406" type="line"/>
      <point x="54.767999999999994" y="457.406" type="line"/>
      <point x="54.767999999999994" y="289.916" type="line"/>
      <point x="229.35799999999998" y="289.916" type="line"/>
      <point x="229.35799999999998" y="176.968" type="line"/>
      <point x="54.767999999999994" y="176.968" type="line"/>
    </contour>
  </outline>
</glyph>
<glyph name="uni00B2" format="2">
  <advance width="509.8179999999999"/>
  <unicode hex="00B2"/>
  <outline>
    <contour>
      <point x="38.812" y="370.0" type="line"/>
      <point x="474.204" y="370.0" type="line"/>
      <point x="474.204" y="470.968" type="line"/>
      <point x="291.796" y="470.968" type="line"/>
      <point x="400.50199999999995" y="534.518"/>
      <point x="427.994" y="575.858"/>
      <point x="427.994" y="636.0060000000001" type="curve" smooth="yes"/>
      <point x="427.994" y="720.514"/>
      <point x="351.4" y="773.348"/>
      <point x="233.24999999999997" y="773.348" type="curve" smooth="yes"/>
      <point x="167.18999999999997" y="773.348"/>
      <point x="85.60199999999999" y="754.684"/>
      <point x="36.232" y="728.0300000000001" type="curve"/>
      <point x="76.974" y="622.168" type="line"/>
      <point x="129.878" y="644.3700000000001"/>
      <point x="158.748" y="652.22"/>
      <point x="193.194" y="652.22" type="curve" smooth="yes"/>
      <point x="230.55599999999998" y="652.22"/>
      <point x="251.214" y="633.21"/>
      <point x="251.214" y="606.2719999999999" type="curve" smooth="yes"/>
      <point x="251.214" y="565.076"/>
      <point x="191.78599999999997" y="526.346"/>
      <point x="38.391999999999996" y="459.594" type="curve"/>
    </contour>
  </outline>
</glyph>
<glyph name="uni00B3" format="2">
  <advance width="516.504"/>
  <unicode hex="00B3"/>
  <outline>
    <contour>
      <point x="23.29" y="393.636" type="line"/>
      <point x="91.158" y="369.47200000000004"/>
      <point x="161.994" y="363.35400000000004"/>
      <point x="237.73" y="363.35400000000004" type="curve" smooth="yes"/>
      <point x="386.58199999999994" y="363.35400000000004"/>
      <point x="487.754" y="400.98199999999997"/>
      <point x="487.754" y="488.23" type="curve" smooth="yes"/>
      <point x="487.754" y="534.43"/>
      <point x="460.95799999999997" y="563.9559999999999"/>
      <point x="400.33799999999997" y="581.7719999999999" type="curve"/>
      <point x="442.44" y="593.614"/>
      <point x="473.78799999999995" y="624.904"/>
      <point x="473.78799999999995" y="669.418" type="curve" smooth="yes"/>
      <point x="473.78799999999995" y="733.3439999999999"/>
      <point x="405.044" y="773.9760000000001"/>
      <point x="246.75599999999997" y="773.9760000000001" type="curve" smooth="yes"/>
      <point x="153.678" y="773.9760000000001"/>
      <point x="73.85199999999999" y="763.256"/>
      <point x="31.882" y="748.1659999999999" type="curve"/>
      <point x="59.258" y="648.5880000000001" type="line"/>
      <point x="66.96200000000002" y="651.438"/>
      <point x="105.75800000000001" y="666.148"/>
      <point x="202.62800000000001" y="666.148" type="curve" smooth="yes"/>
      <point x="264.288" y="666.148"/>
      <point x="315.96999999999997" y="654.39"/>
      <point x="315.96999999999997" y="637.3900000000001" type="curve" smooth="yes"/>
      <point x="315.96999999999997" y="621.234"/>
      <point x="295.77" y="613.614"/>
      <point x="256.416" y="613.614" type="curve" smooth="yes"/>
      <point x="130.166" y="613.614" type="line"/>
      <point x="130.166" y="523.6659999999999" type="line"/>
      <point x="235.07600000000002" y="523.6659999999999" type="line" smooth="yes"/>
      <point x="308.672" y="523.6659999999999"/>
      <point x="322.972" y="514.696"/>
      <point x="322.972" y="498.55" type="curve" smooth="yes"/>
      <point x="322.972" y="477.632"/>
      <point x="292.354" y="464.36400000000003"/>
      <point x="220.402" y="464.36400000000003" type="curve" smooth="yes"/>
      <point x="128.04599999999996" y="464.36400000000003"/>
      <point x="90.91599999999998" y="471.774"/>
      <point x="54.827999999999996" y="485.75000000000006" type="curve"/>
    </contour>
  </outline>
</glyph>
<glyph name="uni00B5" format="2">
  <advance width="760.22"/>
  <unicode hex="00B5"/>
  <outline>
    <contour>
      <point x="51.41" y="-210.0" type="line"/>
      <point x="277.638" y="-210.0" type="line"/>
      <point x="277.638" y="4.4780000000000015" type="line"/>
      <point x="291.92799999999994" y="-4.4879999999999995"/>
      <point x="310.612" y="-9.484"/>
      <point x="334.43800000000005" y="-9.484" type="curve" smooth="yes"/>
      <point x="396.076" y="-9.484"/>
      <point x="441.1619999999999" y="13.504000000000001"/>
      <point x="490.66999999999996" y="51.86999999999999" type="curve"/>
      <point x="517.3059999999999" y="10.818000000000001"/>
      <point x="549.202" y="-10.0"/>
      <point x="618.144" y="-10.0" type="curve" smooth="yes"/>
      <point x="671.032" y="-10.0"/>
      <point x="728.004" y="6.116"/>
      <point x="758.1220000000001" y="26.003999999999998" type="curve"/>
      <point x="739.9540000000001" y="163.30599999999998" type="line"/>
      <point x="732.2639999999999" y="159.94"/>
      <point x="724.8499999999999" y="158.702"/>
      <point x="716.846" y="158.702" type="curve" smooth="yes"/>
      <point x="700.55" y="158.702"/>
      <point x="687.68" y="168.93200000000002"/>
      <point x="687.68" y="197.8" type="curve" smooth="yes"/>
      <point x="687.68" y="547.2" type="line"/>
      <point x="459.13" y="547.2" type="line"/>
      <point x="459.13" y="186.19599999999997" type="line"/>
      <point x="416.84799999999996" y="168.46999999999997"/>
      <point x="390.548" y="160.674"/>
      <point x="355.372" y="160.674" type="curve" smooth="yes"/>
      <point x="309.05" y="160.674"/>
      <point x="280.218" y="184.738"/>
      <point x="280.218" y="241.55" type="curve" smooth="yes"/>
      <point x="280.218" y="547.2" type="line"/>
      <point x="51.41" y="547.2" type="line"/>
    </contour>
  </outline>
</glyph>
<glyph name="paragraph" format="2">
  <advance width="831.822"/>
  <unicode hex="00B6"/>
  <outline>
    <contour>
      <point x="571.7539999999999" y="-210.0" type="line"/>
      <point x="748.102" y="-210.0" type="line"/>
      <point x="748.102" y="740.0" type="line"/>
      <point x="571.7539999999999" y="740.0" type="line"/>
    </contour>
    <contour>
      <point x="319.354" y="328.518" type="line"/>
      <point x="277.336" y="337.84400000000005"/>
      <point x="252.10400000000004" y="380.984"/>
      <point x="252.10400000000004" y="453.62" type="curve" smooth="yes"/>
      <point x="252.10400000000004" y="538.6139999999999"/>
      <point x="281.91" y="571.5740000000001"/>
      <point x="347.178" y="572.078" type="curve"/>
      <point x="347.178" y="-210.0" type="line"/>
      <point x="523.5260000000001" y="-210.0" type="line"/>
      <point x="523.5260000000001" y="740.0" type="line"/>
      <point x="397.60999999999996" y="740.0" type="line" smooth="yes"/>
      <point x="146.156" y="740.0"/>
      <point x="59.158" y="646.7339999999999"/>
      <point x="59.158" y="475.378" type="curve" smooth="yes"/>
      <point x="59.158" y="320.30400000000003"/>
      <point x="134.938" y="227.77999999999994"/>
      <point x="299.25" y="210.134" type="curve"/>
    </contour>
  </outline>
</glyph>
<glyph name="periodcentered" format="2">
  <advance width="312.0"/>
  <unicode hex="00B7"/>
  <outline>
    <contour>
      <point x="31.49999999999999" y="315.092" type="curve" smooth="yes"/>
      <point x="31.49999999999999" y="247.424"/>
      <point x="66.24799999999998" y="213.74400000000003"/>
      <point x="156.0" y="213.74400000000003" type="curve" smooth="yes"/>
      <point x="246.03199999999998" y="213.74400000000003"/>
      <point x="280.50000000000006" y="247.424"/>
      <point x="280.50000000000006" y="315.092" type="curve" smooth="yes"/>
      <point x="280.50000000000006" y="383.62"/>
      <point x="246.03199999999998" y="417.3"/>
      <point x="156.0" y="417.3" type="curve" smooth="yes"/>
      <point x="65.96799999999998" y="417.3"/>
      <point x="31.49999999999999" y="383.62"/>
    </contour>
  </outline>
</glyph>
<glyph name="uni00B9" format="2">
  <advance width="486.616"/>
  <unicode hex="00B9"/>
  <outline>
    <contour>
      <point x="58.11" y="370.0" type="line"/>
      <point x="466.124" y="370.0" type="line"/>
      <point x="466.124" y="474.02" type="line"/>
      <point x="356.61799999999994" y="474.02" type="line"/>
      <point x="356.61799999999994" y="765.934" type="line"/>
      <point x="269.894" y="765.934" type="line"/>
      <point x="25.984" y="690.4119999999999" type="line"/>
      <point x="66.21000000000001" y="576.242" type="line"/>
      <point x="181.09799999999998" y="611.058" type="line"/>
      <point x="181.09799999999998" y="474.02" type="line"/>
      <point x="58.11" y="474.02" type="line"/>
    </contour>
  </outline>
</glyph>
<glyph name="ordmasculine" format="2">
  <advance width="516.4639999999999"/>
  <unicode hex="00BA"/>
  <outline>
    <contour>
      <point x="40.146" y="186.792" type="line"/>
      <point x="474.07599999999996" y="186.792" type="line"/>
      <point x="474.07599999999996" y="304.01199999999994" type="line"/>
      <point x="40.146" y="304.01199999999994" type="line"/>
    </contour>
    <component base="o.superior" xOffset="8.504000000000001"/>
  </outline>
</glyph>
<glyph name="questiondown" format="2">
  <advance width="637.9620000000001"/>
  <unicode hex="00BF"/>
  <outline>
    <contour>
      <point x="444.30999999999995" y="284.35400000000004" type="line"/>
      <point x="250.93399999999997" y="284.35400000000004" type="line"/>
      <point x="249.72999999999996" y="229.288" type="line"/>
      <point x="89.024" y="186.68200000000002"/>
      <point x="33.342" y="116.83"/>
      <point x="33.342" y="13.799999999999997" type="curve" smooth="yes"/>
      <point x="33.342" y="-142.9"/>
      <point x="174.254" y="-205.982"/>
      <point x="329.886" y="-205.982" type="curve" smooth="yes"/>
      <point x="424.16" y="-205.982"/>
      <point x="548.3359999999999" y="-175.314"/>
      <point x="623.312" y="-129.35199999999998" type="curve"/>
      <point x="565.2399999999999" y="33.175999999999995" type="line"/>
      <point x="494.46200000000005" y="-1.5379999999999967"/>
      <point x="426.616" y="-21.936000000000003"/>
      <point x="368.06999999999994" y="-21.936000000000003" type="curve" smooth="yes"/>
      <point x="308.14" y="-21.936000000000003"/>
      <point x="270.964" y="-6.1640000000000015"/>
      <point x="270.964" y="31.345999999999997" type="curve" smooth="yes"/>
      <point x="270.964" y="64.596"/>
      <point x="287.92" y="92.04599999999999"/>
      <point x="449.556" y="127.75399999999999" type="curve"/>
    </contour>
    <contour>
      <point x="472.126" y="451.76800000000003" type="curve" smooth="yes"/>
      <point x="472.126" y="519.2819999999999"/>
      <point x="437.748" y="552.962"/>
      <point x="347.71" y="552.962" type="curve" smooth="yes"/>
      <point x="258.048" y="552.962"/>
      <point x="223.33599999999996" y="519.2819999999999"/>
      <point x="223.33599999999996" y="451.76800000000003" type="curve" smooth="yes"/>
      <point x="223.33599999999996" y="383.39399999999995"/>
      <point x="258.048" y="349.714"/>
      <point x="347.71" y="349.714" type="curve" smooth="yes"/>
      <point x="437.93" y="349.714"/>
      <point x="472.126" y="383.39399999999995"/>
    </contour>
  </outline>
</glyph>
<glyph name="AE" format="2">
  <advance width="1333.3639999999998"/>
  <unicode hex="00C6"/>
  <anchor x="719.168" y="700.0" name="top"/>
  <outline>
    <contour>
      <point x="1.4120000000000008" y="0.0" type="line"/>
      <point x="267.6600000000001" y="-0.14000000000000007" type="line"/>
      <point x="379.82399999999996" y="158.54" type="line"/>
      <point x="603.044" y="158.54" type="line"/>
      <point x="603.044" y="0.0" type="line"/>
      <point x="1298.74" y="0.0" type="line"/>
      <point x="1298.74" y="175.648" type="line"/>
      <point x="820.8760000000001" y="175.648" type="line"/>
      <point x="820.8760000000001" y="271.168" type="line"/>
      <point x="1246.372" y="271.168" type="line"/>
      <point x="1246.372" y="431.21599999999995" type="line"/>
      <point x="820.8760000000001" y="431.21599999999995" type="line"/>
      <point x="820.8760000000001" y="523.2719999999999" type="line"/>
      <point x="1275.3080000000002" y="523.2719999999999" type="line"/>
      <point x="1275.3080000000002" y="700.0" type="line"/>
      <point x="490.97200000000004" y="700.0" type="line"/>
    </contour>
    <contour>
      <point x="480.096" y="324.1600000000001" type="line"/>
      <point x="602.4720000000001" y="534.332" type="line"/>
      <point x="602.4720000000001" y="324.1600000000001" type="line"/>
    </contour>
  </outline>
</glyph>
<glyph name="multiply" format="2">
  <advance width="588.504"/>
  <unicode hex="00D7"/>
  <outline>
    <contour>
      <point x="152.14800000000002" y="82.82999999999997" type="line"/>
      <point x="294.308" y="208.86200000000002" type="line"/>
      <point x="436.258" y="83.166" type="line"/>
      <point x="545.198" y="210.39" type="line"/>
      <point x="423.464" y="319.734" type="line"/>
      <point x="545.352" y="429.96" type="line"/>
      <point x="436.41200000000003" y="557.1840000000001" type="line"/>
      <point x="294.308" y="430.648" type="line"/>
      <point x="152.05" y="557.38" type="line"/>
      <point x="43.11" y="430.15599999999995" type="line"/>
      <point x="164.592" y="319.734" type="line"/>
      <point x="43.208" y="210.054" type="line"/>
    </contour>
  </outline>
</glyph>
<glyph name="Oslash" format="2">
  <advance width="966.9999999999998"/>
  <unicode hex="00D8"/>
  <anchor x="483.15" y="700.0" name="top"/>
  <outline>
    <contour>
      <point x="190.0" y="-14.579999999999998" type="line"/>
      <point x="304.26" y="104.88" type="line"/>
      <point x="304.09" y="101.01" type="line"/>
      <point x="763.56" y="547.61" type="line"/>
      <point x="764.1099999999999" y="544.1700000000001" type="line"/>
      <point x="927.3799999999999" y="718.6" type="line"/>
      <point x="775.6500000000001" y="718.6" type="line"/>
      <point x="671.5999999999999" y="610.2100000000002" type="line"/>
      <point x="671.4099999999999" y="613.7199999999999" type="line"/>
      <point x="203.29000000000002" y="160.20000000000002" type="line"/>
      <point x="202.87999999999997" y="161.92000000000002" type="line"/>
      <point x="39.34" y="-14.579999999999998" type="line"/>
    </contour>
    <contour>
      <point x="483.5799999999999" y="144.20999999999998" type="curve" smooth="yes"/>
      <point x="357.36999999999995" y="144.20999999999998"/>
      <point x="256.04" y="191.83999999999997"/>
      <point x="256.04" y="350.5" type="curve" smooth="yes"/>
      <point x="256.04" y="510.93"/>
      <point x="357.65999999999997" y="555.79"/>
      <point x="483.5799999999999" y="555.79" type="curve" smooth="yes"/>
      <point x="608.21" y="555.79"/>
      <point x="710.54" y="511.65"/>
      <point x="710.54" y="351.21999999999997" type="curve" smooth="yes"/>
      <point x="710.54" y="190.0"/>
      <point x="607.49" y="144.20999999999998"/>
    </contour>
    <contour>
      <point x="483.2899999999999" y="-10.0" type="curve" smooth="yes"/>
      <point x="760.58" y="-10.0"/>
      <point x="927.0899999999999" y="89.09"/>
      <point x="927.0899999999999" y="353.86" type="curve" smooth="yes"/>
      <point x="927.0899999999999" y="608.48"/>
      <point x="768.5400000000001" y="710.0"/>
      <point x="483.5799999999999" y="710.0" type="curve" smooth="yes"/>
      <point x="196.26" y="710.0"/>
      <point x="39.63" y="606.98"/>
      <point x="39.63" y="351.06999999999994" type="curve" smooth="yes"/>
      <point x="39.63" y="92.5"/>
      <point x="206.41999999999996" y="-10.0"/>
    </contour>
  </outline>
</glyph>
<glyph name="Thorn" format="2">
  <advance width="915.7579999999999"/>
  <unicode hex="00DE"/>
  <outline>
    <contour>
      <point x="66.548" y="0.0" type="line"/>
      <point x="307.39599999999996" y="0.0" type="line"/>
      <point x="307.39599999999996" y="106.976" type="line"/>
      <point x="427.83799999999997" y="103.10199999999999"/>
      <point x="398.098" y="103.00399999999999"/>
      <point x="517.9300000000001" y="103.00399999999999" type="curve" smooth="yes"/>
      <point x="792.894" y="103.00399999999999"/>
      <point x="879.578" y="180.868"/>
      <point x="879.578" y="374.564" type="curve" smooth="yes"/>
      <point x="879.578" y="568.6600000000001"/>
      <point x="796.5559999999999" y="639.0459999999999"/>
      <point x="451.70799999999997" y="639.0459999999999" type="curve" smooth="yes"/>
      <point x="422.942" y="639.0459999999999"/>
      <point x="370.888" y="638.206"/>
      <point x="307.654" y="636.736" type="curve"/>
      <point x="307.654" y="700.0" type="line"/>
      <point x="66.548" y="700.0" type="line"/>
    </contour>
    <contour>
      <point x="424.57599999999996" y="276.16999999999996" type="curve" smooth="yes"/>
      <point x="389.128" y="276.16999999999996"/>
      <point x="367.0539999999999" y="277.066"/>
      <point x="307.654" y="280.32599999999996" type="curve"/>
      <point x="307.654" y="465.246" type="line"/>
      <point x="398.77599999999995" y="469.3379999999999"/>
      <point x="416.658" y="469.5760000000001"/>
      <point x="471.09999999999997" y="469.5760000000001" type="curve" smooth="yes"/>
      <point x="601.8119999999999" y="469.5760000000001"/>
      <point x="634.516" y="439.722"/>
      <point x="634.516" y="376.932" type="curve" smooth="yes"/>
      <point x="634.516" y="311.02799999999996"/>
      <point x="615.646" y="276.16999999999996"/>
    </contour>
  </outline>
</glyph>
<glyph name="germandbls" format="2">
  <advance width="920.2919999999998"/>
  <unicode hex="00DF"/>
  <outline>
    <contour>
      <point x="103.85999999999999" y="0.0" type="line"/>
      <point x="332.36800000000005" y="0.0" type="line"/>
      <point x="332.36800000000005" y="475.85600000000005" type="line" smooth="yes"/>
      <point x="332.36800000000005" y="561.296"/>
      <point x="399.2080000000001" y="595.068"/>
      <point x="510.0079999999999" y="595.068" type="curve" smooth="yes"/>
      <point x="614.4439999999998" y="595.068"/>
      <point x="637.9" y="581.692"/>
      <point x="637.9" y="557.296" type="curve" smooth="yes"/>
      <point x="637.9" y="538.1879999999999"/>
      <point x="622.132" y="530.9080000000001"/>
      <point x="564.3839999999999" y="518.912" type="curve" smooth="yes"/>
      <point x="450.896" y="503.988"/>
      <point x="403.20399999999995" y="442.14799999999997"/>
      <point x="403.20399999999995" y="364.128" type="curve" smooth="yes"/>
      <point x="403.20399999999995" y="254.82800000000006"/>
      <point x="448.984" y="206.89600000000002"/>
      <point x="614.76" y="191.01199999999997" type="curve" smooth="yes"/>
      <point x="694.0679999999999" y="183.148"/>
      <point x="710.6359999999999" y="179.42000000000002"/>
      <point x="710.6359999999999" y="158.95600000000002" type="curve" smooth="yes"/>
      <point x="710.6359999999999" y="136.86"/>
      <point x="678.54" y="129.11200000000002"/>
      <point x="636.3719999999998" y="129.11200000000002" type="curve" smooth="yes"/>
      <point x="567.208" y="129.11200000000002"/>
      <point x="465.0" y="143.588"/>
      <point x="397.48799999999994" y="161.364" type="curve"/>
      <point x="375.276" y="19.411999999999995" type="line"/>
      <point x="459.3400000000001" y="-2.4160000000000004"/>
      <point x="542.156" y="-9.996"/>
      <point x="624.008" y="-9.996" type="curve" smooth="yes"/>
      <point x="763.564" y="-9.996"/>
      <point x="919.6239999999998" y="23.799999999999997"/>
      <point x="919.6239999999998" y="175.564" type="curve" smooth="yes"/>
      <point x="919.6239999999998" y="286.856"/>
      <point x="856.2600000000001" y="331.092"/>
      <point x="718.38" y="343.12399999999997" type="curve" smooth="yes"/>
      <point x="629.14" y="349.424"/>
      <point x="608.468" y="354.948"/>
      <point x="608.468" y="373.32" type="curve" smooth="yes"/>
      <point x="608.468" y="390.484"/>
      <point x="626.56" y="392.71599999999995"/>
      <point x="673.76" y="401.47200000000004" type="curve" smooth="yes"/>
      <point x="786.1080000000001" y="423.052"/>
      <point x="847.872" y="463.62"/>
      <point x="847.872" y="559.9999999999999" type="curve" smooth="yes"/>
      <point x="847.872" y="693.756"/>
      <point x="728.3319999999999" y="750.0"/>
      <point x="501.788" y="750.0" type="curve" smooth="yes"/>
      <point x="235.34799999999998" y="750.0"/>
      <point x="103.75999999999998" y="678.876"/>
      <point x="103.85999999999999" y="511.4360000000001" type="curve" smooth="yes"/>
      <point x="103.85999999999999" y="495.35200000000003" type="line"/>
      <point x="14.887999999999996" y="480.62" type="line"/>
      <point x="14.887999999999996" y="346.192" type="line"/>
      <point x="103.85999999999999" y="346.192" type="line"/>
    </contour>
  </outline>
</glyph>
<glyph name="ae" format="2">
  <advance width="1093.8079999999998"/>
  <unicode hex="00E6"/>
  <anchor x="554.6960000000001" y="547.2" name="top"/>
  <outline>
    <contour>
      <point x="220.25199999999998" y="-10.0" type="curve" smooth="yes"/>
      <point x="330.41200000000003" y="-10.0"/>
      <point x="402.29600000000005" y="22.780000000000005"/>
      <point x="479.71599999999995" y="74.64800000000001" type="curve"/>
      <point x="481.3599999999999" y="74.64800000000001" type="line"/>
      <point x="546.1759999999999" y="12.955999999999996"/>
      <point x="624.764" y="-10.0"/>
      <point x="766.1039999999999" y="-10.0" type="curve" smooth="yes"/>
      <point x="877.7839999999999" y="-10.0"/>
      <point x="962.8240000000001" y="0.47999999999999987"/>
      <point x="1058.5279999999998" y="23.791999999999998" type="curve"/>
      <point x="1033.176" y="177.376" type="line"/>
      <point x="949.7920000000001" y="161.22799999999998"/>
      <point x="857.236" y="150.38799999999998"/>
      <point x="786.0240000000001" y="150.38799999999998" type="curve" smooth="yes"/>
      <point x="683.408" y="150.38799999999998"/>
      <point x="651.6799999999998" y="158.50799999999998"/>
      <point x="645.952" y="206.64" type="curve" smooth="yes"/>
      <point x="645.1679999999998" y="209.328"/>
      <point x="645.1679999999998" y="214.47599999999997"/>
      <point x="645.5199999999999" y="215.06799999999998" type="curve"/>
      <point x="831.3199999999999" y="219.50799999999998"/>
      <point x="968.8159999999999" y="230.272"/>
      <point x="1055.7799999999997" y="235.42" type="curve"/>
      <point x="1056.4959999999999" y="252.464"/>
      <point x="1057.6399999999999" y="274.884"/>
      <point x="1057.6399999999999" y="294.26800000000003" type="curve" smooth="yes"/>
      <point x="1057.6399999999999" y="479.776"/>
      <point x="959.9799999999998" y="557.2"/>
      <point x="753.108" y="557.2" type="curve" smooth="yes"/>
      <point x="661.032" y="557.2"/>
      <point x="604.588" y="540.128"/>
      <point x="553.448" y="496.31600000000003" type="curve"/>
      <point x="551.9440000000001" y="496.31600000000003" type="line"/>
      <point x="488.1519999999999" y="541.3399999999999"/>
      <point x="435.37199999999996" y="557.2"/>
      <point x="319.236" y="557.2" type="curve" smooth="yes"/>
      <point x="240.248" y="557.2"/>
      <point x="145.09999999999997" y="544.764"/>
      <point x="60.64" y="523.26" type="curve"/>
      <point x="89.28799999999998" y="367.312" type="line"/>
      <point x="159.492" y="385.16400000000004"/>
      <point x="251.35199999999998" y="394.44399999999996"/>
      <point x="303.25199999999995" y="394.44399999999996" type="curve" smooth="yes"/>
      <point x="384.6039999999999" y="394.44399999999996"/>
      <point x="415.33199999999994" y="378.632"/>
      <point x="415.33199999999994" y="349.348" type="curve" smooth="yes"/>
      <point x="415.33199999999994" y="337.412" type="line"/>
      <point x="137.75199999999998" y="333.25999999999993"/>
      <point x="25.891999999999996" y="295.332"/>
      <point x="25.891999999999996" y="157.924" type="curve" smooth="yes"/>
      <point x="25.891999999999996" y="49.332"/>
      <point x="97.74" y="-10.0"/>
    </contour>
    <contour>
      <point x="309.69199999999995" y="120.268" type="curve" smooth="yes"/>
      <point x="279.364" y="120.268"/>
      <point x="258.948" y="133.7"/>
      <point x="258.948" y="164.64" type="curve" smooth="yes"/>
      <point x="258.948" y="218.55599999999995"/>
      <point x="309.59999999999997" y="225.52800000000002"/>
      <point x="415.84" y="229.05200000000002" type="curve"/>
      <point x="415.9839999999999" y="221.04799999999997"/>
      <point x="415.9839999999999" y="211.392"/>
      <point x="415.9839999999999" y="204.136" type="curve" smooth="yes"/>
      <point x="415.9839999999999" y="189.36799999999997"/>
      <point x="415.9" y="175.716"/>
      <point x="417.88" y="162.54399999999998" type="curve"/>
      <point x="396.4440000000001" y="142.684"/>
      <point x="347.96799999999996" y="120.268"/>
    </contour>
    <contour>
      <point x="645.8" y="330.95199999999994" type="curve"/>
      <point x="652.1919999999999" y="399.7"/>
      <point x="694.6680000000001" y="412.716"/>
      <point x="738.9199999999998" y="412.716" type="curve" smooth="yes"/>
      <point x="788.756" y="412.716"/>
      <point x="813.98" y="392.608"/>
      <point x="824.66" y="337.052" type="curve"/>
      <point x="770.6199999999998" y="335.42"/>
      <point x="711.9599999999999" y="331.45599999999996"/>
    </contour>
  </outline>
</glyph>
<glyph name="eth" format="2">
  <advance width="757.56"/>
  <unicode hex="00F0"/>
  <outline>
    <contour>
      <point x="550.6600000000001" y="358.74" type="curve"/>
      <point x="554.96" y="485.20000000000005" type="line"/>
      <point x="490.37999999999994" y="515.5799999999999"/>
      <point x="429.93999999999994" y="525.8199999999999"/>
      <point x="347.0799999999999" y="525.8199999999999" type="curve" smooth="yes"/>
      <point x="131.76" y="525.8199999999999"/>
      <point x="30.42" y="426.16"/>
      <point x="30.42" y="250.20000000000002" type="curve" smooth="yes"/>
      <point x="30.42" y="81.1"/>
      <point x="141.28000000000003" y="-10.0"/>
      <point x="355.32000000000005" y="-10.0" type="curve" smooth="yes"/>
      <point x="611.9599999999999" y="-10.0"/>
      <point x="727.06" y="98.18"/>
      <point x="727.06" y="370.73999999999995" type="curve" smooth="yes"/>
      <point x="727.06" y="641.3399999999999"/>
      <point x="563.4599999999999" y="752.6999999999999"/>
      <point x="293.17999999999995" y="752.6999999999999" type="curve" smooth="yes"/>
      <point x="211.92000000000002" y="752.6999999999999"/>
      <point x="127.75999999999999" y="742.5400000000001"/>
      <point x="36.66" y="722.96" type="curve"/>
      <point x="52.12" y="605.1199999999999" type="line"/>
      <point x="136.50000000000003" y="618.32"/>
      <point x="186.64" y="625.02"/>
      <point x="246.75999999999996" y="625.02" type="curve" smooth="yes"/>
      <point x="455.90000000000003" y="625.02"/>
      <point x="521.1600000000001" y="572.9599999999999"/>
      <point x="521.1600000000001" y="372.14000000000004" type="curve" smooth="yes"/>
      <point x="521.1600000000001" y="174.76"/>
      <point x="479.47999999999996" y="128.54"/>
      <point x="376.49999999999994" y="128.54" type="curve" smooth="yes"/>
      <point x="290.15999999999997" y="128.54"/>
      <point x="245.98" y="166.94"/>
      <point x="245.98" y="257.22" type="curve" smooth="yes"/>
      <point x="245.98" y="361.22"/>
      <point x="293.02" y="393.26"/>
      <point x="386.34000000000003" y="393.26" type="curve" smooth="yes"/>
      <point x="446.49999999999994" y="393.26"/>
      <point x="502.86" y="381.02"/>
    </contour>
    <contour>
      <point x="250.85999999999999" y="544.6200000000001" type="line"/>
      <point x="470.17999999999995" y="636.8199999999999" type="line"/>
      <point x="475.16" y="644.48" type="line"/>
      <point x="712.64" y="755.3599999999999" type="line"/>
      <point x="543.1800000000001" y="755.7199999999999" type="line"/>
      <point x="391.08000000000004" y="685.9799999999999" type="line"/>
      <point x="396.58" y="681.7600000000001" type="line"/>
      <point x="83.06000000000003" y="544.9800000000001" type="line"/>
    </contour>
  </outline>
</glyph>
<glyph name="divide" format="2">
  <advance width="649.6279999999999"/>
  <unicode hex="00F7"/>
  <outline>
    <contour>
      <point x="224.608" y="100.33599999999998" type="curve" smooth="yes"/>
      <point x="224.608" y="48.58"/>
      <point x="253.33599999999998" y="22.779999999999998"/>
      <point x="324.88399999999996" y="22.779999999999998" type="curve" smooth="yes"/>
      <point x="397.0" y="22.779999999999998"/>
      <point x="425.66400000000004" y="48.58"/>
      <point x="425.66400000000004" y="100.33599999999998" type="curve" smooth="yes"/>
      <point x="425.66400000000004" y="153.17600000000002"/>
      <point x="396.99999999999994" y="179.25600000000003"/>
      <point x="324.88399999999996" y="179.25600000000003" type="curve" smooth="yes"/>
      <point x="253.05599999999998" y="179.25600000000003"/>
      <point x="224.608" y="153.17600000000002"/>
    </contour>
    <contour>
      <point x="224.608" y="534.2760000000001" type="curve" smooth="yes"/>
      <point x="224.608" y="482.8"/>
      <point x="253.33599999999998" y="456.72"/>
      <point x="324.88399999999996" y="456.72" type="curve" smooth="yes"/>
      <point x="397.0" y="456.72"/>
      <point x="425.66400000000004" y="482.8"/>
      <point x="425.66400000000004" y="534.2760000000001" type="curve" smooth="yes"/>
      <point x="425.66400000000004" y="587.3960000000001"/>
      <point x="397.0" y="613.336"/>
      <point x="324.88399999999996" y="613.336" type="curve" smooth="yes"/>
      <point x="253.05599999999998" y="613.336"/>
      <point x="224.608" y="587.3960000000001"/>
    </contour>
    <contour>
      <point x="54.852" y="233.92" type="line"/>
      <point x="594.916" y="233.92" type="line"/>
      <point x="594.916" y="401.48" type="line"/>
      <point x="54.852" y="401.48" type="line"/>
    </contour>
  </outline>
</glyph>
<glyph name="oslash" format="2">
  <advance width="772.24"/>
  <unicode hex="00F8"/>
  <anchor x="385.44" y="547.1999999999999" name="top"/>
  <outline>
    <contour>
      <point x="385.8" y="-10.0" type="curve" smooth="yes"/>
      <point x="128.43999999999997" y="-10.0"/>
      <point x="32.13999999999999" y="104.07999999999998"/>
      <point x="32.13999999999999" y="275.46000000000004" type="curve" smooth="yes"/>
      <point x="32.13999999999999" y="437.48"/>
      <point x="115.79999999999997" y="557.1999999999999"/>
      <point x="385.8" y="557.1999999999999" type="curve" smooth="yes"/>
      <point x="655.16" y="557.1999999999999"/>
      <point x="739.46" y="437.48"/>
      <point x="739.46" y="275.46000000000004" type="curve" smooth="yes"/>
      <point x="739.46" y="104.07999999999998"/>
      <point x="642.8" y="-10.0"/>
    </contour>
    <contour>
      <point x="385.43999999999994" y="130.18" type="curve" smooth="yes"/>
      <point x="489.79999999999995" y="130.18"/>
      <point x="530.92" y="171.98"/>
      <point x="530.92" y="275.1" type="curve" smooth="yes"/>
      <point x="530.92" y="372.58000000000004"/>
      <point x="496.72" y="417.38"/>
      <point x="385.43999999999994" y="417.38" type="curve" smooth="yes"/>
      <point x="274.02" y="417.38"/>
      <point x="240.17999999999998" y="372.58000000000004"/>
      <point x="240.17999999999998" y="275.1" type="curve" smooth="yes"/>
      <point x="240.17999999999998" y="171.98"/>
      <point x="280.58000000000004" y="130.18"/>
    </contour>
    <contour>
      <point x="31.419999999999995" y="-5.9799999999999995" type="line"/>
      <point x="172.35999999999999" y="138.46" type="line"/>
      <point x="173.21999999999997" y="138.32" type="line"/>
      <point x="527.8199999999999" y="468.44" type="line"/>
      <point x="528.6800000000001" y="468.3" type="line"/>
      <point x="612.5600000000001" y="557.1999999999999" type="line"/>
      <point x="740.1800000000002" y="557.1999999999999" type="line"/>
      <point x="605.5" y="419.46000000000004" type="line"/>
      <point x="604.6399999999999" y="419.6" type="line"/>
      <point x="247.07999999999996" y="86.36" type="line"/>
      <point x="246.22" y="86.5" type="line"/>
      <point x="157.04" y="-5.9799999999999995" type="line"/>
    </contour>
  </outline>
</glyph>
<glyph name="thorn" format="2">
  <advance width="761.458"/>
  <unicode hex="00FE"/>
  <outline>
    <contour>
      <point x="51.41" y="-210.0" type="line"/>
      <point x="280.046" y="-210.0" type="line"/>
      <point x="280.046" y="-5.309999999999999" type="line"/>
      <point x="312.12399999999997" y="-8.432000000000002"/>
      <point x="345.06399999999996" y="-10.0"/>
      <point x="376.848" y="-10.0" type="curve" smooth="yes"/>
      <point x="627.242" y="-10.0"/>
      <point x="732.9499999999999" y="75.192"/>
      <point x="732.9499999999999" y="281.372" type="curve" smooth="yes"/>
      <point x="732.9499999999999" y="460.18399999999997"/>
      <point x="646.34" y="557.2"/>
      <point x="490.00199999999995" y="557.2" type="curve" smooth="yes"/>
      <point x="423.20799999999997" y="557.2"/>
      <point x="352.58799999999997" y="539.8580000000001"/>
      <point x="280.562" y="505.82399999999996" type="curve"/>
      <point x="280.562" y="740.0" type="line"/>
      <point x="51.41" y="740.0" type="line"/>
    </contour>
    <contour>
      <point x="379.476" y="139.20600000000002" type="curve" smooth="yes"/>
      <point x="348.314" y="139.20600000000002"/>
      <point x="313.548" y="143.44"/>
      <point x="280.218" y="152.09" type="curve"/>
      <point x="280.218" y="361.62800000000004" type="line"/>
      <point x="324.034" y="375.974"/>
      <point x="363.436" y="383.098"/>
      <point x="396.226" y="383.098" type="curve" smooth="yes"/>
      <point x="464.64599999999996" y="383.098"/>
      <point x="499.15399999999994" y="349.418"/>
      <point x="499.15399999999994" y="267.526" type="curve" smooth="yes"/>
      <point x="499.15399999999994" y="174.68999999999997"/>
      <point x="459.92799999999994" y="139.20600000000002"/>
    </contour>
  </outline>
</glyph>
<glyph name="Dcroat" format="2">
  <advance width="928.1079999999998"/>
  <unicode hex="0110"/>
  <outline>
    <contour>
      <point x="13.267999999999999" y="275.252" type="line"/>
      <point x="458.436" y="275.252" type="line"/>
      <point x="458.436" y="431.55999999999995" type="line"/>
      <point x="13.267999999999999" y="431.55999999999995" type="line"/>
    </contour>
    <component base="D" xOffset="5.0120000000000005"/>
  </outline>
</glyph>
<glyph name="dcroat" format="2">
  <advance width="770.3679999999999"/>
  <unicode hex="0111"/>
  <outline>
    <contour>
      <point x="294.556" y="594.7800000000001" type="line"/>
      <point x="777.86" y="594.7800000000001" type="line"/>
      <point x="777.86" y="689.96" type="line"/>
      <point x="294.556" y="689.96" type="line"/>
    </contour>
    <component base="d"/>
  </outline>
</glyph>
<glyph name="Hbar" format="2">
  <advance width="936.2019999999999"/>
  <unicode hex="0126"/>
  <outline>
    <contour>
      <point x="21.556" y="499.48600000000005" type="line"/>
      <point x="69.166" y="499.48600000000005" type="line"/>
      <point x="69.166" y="0.0" type="line"/>
      <point x="309.75600000000003" y="0.0" type="line"/>
      <point x="309.75600000000003" y="226.586" type="line"/>
      <point x="632.4659999999999" y="226.586" type="line"/>
      <point x="632.4659999999999" y="0.0" type="line"/>
      <point x="867.0360000000001" y="0.0" type="line"/>
      <point x="867.0360000000001" y="499.48600000000005" type="line"/>
      <point x="914.646" y="499.48600000000005" type="line"/>
      <point x="914.646" y="626.9140000000001" type="line"/>
      <point x="867.0360000000001" y="626.9140000000001" type="line"/>
      <point x="867.0360000000001" y="700.0" type="line"/>
      <point x="632.4659999999999" y="700.0" type="line"/>
      <point x="632.4659999999999" y="626.9140000000001" type="line"/>
      <point x="309.75600000000003" y="626.9140000000001" type="line"/>
      <point x="309.75600000000003" y="700.0" type="line"/>
      <point x="69.166" y="700.0" type="line"/>
      <point x="69.166" y="626.9140000000001" type="line"/>
      <point x="21.556" y="626.9140000000001" type="line"/>
    </contour>
    <contour>
      <point x="309.75600000000003" y="421.554" type="line"/>
      <point x="309.75600000000003" y="499.48600000000005" type="line"/>
      <point x="632.4659999999999" y="499.48600000000005" type="line"/>
      <point x="632.4659999999999" y="421.554" type="line"/>
    </contour>
  </outline>
</glyph>
<glyph name="hbar" format="2">
  <advance width="742.914"/>
  <unicode hex="0127"/>
  <outline>
    <contour>
      <point x="-7.131999999999999" y="594.71" type="line"/>
      <point x="477.25" y="594.71" type="line"/>
      <point x="477.25" y="688.21" type="line"/>
      <point x="-7.131999999999999" y="688.21" type="line"/>
    </contour>
    <component base="h"/>
  </outline>
</glyph>
<glyph name="Idotaccent" format="2">
  <advance width="373.686"/>
  <unicode hex="0130"/>
  <outline>
    <contour>
      <point x="187.23000000000002" y="734.8620000000001" type="curve" smooth="yes"/>
      <point x="284.15799999999996" y="734.8620000000001"/>
      <point x="323.128" y="767.424"/>
      <point x="323.128" y="831.842" type="curve" smooth="yes"/>
      <point x="323.128" y="896.776"/>
      <point x="283.642" y="929.08"/>
      <point x="187.23000000000002" y="929.08" type="curve" smooth="yes"/>
      <point x="90.55999999999999" y="929.08"/>
      <point x="51.07399999999999" y="896.776"/>
      <point x="51.07399999999999" y="831.842" type="curve" smooth="yes"/>
      <point x="51.07399999999999" y="767.1659999999999"/>
      <point x="90.7" y="734.8620000000001"/>
    </contour>
    <component base="I"/>
  </outline>
</glyph>
<glyph name="dotlessi" format="2">
  <advance width="332.144"/>
  <unicode hex="0131"/>
  <anchor x="261.544" y="8.6" name="ogonek"/>
  <anchor x="166.588" y="0.0" name="bottom"/>
  <anchor x="166.072" y="547.2" name="top"/>
  <outline>
    <contour>
      <point x="51.41" y="0.0" type="line"/>
      <point x="280.734" y="0.0" type="line"/>
      <point x="280.734" y="547.2" type="line"/>
      <point x="51.41" y="547.2" type="line"/>
    </contour>
  </outline>
</glyph>
<glyph name="kgreenlandic" format="2">
  <advance width="732.7399999999999"/>
  <unicode hex="0138"/>
  <anchor x="364.18" y="547.1999999999999" name="top"/>
  <anchor x="364.18" y="0.0" name="bottom"/>
  <outline>
    <contour>
      <point x="660.44" y="-10.580000000000002" type="curve" smooth="yes"/>
      <point x="680.4799999999999" y="-10.580000000000002"/>
      <point x="692.64" y="-9.719999999999997"/>
      <point x="705.24" y="-7.859999999999999" type="curve"/>
      <point x="704.32" y="186.34" type="line"/>
      <point x="696.9600000000002" y="185.84"/>
      <point x="690.8199999999999" y="185.7"/>
      <point x="684.24" y="185.7" type="curve" smooth="yes"/>
      <point x="639.1399999999999" y="185.7"/>
      <point x="587.4799999999999" y="208.34"/>
      <point x="466.96" y="289.87999999999994" type="curve" smooth="yes"/>
      <point x="259.47999999999996" y="430.20000000000005" type="line"/>
      <point x="259.47999999999996" y="547.1999999999999" type="line"/>
      <point x="57.819999999999986" y="547.1999999999999" type="line"/>
      <point x="57.819999999999986" y="0.0" type="line"/>
      <point x="259.47999999999996" y="0.0" type="line"/>
      <point x="259.47999999999996" y="197.86" type="line"/>
      <point x="431.85999999999996" y="83.4" type="line" smooth="yes"/>
      <point x="551.5799999999999" y="3.7999999999999994"/>
      <point x="603.66" y="-10.580000000000002"/>
    </contour>
    <contour>
      <point x="415.4599999999999" y="245.38" type="line"/>
      <point x="516.5600000000001" y="317.15999999999997"/>
      <point x="653.8" y="426.02"/>
      <point x="697.3799999999999" y="539.1600000000001" type="curve"/>
      <point x="479.34000000000003" y="549.88" type="line"/>
      <point x="447.64000000000004" y="467.16"/>
      <point x="369.3999999999999" y="404.8"/>
      <point x="235.3" y="305.28" type="curve"/>
    </contour>
  </outline>
</glyph>
<glyph name="Ldot" format="2">
  <advance width="764.4399999999999"/>
  <unicode hex="013F"/>
  <outline>
    <contour>
      <point x="447.60799999999995" y="428.438" type="curve" smooth="yes"/>
      <point x="447.60799999999995" y="368.14799999999997"/>
      <point x="479.58000000000004" y="338.08"/>
      <point x="563.21" y="338.08" type="curve" smooth="yes"/>
      <point x="647.2379999999999" y="338.08"/>
      <point x="679.0699999999999" y="368.14799999999997"/>
      <point x="679.0699999999999" y="428.438" type="curve" smooth="yes"/>
      <point x="679.0699999999999" y="489.58799999999997"/>
      <point x="647.2379999999999" y="519.656"/>
      <point x="563.21" y="519.656" type="curve" smooth="yes"/>
      <point x="479.43999999999994" y="519.656"/>
      <point x="447.60799999999995" y="489.58799999999997"/>
    </contour>
    <component base="L"/>
  </outline>
</glyph>
<glyph name="ldot" format="2">
  <advance width="472.22999999999996"/>
  <unicode hex="0140"/>
  <outline>
    <contour>
      <point x="416.76000000000005" y="333.538" type="curve" smooth="yes"/>
      <point x="463.97999999999996" y="333.538"/>
      <point x="483.51399999999995" y="355.86600000000004"/>
      <point x="483.51399999999995" y="403.94399999999996" type="curve" smooth="yes"/>
      <point x="483.51399999999995" y="452.28000000000003"/>
      <point x="463.97999999999996" y="474.608"/>
      <point x="416.76000000000005" y="474.608" type="curve" smooth="yes"/>
      <point x="369.798" y="474.608"/>
      <point x="350.264" y="452.28000000000003"/>
      <point x="350.264" y="403.94399999999996" type="curve" smooth="yes"/>
      <point x="350.264" y="355.86600000000004"/>
      <point x="369.938" y="333.538"/>
    </contour>
    <component base="l"/>
  </outline>
</glyph>
<glyph name="Lslash" format="2">
  <advance width="769.8340000000001"/>
  <unicode hex="0141"/>
  <outline>
    <contour>
      <point x="3.9000000000000004" y="164.45" type="line"/>
      <point x="71.94200000000001" y="197.03" type="line"/>
      <point x="71.94200000000001" y="0.0" type="line"/>
      <point x="743.174" y="0.0" type="line"/>
      <point x="743.174" y="193.162" type="line"/>
      <point x="312.78999999999996" y="193.162" type="line"/>
      <point x="312.78999999999996" y="304.214" type="line"/>
      <point x="547.506" y="414.85" type="line"/>
      <point x="547.506" y="600.442" type="line"/>
      <point x="312.78999999999996" y="489.848" type="line"/>
      <point x="312.78999999999996" y="700.0" type="line"/>
      <point x="71.94200000000001" y="700.0" type="line"/>
      <point x="71.94200000000001" y="382.66400000000004" type="line"/>
      <point x="3.9000000000000004" y="350.08400000000006" type="line"/>
    </contour>
  </outline>
</glyph>
<glyph name="lslash" format="2">
  <advance width="446.946"/>
  <unicode hex="0142"/>
  <outline>
    <contour>
      <point x="251.76799999999997" y="-10.0" type="curve" smooth="yes"/>
      <point x="321.586" y="-10.0"/>
      <point x="391.506" y="2.9079999999999995"/>
      <point x="446.538" y="19.541999999999998" type="curve"/>
      <point x="422.92999999999995" y="188.538" type="line"/>
      <point x="388.068" y="181.966"/>
      <point x="360.886" y="177.87199999999999"/>
      <point x="339.316" y="177.87199999999999" type="curve" smooth="yes"/>
      <point x="308.81399999999996" y="177.87199999999999"/>
      <point x="289.334" y="188.94599999999997"/>
      <point x="289.334" y="232.512" type="curve" smooth="yes"/>
      <point x="289.334" y="322.79" type="line"/>
      <point x="401.64" y="387.152" type="line"/>
      <point x="401.64" y="548.5400000000001" type="line"/>
      <point x="289.334" y="484.17800000000005" type="line"/>
      <point x="289.334" y="740.0" type="line"/>
      <point x="60.784000000000006" y="740.0" type="line"/>
      <point x="60.784000000000006" y="363.258" type="line"/>
      <point x="0.8859999999999992" y="328.612" type="line"/>
      <point x="0.8859999999999992" y="167.266" type="line"/>
      <point x="61.98800000000001" y="202.47199999999998" type="line"/>
      <point x="63.19200000000001" y="169.21599999999998" type="line" smooth="yes"/>
      <point x="73.42600000000002" y="36.89399999999999"/>
      <point x="133.57" y="-10.0"/>
    </contour>
  </outline>
</glyph>
